  0
SECTION
  2
BLOCKS
  0
ENDSEC
  0
SECTION
  2
ENTITIES
  0
LINE
  8
0
 10
95
 20
43
 11
10
 21
43
  0
LINE
  8
0
 10
10
 20
43
 11
0
 21
33.5
  0
LINE
  8
0
 10
0
 20
33.5
 11
10
 21
24
  0
LINE
  8
0
 10
10
 20
24
 11
95
 21
24
  0
LINE
  8
0
 10
95
 20
24
 11
95
 21
43
  0
LINE
  8
0
 10
4.93719
 20
32.502
 11
4.87466
 21
32.5079
  0
LINE
  8
0
 10
4.87466
 20
32.5079
 11
4.81261
 21
32.5177
  0
LINE
  8
0
 10
4.81261
 20
32.5177
 11
4.7513
 21
32.5314
  0
LINE
  8
0
 10
4.7513
 20
32.5314
 11
4.69098
 21
32.5489
  0
LINE
  8
0
 10
4.69098
 20
32.5489
 11
4.63187
 21
32.5702
  0
LINE
  8
0
 10
4.63187
 20
32.5702
 11
4.57422
 21
32.5952
  0
LINE
  8
0
 10
4.57422
 20
32.5952
 11
4.51823
 21
32.6237
  0
LINE
  8
0
 10
4.51823
 20
32.6237
 11
4.46417
 21
32.6557
  0
LINE
  8
0
 10
4.46417
 20
32.6557
 11
4.4122
 21
32.691
  0
LINE
  8
0
 10
4.4122
 20
32.691
 11
4.36256
 21
32.7295
  0
LINE
  8
0
 10
4.36256
 20
32.7295
 11
4.31544
 21
32.771
  0
LINE
  8
0
 10
4.31544
 20
32.771
 11
4.27103
 21
32.8154
  0
LINE
  8
0
 10
4.27103
 20
32.8154
 11
4.22948
 21
32.8626
  0
LINE
  8
0
 10
4.22948
 20
32.8626
 11
4.19098
 21
32.9122
  0
LINE
  8
0
 10
4.19098
 20
32.9122
 11
4.15567
 21
32.9642
  0
LINE
  8
0
 10
4.15567
 20
32.9642
 11
4.12369
 21
33.0182
  0
LINE
  8
0
 10
4.12369
 20
33.0182
 11
4.09517
 21
33.0742
  0
LINE
  8
0
 10
4.09517
 20
33.0742
 11
4.07022
 21
33.1319
  0
LINE
  8
0
 10
4.07022
 20
33.1319
 11
4.04893
 21
33.191
  0
LINE
  8
0
 10
4.04893
 20
33.191
 11
4.0314
 21
33.2513
  0
LINE
  8
0
 10
4.0314
 20
33.2513
 11
4.0177
 21
33.3126
  0
LINE
  8
0
 10
4.0177
 20
33.3126
 11
4.00787
 21
33.3747
  0
LINE
  8
0
 10
4.00787
 20
33.3747
 11
4.00197
 21
33.4372
  0
LINE
  8
0
 10
4.00197
 20
33.4372
 11
4
 21
33.5
  0
LINE
  8
0
 10
4
 20
33.5
 11
4.00197
 21
33.5628
  0
LINE
  8
0
 10
4.00197
 20
33.5628
 11
4.00787
 21
33.6253
  0
LINE
  8
0
 10
4.00787
 20
33.6253
 11
4.0177
 21
33.6874
  0
LINE
  8
0
 10
4.0177
 20
33.6874
 11
4.0314
 21
33.7487
  0
LINE
  8
0
 10
4.0314
 20
33.7487
 11
4.04893
 21
33.809
  0
LINE
  8
0
 10
4.04893
 20
33.809
 11
4.07022
 21
33.8681
  0
LINE
  8
0
 10
4.07022
 20
33.8681
 11
4.09517
 21
33.9258
  0
LINE
  8
0
 10
4.09517
 20
33.9258
 11
4.12369
 21
33.9818
  0
LINE
  8
0
 10
4.12369
 20
33.9818
 11
4.15567
 21
34.0358
  0
LINE
  8
0
 10
4.15567
 20
34.0358
 11
4.19098
 21
34.0878
  0
LINE
  8
0
 10
4.19098
 20
34.0878
 11
4.22948
 21
34.1374
  0
LINE
  8
0
 10
4.22948
 20
34.1374
 11
4.27103
 21
34.1845
  0
LINE
  8
0
 10
4.27103
 20
34.1845
 11
4.31544
 21
34.229
  0
LINE
  8
0
 10
4.31544
 20
34.229
 11
4.36256
 21
34.2705
  0
LINE
  8
0
 10
4.36256
 20
34.2705
 11
4.4122
 21
34.309
  0
LINE
  8
0
 10
4.4122
 20
34.309
 11
4.46417
 21
34.3443
  0
LINE
  8
0
 10
4.46417
 20
34.3443
 11
4.51823
 21
34.3763
  0
LINE
  8
0
 10
4.51823
 20
34.3763
 11
4.57422
 21
34.4048
  0
LINE
  8
0
 10
4.57422
 20
34.4048
 11
4.63187
 21
34.4298
  0
LINE
  8
0
 10
4.63187
 20
34.4298
 11
4.69098
 21
34.451
  0
LINE
  8
0
 10
4.69098
 20
34.451
 11
4.7513
 21
34.4686
  0
LINE
  8
0
 10
4.7513
 20
34.4686
 11
4.81261
 21
34.4823
  0
LINE
  8
0
 10
4.81261
 20
34.4823
 11
4.87466
 21
34.4921
  0
LINE
  8
0
 10
4.87466
 20
34.4921
 11
4.93719
 21
34.498
  0
LINE
  8
0
 10
4.93719
 20
34.498
 11
5
 21
34.5
  0
LINE
  8
0
 10
5
 20
34.5
 11
5.06279
 21
34.498
  0
LINE
  8
0
 10
5.06279
 20
34.498
 11
5.12532
 21
34.4921
  0
LINE
  8
0
 10
5.12532
 20
34.4921
 11
5.18738
 21
34.4823
  0
LINE
  8
0
 10
5.18738
 20
34.4823
 11
5.24869
 21
34.4686
  0
LINE
  8
0
 10
5.24869
 20
34.4686
 11
5.30901
 21
34.451
  0
LINE
  8
0
 10
5.30901
 20
34.451
 11
5.36812
 21
34.4298
  0
LINE
  8
0
 10
5.36812
 20
34.4298
 11
5.42577
 21
34.4048
  0
LINE
  8
0
 10
5.42577
 20
34.4048
 11
5.48175
 21
34.3763
  0
LINE
  8
0
 10
5.48175
 20
34.3763
 11
5.53581
 21
34.3443
  0
LINE
  8
0
 10
5.53581
 20
34.3443
 11
5.58778
 21
34.309
  0
LINE
  8
0
 10
5.58778
 20
34.309
 11
5.63742
 21
34.2705
  0
LINE
  8
0
 10
5.63742
 20
34.2705
 11
5.68454
 21
34.229
  0
LINE
  8
0
 10
5.68454
 20
34.229
 11
5.72896
 21
34.1845
  0
LINE
  8
0
 10
5.72896
 20
34.1845
 11
5.77051
 21
34.1374
  0
LINE
  8
0
 10
5.77051
 20
34.1374
 11
5.80901
 21
34.0878
  0
LINE
  8
0
 10
5.80901
 20
34.0878
 11
5.84431
 21
34.0358
  0
LINE
  8
0
 10
5.84431
 20
34.0358
 11
5.8763
 21
33.9818
  0
LINE
  8
0
 10
5.8763
 20
33.9818
 11
5.90482
 21
33.9258
  0
LINE
  8
0
 10
5.90482
 20
33.9258
 11
5.92976
 21
33.8681
  0
LINE
  8
0
 10
5.92976
 20
33.8681
 11
5.95105
 21
33.809
  0
LINE
  8
0
 10
5.95105
 20
33.809
 11
5.96858
 21
33.7487
  0
LINE
  8
0
 10
5.96858
 20
33.7487
 11
5.98228
 21
33.6874
  0
LINE
  8
0
 10
5.98228
 20
33.6874
 11
5.99211
 21
33.6253
  0
LINE
  8
0
 10
5.99211
 20
33.6253
 11
5.99802
 21
33.5628
  0
LINE
  8
0
 10
5.99802
 20
33.5628
 11
6
 21
33.5
  0
LINE
  8
0
 10
6
 20
33.5
 11
5.99802
 21
33.4372
  0
LINE
  8
0
 10
5.99802
 20
33.4372
 11
5.99211
 21
33.3747
  0
LINE
  8
0
 10
5.99211
 20
33.3747
 11
5.98228
 21
33.3126
  0
LINE
  8
0
 10
5.98228
 20
33.3126
 11
5.96858
 21
33.2513
  0
LINE
  8
0
 10
5.96858
 20
33.2513
 11
5.95105
 21
33.191
  0
LINE
  8
0
 10
5.95105
 20
33.191
 11
5.92976
 21
33.1319
  0
LINE
  8
0
 10
5.92976
 20
33.1319
 11
5.90482
 21
33.0742
  0
LINE
  8
0
 10
5.90482
 20
33.0742
 11
5.8763
 21
33.0182
  0
LINE
  8
0
 10
5.8763
 20
33.0182
 11
5.84431
 21
32.9642
  0
LINE
  8
0
 10
5.84431
 20
32.9642
 11
5.80901
 21
32.9122
  0
LINE
  8
0
 10
5.80901
 20
32.9122
 11
5.77051
 21
32.8626
  0
LINE
  8
0
 10
5.77051
 20
32.8626
 11
5.72896
 21
32.8154
  0
LINE
  8
0
 10
5.72896
 20
32.8154
 11
5.68454
 21
32.771
  0
LINE
  8
0
 10
5.68454
 20
32.771
 11
5.63742
 21
32.7295
  0
LINE
  8
0
 10
5.63742
 20
32.7295
 11
5.58778
 21
32.691
  0
LINE
  8
0
 10
5.58778
 20
32.691
 11
5.53581
 21
32.6557
  0
LINE
  8
0
 10
5.53581
 20
32.6557
 11
5.48175
 21
32.6237
  0
LINE
  8
0
 10
5.48175
 20
32.6237
 11
5.42577
 21
32.5952
  0
LINE
  8
0
 10
5.42577
 20
32.5952
 11
5.36812
 21
32.5702
  0
LINE
  8
0
 10
5.36812
 20
32.5702
 11
5.30901
 21
32.5489
  0
LINE
  8
0
 10
5.30901
 20
32.5489
 11
5.24869
 21
32.5314
  0
LINE
  8
0
 10
5.24869
 20
32.5314
 11
5.18738
 21
32.5177
  0
LINE
  8
0
 10
5.18738
 20
32.5177
 11
5.12532
 21
32.5079
  0
LINE
  8
0
 10
5.12532
 20
32.5079
 11
5.06279
 21
32.502
  0
LINE
  8
0
 10
5.06279
 20
32.502
 11
5
 21
32.5
  0
LINE
  8
0
 10
5
 20
32.5
 11
4.93719
 21
32.502
  0
LINE
  8
0
 10
95
 20
19
 11
10
 21
19
  0
LINE
  8
0
 10
10
 20
19
 11
0
 21
9.5
  0
LINE
  8
0
 10
0
 20
9.5
 11
10
 21
0
  0
LINE
  8
0
 10
10
 20
0
 11
95
 21
0
  0
LINE
  8
0
 10
95
 20
0
 11
95
 21
19
  0
LINE
  8
0
 10
76.9643
 20
4.87477
 11
76.8411
 21
4.88306
  0
LINE
  8
0
 10
76.8411
 20
4.88306
 11
76.7203
 21
4.89688
  0
LINE
  8
0
 10
76.7203
 20
4.89688
 11
76.602
 21
4.91621
  0
LINE
  8
0
 10
76.602
 20
4.91621
 11
76.4861
 21
4.94109
  0
LINE
  8
0
 10
76.4861
 20
4.94109
 11
76.3728
 21
4.97148
  0
LINE
  8
0
 10
76.3728
 20
4.97148
 11
76.2618
 21
5.0074
  0
LINE
  8
0
 10
76.2618
 20
5.0074
 11
76.1534
 21
5.04884
  0
LINE
  8
0
 10
76.1534
 20
5.04884
 11
76.0474
 21
5.09583
  0
LINE
  8
0
 10
76.0474
 20
5.09583
 11
75.9438
 21
5.14833
  0
LINE
  8
0
 10
75.9438
 20
5.14833
 11
75.8428
 21
5.20636
  0
LINE
  8
0
 10
75.8428
 20
5.20636
 11
75.7441
 21
5.26991
  0
LINE
  8
0
 10
75.7441
 20
5.26991
 11
75.648
 21
5.33899
  0
LINE
  8
0
 10
75.648
 20
5.33899
 11
75.5547
 21
5.41344
  0
LINE
  8
0
 10
75.5547
 20
5.41344
 11
75.4648
 21
5.49307
  0
LINE
  8
0
 10
75.4648
 20
5.49307
 11
75.3781
 21
5.57791
  0
LINE
  8
0
 10
75.3781
 20
5.57791
 11
75.2947
 21
5.66794
  0
LINE
  8
0
 10
75.2947
 20
5.66794
 11
75.2146
 21
5.76317
  0
LINE
  8
0
 10
75.2146
 20
5.76317
 11
75.1379
 21
5.86359
  0
LINE
  8
0
 10
75.1379
 20
5.86359
 11
75.0644
 21
5.96919
  0
LINE
  8
0
 10
75.0644
 20
5.96919
 11
74.9943
 21
6.08002
  0
LINE
  8
0
 10
74.9943
 20
6.08002
 11
74.9274
 21
6.19601
  0
LINE
  8
0
 10
74.9274
 20
6.19601
 11
74.8638
 21
6.31721
  0
LINE
  8
0
 10
74.8638
 20
6.31721
 11
74.8036
 21
6.44362
  0
LINE
  8
0
 10
74.8036
 20
6.44362
 11
74.7466
 21
6.57521
  0
LINE
  8
0
 10
74.7466
 20
6.57521
 11
74.693
 21
6.71199
  0
LINE
  8
0
 10
74.693
 20
6.71199
 11
74.6431
 21
6.85333
  0
LINE
  8
0
 10
74.6431
 20
6.85333
 11
74.5973
 21
6.99826
  0
LINE
  8
0
 10
74.5973
 20
6.99826
 11
74.5554
 21
7.14679
  0
LINE
  8
0
 10
74.5554
 20
7.14679
 11
74.5175
 21
7.29892
  0
LINE
  8
0
 10
74.5175
 20
7.29892
 11
74.4836
 21
7.45465
  0
LINE
  8
0
 10
74.4836
 20
7.45465
 11
74.4537
 21
7.61398
  0
LINE
  8
0
 10
74.4537
 20
7.61398
 11
74.4278
 21
7.7769
  0
LINE
  8
0
 10
74.4278
 20
7.7769
 11
74.4058
 21
7.94342
  0
LINE
  8
0
 10
74.4058
 20
7.94342
 11
74.3879
 21
8.11354
  0
LINE
  8
0
 10
74.3879
 20
8.11354
 11
74.3739
 21
8.28726
  0
LINE
  8
0
 10
74.3739
 20
8.28726
 11
74.364
 21
8.46457
  0
LINE
  8
0
 10
74.364
 20
8.46457
 11
74.358
 21
8.64548
  0
LINE
  8
0
 10
74.358
 20
8.64548
 11
74.356
 21
8.82999
  0
LINE
  8
0
 10
74.356
 20
8.82999
 11
74.3605
 21
9.11241
  0
LINE
  8
0
 10
74.3605
 20
9.11241
 11
74.3739
 21
9.38524
  0
LINE
  8
0
 10
74.3739
 20
9.38524
 11
74.3963
 21
9.64844
  0
LINE
  8
0
 10
74.3963
 20
9.64844
 11
74.4277
 21
9.90204
  0
LINE
  8
0
 10
74.4277
 20
9.90204
 11
74.468
 21
10.146
  0
LINE
  8
0
 10
74.468
 20
10.146
 11
74.5172
 21
10.3804
  0
LINE
  8
0
 10
74.5172
 20
10.3804
 11
74.5755
 21
10.6052
  0
LINE
  8
0
 10
74.5755
 20
10.6052
 11
74.6427
 21
10.8203
  0
LINE
  8
0
 10
74.6427
 20
10.8203
 11
74.7188
 21
11.0259
  0
LINE
  8
0
 10
74.7188
 20
11.0259
 11
74.8039
 21
11.2218
  0
LINE
  8
0
 10
74.8039
 20
11.2218
 11
74.898
 21
11.4082
  0
LINE
  8
0
 10
74.898
 20
11.4082
 11
75.001
 21
11.5849
  0
LINE
  8
0
 10
75.001
 20
11.5849
 11
75.113
 21
11.752
  0
LINE
  8
0
 10
75.113
 20
11.752
 11
75.2328
 21
11.9082
  0
LINE
  8
0
 10
75.2328
 20
11.9082
 11
75.3593
 21
12.0519
  0
LINE
  8
0
 10
75.3593
 20
12.0519
 11
75.4925
 21
12.1831
  0
LINE
  8
0
 10
75.4925
 20
12.1831
 11
75.6323
 21
12.3019
  0
LINE
  8
0
 10
75.6323
 20
12.3019
 11
75.7789
 21
12.4081
  0
LINE
  8
0
 10
75.7789
 20
12.4081
 11
75.9321
 21
12.5018
  0
LINE
  8
0
 10
75.9321
 20
12.5018
 11
76.092
 21
12.583
  0
LINE
  8
0
 10
76.092
 20
12.583
 11
76.2587
 21
12.6518
  0
LINE
  8
0
 10
76.2587
 20
12.6518
 11
76.4319
 21
12.708
  0
LINE
  8
0
 10
76.4319
 20
12.708
 11
76.6119
 21
12.7518
  0
LINE
  8
0
 10
76.6119
 20
12.7518
 11
76.7986
 21
12.783
  0
LINE
  8
0
 10
76.7986
 20
12.783
 11
76.9919
 21
12.8017
  0
LINE
  8
0
 10
76.9919
 20
12.8017
 11
77.192
 21
12.808
  0
LINE
  8
0
 10
77.192
 20
12.808
 11
77.2907
 21
12.8065
  0
LINE
  8
0
 10
77.2907
 20
12.8065
 11
77.3876
 21
12.8019
  0
LINE
  8
0
 10
77.3876
 20
12.8019
 11
77.4825
 21
12.7943
  0
LINE
  8
0
 10
77.4825
 20
12.7943
 11
77.5755
 21
12.7837
  0
LINE
  8
0
 10
77.5755
 20
12.7837
 11
77.6666
 21
12.77
  0
LINE
  8
0
 10
77.6666
 20
12.77
 11
77.7558
 21
12.7533
  0
LINE
  8
0
 10
77.7558
 20
12.7533
 11
77.8432
 21
12.7335
  0
LINE
  8
0
 10
77.8432
 20
12.7335
 11
77.9286
 21
12.7107
  0
LINE
  8
0
 10
77.9286
 20
12.7107
 11
78.0121
 21
12.6848
  0
LINE
  8
0
 10
78.0121
 20
12.6848
 11
78.0936
 21
12.6559
  0
LINE
  8
0
 10
78.0936
 20
12.6559
 11
78.1733
 21
12.624
  0
LINE
  8
0
 10
78.1733
 20
12.624
 11
78.2511
 21
12.589
  0
LINE
  8
0
 10
78.2511
 20
12.589
 11
78.327
 21
12.551
  0
LINE
  8
0
 10
78.327
 20
12.551
 11
78.4016
 21
12.5094
  0
LINE
  8
0
 10
78.4016
 20
12.5094
 11
78.4751
 21
12.4636
  0
LINE
  8
0
 10
78.4751
 20
12.4636
 11
78.5476
 21
12.4136
  0
LINE
  8
0
 10
78.5476
 20
12.4136
 11
78.6191
 21
12.3595
  0
LINE
  8
0
 10
78.6191
 20
12.3595
 11
78.6895
 21
12.3012
  0
LINE
  8
0
 10
78.6895
 20
12.3012
 11
78.7589
 21
12.2388
  0
LINE
  8
0
 10
78.7589
 20
12.2388
 11
78.8273
 21
12.1722
  0
LINE
  8
0
 10
78.8273
 20
12.1722
 11
78.8947
 21
12.1014
  0
LINE
  8
0
 10
78.8947
 20
12.1014
 11
78.961
 21
12.0264
  0
LINE
  8
0
 10
78.961
 20
12.0264
 11
79.0263
 21
11.9473
  0
LINE
  8
0
 10
79.0263
 20
11.9473
 11
79.0905
 21
11.864
  0
LINE
  8
0
 10
79.0905
 20
11.864
 11
79.1538
 21
11.7766
  0
LINE
  8
0
 10
79.1538
 20
11.7766
 11
79.216
 21
11.685
  0
LINE
  8
0
 10
79.216
 20
11.685
 11
79.27
 21
11.685
  0
LINE
  8
0
 10
79.27
 20
11.685
 11
79.2336
 21
11.9638
  0
LINE
  8
0
 10
79.2336
 20
11.9638
 11
79.2033
 21
12.2425
  0
LINE
  8
0
 10
79.2033
 20
12.2425
 11
79.1791
 21
12.5213
  0
LINE
  8
0
 10
79.1791
 20
12.5213
 11
79.1609
 21
12.8001
  0
LINE
  8
0
 10
79.1609
 20
12.8001
 11
79.1488
 21
13.0788
  0
LINE
  8
0
 10
79.1488
 20
13.0788
 11
79.1427
 21
13.3576
  0
LINE
  8
0
 10
79.1427
 20
13.3576
 11
79.142
 21
15.56
  0
LINE
  8
0
 10
79.142
 20
15.56
 11
81.813
 21
15.56
  0
LINE
  8
0
 10
81.813
 20
15.56
 11
81.813
 21
5
  0
LINE
  8
0
 10
81.813
 20
5
 11
79.813
 21
5
  0
LINE
  8
0
 10
79.813
 20
5
 11
79.244
 21
5.97499
  0
LINE
  8
0
 10
79.244
 20
5.97499
 11
79.142
 21
5.97499
  0
LINE
  8
0
 10
79.142
 20
5.97499
 11
79.032
 21
5.81183
  0
LINE
  8
0
 10
79.032
 20
5.81183
 11
78.914
 21
5.66171
  0
LINE
  8
0
 10
78.914
 20
5.66171
 11
78.7881
 21
5.52466
  0
LINE
  8
0
 10
78.7881
 20
5.52466
 11
78.6542
 21
5.40065
  0
LINE
  8
0
 10
78.6542
 20
5.40065
 11
78.5123
 21
5.2897
  0
LINE
  8
0
 10
78.5123
 20
5.2897
 11
78.3624
 21
5.1918
  0
LINE
  8
0
 10
78.3624
 20
5.1918
 11
78.2046
 21
5.10695
  0
LINE
  8
0
 10
78.2046
 20
5.10695
 11
78.0387
 21
5.03516
  0
LINE
  8
0
 10
78.0387
 20
5.03516
 11
77.8649
 21
4.97644
  0
LINE
  8
0
 10
77.8649
 20
4.97644
 11
77.6832
 21
4.93074
  0
LINE
  8
0
 10
77.6832
 20
4.93074
 11
77.4934
 21
4.89812
  0
LINE
  8
0
 10
77.4934
 20
4.89812
 11
77.2957
 21
4.87854
  0
LINE
  8
0
 10
77.2957
 20
4.87854
 11
77.09
 21
4.87201
  0
LINE
  8
0
 10
77.09
 20
4.87201
 11
76.9643
 21
4.87477
  0
LINE
  8
0
 10
78.27
 20
6.96935
 11
78.3624
 21
6.97641
  0
LINE
  8
0
 10
78.3624
 20
6.97641
 11
78.4503
 21
6.98819
  0
LINE
  8
0
 10
78.4503
 20
6.98819
 11
78.5338
 21
7.00467
  0
LINE
  8
0
 10
78.5338
 20
7.00467
 11
78.6126
 21
7.02586
  0
LINE
  8
0
 10
78.6126
 20
7.02586
 11
78.687
 21
7.05177
  0
LINE
  8
0
 10
78.687
 20
7.05177
 11
78.7569
 21
7.08238
  0
LINE
  8
0
 10
78.7569
 20
7.08238
 11
78.8222
 21
7.11772
  0
LINE
  8
0
 10
78.8222
 20
7.11772
 11
78.883
 21
7.15775
  0
LINE
  8
0
 10
78.883
 20
7.15775
 11
78.9393
 21
7.2025
  0
LINE
  8
0
 10
78.9393
 20
7.2025
 11
78.991
 21
7.25195
  0
LINE
  8
0
 10
78.991
 20
7.25195
 11
79.0383
 21
7.30612
  0
LINE
  8
0
 10
79.0383
 20
7.30612
 11
79.081
 21
7.36499
  0
LINE
  8
0
 10
79.081
 20
7.36499
 11
79.1202
 21
7.42877
  0
LINE
  8
0
 10
79.1202
 20
7.42877
 11
79.1565
 21
7.49768
  0
LINE
  8
0
 10
79.1565
 20
7.49768
 11
79.1899
 21
7.57169
  0
LINE
  8
0
 10
79.1899
 20
7.57169
 11
79.2204
 21
7.65082
  0
LINE
  8
0
 10
79.2204
 20
7.65082
 11
79.2481
 21
7.73505
  0
LINE
  8
0
 10
79.2481
 20
7.73505
 11
79.2729
 21
7.8244
  0
LINE
  8
0
 10
79.2729
 20
7.8244
 11
79.2948
 21
7.91887
  0
LINE
  8
0
 10
79.2948
 20
7.91887
 11
79.3139
 21
8.01843
  0
LINE
  8
0
 10
79.3139
 20
8.01843
 11
79.3301
 21
8.12312
  0
LINE
  8
0
 10
79.3301
 20
8.12312
 11
79.3434
 21
8.23293
  0
LINE
  8
0
 10
79.3434
 20
8.23293
 11
79.3538
 21
8.34784
  0
LINE
  8
0
 10
79.3538
 20
8.34784
 11
79.3613
 21
8.46785
  0
LINE
  8
0
 10
79.3613
 20
8.46785
 11
79.366
 21
8.59299
  0
LINE
  8
0
 10
79.366
 20
8.59299
 11
79.366
 21
8.80299
  0
LINE
  8
0
 10
79.366
 20
8.80299
 11
79.3642
 21
8.95523
  0
LINE
  8
0
 10
79.3642
 20
8.95523
 11
79.359
 21
9.10056
  0
LINE
  8
0
 10
79.359
 20
9.10056
 11
79.3503
 21
9.23897
  0
LINE
  8
0
 10
79.3503
 20
9.23897
 11
79.3381
 21
9.37047
  0
LINE
  8
0
 10
79.3381
 20
9.37047
 11
79.3223
 21
9.49506
  0
LINE
  8
0
 10
79.3223
 20
9.49506
 11
79.3031
 21
9.61275
  0
LINE
  8
0
 10
79.3031
 20
9.61275
 11
79.2805
 21
9.72351
  0
LINE
  8
0
 10
79.2805
 20
9.72351
 11
79.2543
 21
9.82738
  0
LINE
  8
0
 10
79.2543
 20
9.82738
 11
79.2246
 21
9.92432
  0
LINE
  8
0
 10
79.2246
 20
9.92432
 11
79.1914
 21
10.0144
  0
LINE
  8
0
 10
79.1914
 20
10.0144
 11
79.1548
 21
10.0975
  0
LINE
  8
0
 10
79.1548
 20
10.0975
 11
79.1146
 21
10.1737
  0
LINE
  8
0
 10
79.1146
 20
10.1737
 11
79.071
 21
10.243
  0
LINE
  8
0
 10
79.071
 20
10.243
 11
79.0236
 21
10.3065
  0
LINE
  8
0
 10
79.0236
 20
10.3065
 11
78.9723
 21
10.3648
  0
LINE
  8
0
 10
78.9723
 20
10.3648
 11
78.917
 21
10.4182
  0
LINE
  8
0
 10
78.917
 20
10.4182
 11
78.8577
 21
10.4664
  0
LINE
  8
0
 10
78.8577
 20
10.4664
 11
78.7945
 21
10.5095
  0
LINE
  8
0
 10
78.7945
 20
10.5095
 11
78.7273
 21
10.5476
  0
LINE
  8
0
 10
78.7273
 20
10.5476
 11
78.6562
 21
10.5806
  0
LINE
  8
0
 10
78.6562
 20
10.5806
 11
78.5811
 21
10.6085
  0
LINE
  8
0
 10
78.5811
 20
10.6085
 11
78.502
 21
10.6314
  0
LINE
  8
0
 10
78.502
 20
10.6314
 11
78.4189
 21
10.6491
  0
LINE
  8
0
 10
78.4189
 20
10.6491
 11
78.3319
 21
10.6618
  0
LINE
  8
0
 10
78.3319
 20
10.6618
 11
78.2409
 21
10.6694
  0
LINE
  8
0
 10
78.2409
 20
10.6694
 11
78.146
 21
10.672
  0
LINE
  8
0
 10
78.146
 20
10.672
 11
78.0661
 21
10.6691
  0
LINE
  8
0
 10
78.0661
 20
10.6691
 11
77.9891
 21
10.6604
  0
LINE
  8
0
 10
77.9891
 20
10.6604
 11
77.9149
 21
10.6459
  0
LINE
  8
0
 10
77.9149
 20
10.6459
 11
77.8434
 21
10.6256
  0
LINE
  8
0
 10
77.8434
 20
10.6256
 11
77.7747
 21
10.5995
  0
LINE
  8
0
 10
77.7747
 20
10.5995
 11
77.7089
 21
10.5676
  0
LINE
  8
0
 10
77.7089
 20
10.5676
 11
77.6458
 21
10.5299
  0
LINE
  8
0
 10
77.6458
 20
10.5299
 11
77.5855
 21
10.4864
  0
LINE
  8
0
 10
77.5855
 20
10.4864
 11
77.528
 21
10.4371
  0
LINE
  8
0
 10
77.528
 20
10.4371
 11
77.4733
 21
10.382
  0
LINE
  8
0
 10
77.4733
 20
10.382
 11
77.4214
 21
10.3212
  0
LINE
  8
0
 10
77.4214
 20
10.3212
 11
77.3723
 21
10.2545
  0
LINE
  8
0
 10
77.3723
 20
10.2545
 11
77.326
 21
10.182
  0
LINE
  8
0
 10
77.326
 20
10.182
 11
77.2829
 21
10.1043
  0
LINE
  8
0
 10
77.2829
 20
10.1043
 11
77.2433
 21
10.0217
  0
LINE
  8
0
 10
77.2433
 20
10.0217
 11
77.2072
 21
9.9342
  0
LINE
  8
0
 10
77.2072
 20
9.9342
 11
77.1745
 21
9.84178
  0
LINE
  8
0
 10
77.1745
 20
9.84178
 11
77.1452
 21
9.74445
  0
LINE
  8
0
 10
77.1452
 20
9.74445
 11
77.1194
 21
9.64221
  0
LINE
  8
0
 10
77.1194
 20
9.64221
 11
77.097
 21
9.53505
  0
LINE
  8
0
 10
77.097
 20
9.53505
 11
77.078
 21
9.42299
  0
LINE
  8
0
 10
77.078
 20
9.42299
 11
77.0625
 21
9.30602
  0
LINE
  8
0
 10
77.0625
 20
9.30602
 11
77.0505
 21
9.18413
  0
LINE
  8
0
 10
77.0505
 20
9.18413
 11
77.0419
 21
9.05733
  0
LINE
  8
0
 10
77.0419
 20
9.05733
 11
77.0367
 21
8.92561
  0
LINE
  8
0
 10
77.0367
 20
8.92561
 11
77.035
 21
8.78899
  0
LINE
  8
0
 10
77.035
 20
8.78899
 11
77.0367
 21
8.65443
  0
LINE
  8
0
 10
77.0367
 20
8.65443
 11
77.042
 21
8.5249
  0
LINE
  8
0
 10
77.042
 20
8.5249
 11
77.0507
 21
8.40039
  0
LINE
  8
0
 10
77.0507
 20
8.40039
 11
77.0629
 21
8.28091
  0
LINE
  8
0
 10
77.0629
 20
8.28091
 11
77.0786
 21
8.16647
  0
LINE
  8
0
 10
77.0786
 20
8.16647
 11
77.0978
 21
8.05707
  0
LINE
  8
0
 10
77.0978
 20
8.05707
 11
77.1205
 21
7.95268
  0
LINE
  8
0
 10
77.1205
 20
7.95268
 11
77.1467
 21
7.85332
  0
LINE
  8
0
 10
77.1467
 20
7.85332
 11
77.1764
 21
7.759
  0
LINE
  8
0
 10
77.1764
 20
7.759
 11
77.2095
 21
7.66971
  0
LINE
  8
0
 10
77.2095
 20
7.66971
 11
77.2462
 21
7.58543
  0
LINE
  8
0
 10
77.2462
 20
7.58543
 11
77.2863
 21
7.5062
  0
LINE
  8
0
 10
77.2863
 20
7.5062
 11
77.33
 21
7.43199
  0
LINE
  8
0
 10
77.33
 20
7.43199
 11
77.3769
 21
7.3632
  0
LINE
  8
0
 10
77.3769
 20
7.3632
 11
77.4267
 21
7.29993
  0
LINE
  8
0
 10
77.4267
 20
7.29993
 11
77.4796
 21
7.24214
  0
LINE
  8
0
 10
77.4796
 20
7.24214
 11
77.5355
 21
7.18987
  0
LINE
  8
0
 10
77.5355
 20
7.18987
 11
77.5943
 21
7.14308
  0
LINE
  8
0
 10
77.5943
 20
7.14308
 11
77.6562
 21
7.10182
  0
LINE
  8
0
 10
77.6562
 20
7.10182
 11
77.721
 21
7.06604
  0
LINE
  8
0
 10
77.721
 20
7.06604
 11
77.7889
 21
7.03578
  0
LINE
  8
0
 10
77.7889
 20
7.03578
 11
77.8597
 21
7.01102
  0
LINE
  8
0
 10
77.8597
 20
7.01102
 11
77.9335
 21
6.99176
  0
LINE
  8
0
 10
77.9335
 20
6.99176
 11
78.0104
 21
6.978
  0
LINE
  8
0
 10
78.0104
 20
6.978
 11
78.0902
 21
6.96974
  0
LINE
  8
0
 10
78.0902
 20
6.96974
 11
78.173
 21
6.967
  0
LINE
  8
0
 10
78.173
 20
6.967
 11
78.27
 21
6.96935
  0
LINE
  8
0
 10
40.9612
 20
4.87256
 11
40.8335
 21
4.87691
  0
LINE
  8
0
 10
40.8335
 20
4.87691
 11
40.7103
 21
4.88562
  0
LINE
  8
0
 10
40.7103
 20
4.88562
 11
40.5916
 21
4.89868
  0
LINE
  8
0
 10
40.5916
 20
4.89868
 11
40.4774
 21
4.91611
  0
LINE
  8
0
 10
40.4774
 20
4.91611
 11
40.3679
 21
4.93788
  0
LINE
  8
0
 10
40.3679
 20
4.93788
 11
40.2628
 21
4.964
  0
LINE
  8
0
 10
40.2628
 20
4.964
 11
40.1618
 21
4.99368
  0
LINE
  8
0
 10
40.1618
 20
4.99368
 11
40.0641
 21
5.02672
  0
LINE
  8
0
 10
40.0641
 20
5.02672
 11
39.9698
 21
5.06311
  0
LINE
  8
0
 10
39.9698
 20
5.06311
 11
39.879
 21
5.10287
  0
LINE
  8
0
 10
39.879
 20
5.10287
 11
39.7916
 21
5.14601
  0
LINE
  8
0
 10
39.7916
 20
5.14601
 11
39.7076
 21
5.19249
  0
LINE
  8
0
 10
39.7076
 20
5.19249
 11
39.626
 21
5.24319
  0
LINE
  8
0
 10
39.626
 20
5.24319
 11
39.5413
 21
5.30331
  0
LINE
  8
0
 10
39.5413
 20
5.30331
 11
39.4526
 21
5.3737
  0
LINE
  8
0
 10
39.4526
 20
5.3737
 11
39.3597
 21
5.45438
  0
LINE
  8
0
 10
39.3597
 20
5.45438
 11
39.2628
 21
5.5453
  0
LINE
  8
0
 10
39.2628
 20
5.5453
 11
39.1619
 21
5.64651
  0
LINE
  8
0
 10
39.1619
 20
5.64651
 11
39.0568
 21
5.758
  0
LINE
  8
0
 10
39.0568
 20
5.758
 11
38.8938
 21
5.758
  0
LINE
  8
0
 10
38.8938
 20
5.758
 11
38.4738
 21
5
  0
LINE
  8
0
 10
38.4738
 20
5
 11
36.4048
 21
5
  0
LINE
  8
0
 10
36.4048
 20
5
 11
36.4048
 21
15.56
  0
LINE
  8
0
 10
36.4048
 20
15.56
 11
39.0568
 21
15.56
  0
LINE
  8
0
 10
39.0568
 20
15.56
 11
39.0568
 21
13.163
  0
LINE
  8
0
 10
39.0568
 20
13.163
 11
39.0546
 21
13.0163
  0
LINE
  8
0
 10
39.0546
 20
13.0163
 11
39.0428
 21
12.7413
  0
LINE
  8
0
 10
39.0428
 20
12.7413
 11
39.0113
 21
12.2718
  0
LINE
  8
0
 10
39.0113
 20
12.2718
 11
38.9618
 21
11.685
  0
LINE
  8
0
 10
38.9618
 20
11.685
 11
39.0568
 21
11.685
  0
LINE
  8
0
 10
39.0568
 20
11.685
 11
39.1172
 21
11.7746
  0
LINE
  8
0
 10
39.1172
 20
11.7746
 11
39.179
 21
11.8602
  0
LINE
  8
0
 10
39.179
 20
11.8602
 11
39.2423
 21
11.942
  0
LINE
  8
0
 10
39.2423
 20
11.942
 11
39.307
 21
12.0198
  0
LINE
  8
0
 10
39.307
 20
12.0198
 11
39.373
 21
12.0937
  0
LINE
  8
0
 10
39.373
 20
12.0937
 11
39.4405
 21
12.1637
  0
LINE
  8
0
 10
39.4405
 20
12.1637
 11
39.5095
 21
12.2298
  0
LINE
  8
0
 10
39.5095
 20
12.2298
 11
39.5798
 21
12.2919
  0
LINE
  8
0
 10
39.5798
 20
12.2919
 11
39.6516
 21
12.3502
  0
LINE
  8
0
 10
39.6516
 20
12.3502
 11
39.7247
 21
12.4045
  0
LINE
  8
0
 10
39.7247
 20
12.4045
 11
39.7994
 21
12.4549
  0
LINE
  8
0
 10
39.7994
 20
12.4549
 11
39.8754
 21
12.5014
  0
LINE
  8
0
 10
39.8754
 20
12.5014
 11
39.9528
 21
12.544
  0
LINE
  8
0
 10
39.9528
 20
12.544
 11
40.0318
 21
12.583
  0
LINE
  8
0
 10
40.0318
 20
12.583
 11
40.1124
 21
12.619
  0
LINE
  8
0
 10
40.1124
 20
12.619
 11
40.1947
 21
12.6518
  0
LINE
  8
0
 10
40.1947
 20
12.6518
 11
40.2786
 21
12.6815
  0
LINE
  8
0
 10
40.2786
 20
12.6815
 11
40.3642
 21
12.708
  0
LINE
  8
0
 10
40.3642
 20
12.708
 11
40.4514
 21
12.7314
  0
LINE
  8
0
 10
40.4514
 20
12.7314
 11
40.5402
 21
12.7518
  0
LINE
  8
0
 10
40.5402
 20
12.7518
 11
40.6307
 21
12.7689
  0
LINE
  8
0
 10
40.6307
 20
12.7689
 11
40.7228
 21
12.783
  0
LINE
  8
0
 10
40.7228
 20
12.783
 11
40.8166
 21
12.7939
  0
LINE
  8
0
 10
40.8166
 20
12.7939
 11
40.912
 21
12.8017
  0
LINE
  8
0
 10
40.912
 20
12.8017
 11
41.0091
 21
12.8064
  0
LINE
  8
0
 10
41.0091
 20
12.8064
 11
41.1078
 21
12.808
  0
LINE
  8
0
 10
41.1078
 20
12.808
 11
41.2987
 21
12.8018
  0
LINE
  8
0
 10
41.2987
 20
12.8018
 11
41.4835
 21
12.7832
  0
LINE
  8
0
 10
41.4835
 20
12.7832
 11
41.662
 21
12.7521
  0
LINE
  8
0
 10
41.662
 20
12.7521
 11
41.8344
 21
12.7087
  0
LINE
  8
0
 10
41.8344
 20
12.7087
 11
42.0006
 21
12.6528
  0
LINE
  8
0
 10
42.0006
 20
12.6528
 11
42.1606
 21
12.5845
  0
LINE
  8
0
 10
42.1606
 20
12.5845
 11
42.3145
 21
12.5038
  0
LINE
  8
0
 10
42.3145
 20
12.5038
 11
42.4621
 21
12.4107
  0
LINE
  8
0
 10
42.4621
 20
12.4107
 11
42.6036
 21
12.3052
  0
LINE
  8
0
 10
42.6036
 20
12.3052
 11
42.739
 21
12.1873
  0
LINE
  8
0
 10
42.739
 20
12.1873
 11
42.8681
 21
12.0569
  0
LINE
  8
0
 10
42.8681
 20
12.0569
 11
42.991
 21
11.9142
  0
LINE
  8
0
 10
42.991
 20
11.9142
 11
43.1078
 21
11.759
  0
LINE
  8
0
 10
43.1078
 20
11.759
 11
43.2173
 21
11.593
  0
LINE
  8
0
 10
43.2173
 20
11.593
 11
43.318
 21
11.4174
  0
LINE
  8
0
 10
43.318
 20
11.4174
 11
43.41
 21
11.2324
  0
LINE
  8
0
 10
43.41
 20
11.2324
 11
43.4931
 21
11.0378
  0
LINE
  8
0
 10
43.4931
 20
11.0378
 11
43.5676
 21
10.8336
  0
LINE
  8
0
 10
43.5676
 20
10.8336
 11
43.6333
 21
10.6199
  0
LINE
  8
0
 10
43.6333
 20
10.6199
 11
43.6902
 21
10.3967
  0
LINE
  8
0
 10
43.6902
 20
10.3967
 11
43.7384
 21
10.1639
  0
LINE
  8
0
 10
43.7384
 20
10.1639
 11
43.7778
 21
9.9216
  0
LINE
  8
0
 10
43.7778
 20
9.9216
 11
43.8084
 21
9.66975
  0
LINE
  8
0
 10
43.8084
 20
9.66975
 11
43.8303
 21
9.40837
  0
LINE
  8
0
 10
43.8303
 20
9.40837
 11
43.8434
 21
9.13745
  0
LINE
  8
0
 10
43.8434
 20
9.13745
 11
43.8478
 21
8.85699
  0
LINE
  8
0
 10
43.8478
 20
8.85699
 11
43.8434
 21
8.57454
  0
LINE
  8
0
 10
43.8434
 20
8.57454
 11
43.8301
 21
8.30165
  0
LINE
  8
0
 10
43.8301
 20
8.30165
 11
43.808
 21
8.03833
  0
LINE
  8
0
 10
43.808
 20
8.03833
 11
43.7771
 21
7.78456
  0
LINE
  8
0
 10
43.7771
 20
7.78456
 11
43.7373
 21
7.54036
  0
LINE
  8
0
 10
43.7373
 20
7.54036
 11
43.6887
 21
7.30573
  0
LINE
  8
0
 10
43.6887
 20
7.30573
 11
43.6312
 21
7.08064
  0
LINE
  8
0
 10
43.6312
 20
7.08064
 11
43.5649
 21
6.86513
  0
LINE
  8
0
 10
43.5649
 20
6.86513
 11
43.4898
 21
6.65918
  0
LINE
  8
0
 10
43.4898
 20
6.65918
 11
43.4058
 21
6.46278
  0
LINE
  8
0
 10
43.4058
 20
6.46278
 11
43.313
 21
6.27596
  0
LINE
  8
0
 10
43.313
 20
6.27596
 11
43.2113
 21
6.09869
  0
LINE
  8
0
 10
43.2113
 20
6.09869
 11
43.1008
 21
5.931
  0
LINE
  8
0
 10
43.1008
 20
5.931
 11
42.9826
 21
5.77434
  0
LINE
  8
0
 10
42.9826
 20
5.77434
 11
42.8575
 21
5.63022
  0
LINE
  8
0
 10
42.8575
 20
5.63022
 11
42.7255
 21
5.49863
  0
LINE
  8
0
 10
42.7255
 20
5.49863
 11
42.5866
 21
5.37956
  0
LINE
  8
0
 10
42.5866
 20
5.37956
 11
42.4409
 21
5.27304
  0
LINE
  8
0
 10
42.4409
 20
5.27304
 11
42.2882
 21
5.17905
  0
LINE
  8
0
 10
42.2882
 20
5.17905
 11
42.1287
 21
5.09758
  0
LINE
  8
0
 10
42.1287
 20
5.09758
 11
41.9623
 21
5.02866
  0
LINE
  8
0
 10
41.9623
 20
5.02866
 11
41.789
 21
4.97227
  0
LINE
  8
0
 10
41.789
 20
4.97227
 11
41.6087
 21
4.92841
  0
LINE
  8
0
 10
41.6087
 20
4.92841
 11
41.4217
 21
4.89708
  0
LINE
  8
0
 10
41.4217
 20
4.89708
 11
41.2277
 21
4.87828
  0
LINE
  8
0
 10
41.2277
 20
4.87828
 11
41.0268
 21
4.87201
  0
LINE
  8
0
 10
41.0268
 20
4.87201
 11
40.9612
 21
4.87256
  0
LINE
  8
0
 10
40.2393
 20
7.0108
 11
40.3082
 21
7.01924
  0
LINE
  8
0
 10
40.3082
 20
7.01924
 11
40.3745
 21
7.03329
  0
LINE
  8
0
 10
40.3745
 20
7.03329
 11
40.4382
 21
7.05296
  0
LINE
  8
0
 10
40.4382
 20
7.05296
 11
40.4993
 21
7.07826
  0
LINE
  8
0
 10
40.4993
 20
7.07826
 11
40.5578
 21
7.10918
  0
LINE
  8
0
 10
40.5578
 20
7.10918
 11
40.6137
 21
7.14572
  0
LINE
  8
0
 10
40.6137
 20
7.14572
 11
40.667
 21
7.18788
  0
LINE
  8
0
 10
40.667
 20
7.18788
 11
40.7178
 21
7.23566
  0
LINE
  8
0
 10
40.7178
 20
7.23566
 11
40.7659
 21
7.28906
  0
LINE
  8
0
 10
40.7659
 20
7.28906
 11
40.8115
 21
7.34808
  0
LINE
  8
0
 10
40.8115
 20
7.34808
 11
40.8544
 21
7.41272
  0
LINE
  8
0
 10
40.8544
 20
7.41272
 11
40.8948
 21
7.48299
  0
LINE
  8
0
 10
40.8948
 20
7.48299
 11
40.9324
 21
7.55888
  0
LINE
  8
0
 10
40.9324
 20
7.55888
 11
40.967
 21
7.64008
  0
LINE
  8
0
 10
40.967
 20
7.64008
 11
40.9985
 21
7.72659
  0
LINE
  8
0
 10
40.9985
 20
7.72659
 11
41.0271
 21
7.81842
  0
LINE
  8
0
 10
41.0271
 20
7.81842
 11
41.0526
 21
7.91557
  0
LINE
  8
0
 10
41.0526
 20
7.91557
 11
41.0752
 21
8.01802
  0
LINE
  8
0
 10
41.0752
 20
8.01802
 11
41.0947
 21
8.12579
  0
LINE
  8
0
 10
41.0947
 20
8.12579
 11
41.1113
 21
8.23888
  0
LINE
  8
0
 10
41.1113
 20
8.23888
 11
41.1248
 21
8.35727
  0
LINE
  8
0
 10
41.1248
 20
8.35727
 11
41.1353
 21
8.48099
  0
LINE
  8
0
 10
41.1353
 20
8.48099
 11
41.1428
 21
8.61
  0
LINE
  8
0
 10
41.1428
 20
8.61
 11
41.1473
 21
8.74434
  0
LINE
  8
0
 10
41.1473
 20
8.74434
 11
41.1488
 21
8.88399
  0
LINE
  8
0
 10
41.1488
 20
8.88399
 11
41.1429
 21
9.15648
  0
LINE
  8
0
 10
41.1429
 20
9.15648
 11
41.125
 21
9.40717
  0
LINE
  8
0
 10
41.125
 20
9.40717
 11
41.0951
 21
9.63605
  0
LINE
  8
0
 10
41.0951
 20
9.63605
 11
41.0534
 21
9.84314
  0
LINE
  8
0
 10
41.0534
 20
9.84314
 11
40.9997
 21
10.0284
  0
LINE
  8
0
 10
40.9997
 20
10.0284
 11
40.9341
 21
10.1919
  0
LINE
  8
0
 10
40.9341
 20
10.1919
 11
40.8566
 21
10.3336
  0
LINE
  8
0
 10
40.8566
 20
10.3336
 11
40.7671
 21
10.4535
  0
LINE
  8
0
 10
40.7671
 20
10.4535
 11
40.6657
 21
10.5516
  0
LINE
  8
0
 10
40.6657
 20
10.5516
 11
40.5524
 21
10.6279
  0
LINE
  8
0
 10
40.5524
 20
10.6279
 11
40.4271
 21
10.6824
  0
LINE
  8
0
 10
40.4271
 20
10.6824
 11
40.2899
 21
10.7151
  0
LINE
  8
0
 10
40.2899
 20
10.7151
 11
40.1408
 21
10.726
  0
LINE
  8
0
 10
40.1408
 20
10.726
 11
40.056
 21
10.7237
  0
LINE
  8
0
 10
40.056
 20
10.7237
 11
39.9747
 21
10.7169
  0
LINE
  8
0
 10
39.9747
 20
10.7169
 11
39.8971
 21
10.7055
  0
LINE
  8
0
 10
39.8971
 20
10.7055
 11
39.823
 21
10.6895
  0
LINE
  8
0
 10
39.823
 20
10.6895
 11
39.7524
 21
10.669
  0
LINE
  8
0
 10
39.7524
 20
10.669
 11
39.6855
 21
10.644
  0
LINE
  8
0
 10
39.6855
 20
10.644
 11
39.6221
 21
10.6144
  0
LINE
  8
0
 10
39.6221
 20
10.6144
 11
39.5623
 21
10.5802
  0
LINE
  8
0
 10
39.5623
 20
10.5802
 11
39.506
 21
10.5415
  0
LINE
  8
0
 10
39.506
 20
10.5415
 11
39.4534
 21
10.4982
  0
LINE
  8
0
 10
39.4534
 20
10.4982
 11
39.4043
 21
10.4503
  0
LINE
  8
0
 10
39.4043
 20
10.4503
 11
39.3588
 21
10.3979
  0
LINE
  8
0
 10
39.3588
 20
10.3979
 11
39.3168
 21
10.341
  0
LINE
  8
0
 10
39.3168
 20
10.341
 11
39.2784
 21
10.2793
  0
LINE
  8
0
 10
39.2784
 20
10.2793
 11
39.243
 21
10.2124
  0
LINE
  8
0
 10
39.243
 20
10.2124
 11
39.2107
 21
10.1404
  0
LINE
  8
0
 10
39.2107
 20
10.1404
 11
39.1814
 21
10.0631
  0
LINE
  8
0
 10
39.1814
 20
10.0631
 11
39.1553
 21
9.98067
  0
LINE
  8
0
 10
39.1553
 20
9.98067
 11
39.1322
 21
9.89302
  0
LINE
  8
0
 10
39.1322
 20
9.89302
 11
39.1122
 21
9.80017
  0
LINE
  8
0
 10
39.1122
 20
9.80017
 11
39.0953
 21
9.70213
  0
LINE
  8
0
 10
39.0953
 20
9.70213
 11
39.0814
 21
9.59889
  0
LINE
  8
0
 10
39.0814
 20
9.59889
 11
39.0707
 21
9.49046
  0
LINE
  8
0
 10
39.0707
 20
9.49046
 11
39.063
 21
9.37683
  0
LINE
  8
0
 10
39.063
 20
9.37683
 11
39.0584
 21
9.25801
  0
LINE
  8
0
 10
39.0584
 20
9.25801
 11
39.0568
 21
9.13399
  0
LINE
  8
0
 10
39.0568
 20
9.13399
 11
39.0568
 21
8.76199
  0
LINE
  8
0
 10
39.0568
 20
8.76199
 11
39.0584
 21
8.62082
  0
LINE
  8
0
 10
39.0584
 20
8.62082
 11
39.063
 21
8.48592
  0
LINE
  8
0
 10
39.063
 20
8.48592
 11
39.0707
 21
8.3573
  0
LINE
  8
0
 10
39.0707
 20
8.3573
 11
39.0814
 21
8.23494
  0
LINE
  8
0
 10
39.0814
 20
8.23494
 11
39.0953
 21
8.11885
  0
LINE
  8
0
 10
39.0953
 20
8.11885
 11
39.1122
 21
8.00905
  0
LINE
  8
0
 10
39.1122
 20
8.00905
 11
39.1322
 21
7.9055
  0
LINE
  8
0
 10
39.1322
 20
7.9055
 11
39.1553
 21
7.80824
  0
LINE
  8
0
 10
39.1553
 20
7.80824
 11
39.1814
 21
7.71724
  0
LINE
  8
0
 10
39.1814
 20
7.71724
 11
39.2107
 21
7.63252
  0
LINE
  8
0
 10
39.2107
 20
7.63252
 11
39.243
 21
7.55408
  0
LINE
  8
0
 10
39.243
 20
7.55408
 11
39.2784
 21
7.4819
  0
LINE
  8
0
 10
39.2784
 20
7.4819
 11
39.3168
 21
7.41599
  0
LINE
  8
0
 10
39.3168
 20
7.41599
 11
39.3589
 21
7.35564
  0
LINE
  8
0
 10
39.3589
 20
7.35564
 11
39.4049
 21
7.30011
  0
LINE
  8
0
 10
39.4049
 20
7.30011
 11
39.4548
 21
7.2494
  0
LINE
  8
0
 10
39.4548
 20
7.2494
 11
39.5086
 21
7.20354
  0
LINE
  8
0
 10
39.5086
 20
7.20354
 11
39.5663
 21
7.16251
  0
LINE
  8
0
 10
39.5663
 20
7.16251
 11
39.6278
 21
7.12628
  0
LINE
  8
0
 10
39.6278
 20
7.12628
 11
39.6933
 21
7.09491
  0
LINE
  8
0
 10
39.6933
 20
7.09491
 11
39.7626
 21
7.06834
  0
LINE
  8
0
 10
39.7626
 20
7.06834
 11
39.8359
 21
7.04662
  0
LINE
  8
0
 10
39.8359
 20
7.04662
 11
39.913
 21
7.02972
  0
LINE
  8
0
 10
39.913
 20
7.02972
 11
39.9941
 21
7.01765
  0
LINE
  8
0
 10
39.9941
 20
7.01765
 11
40.079
 21
7.01041
  0
LINE
  8
0
 10
40.079
 20
7.01041
 11
40.1678
 21
7.008
  0
LINE
  8
0
 10
40.1678
 20
7.008
 11
40.2393
 21
7.0108
  0
LINE
  8
0
 10
20.0419
 20
3.98412
 11
19.6562
 21
4.00845
  0
LINE
  8
0
 10
19.6562
 20
4.00845
 11
19.284
 21
4.04903
  0
LINE
  8
0
 10
19.284
 20
4.04903
 11
18.9252
 21
4.1058
  0
LINE
  8
0
 10
18.9252
 20
4.1058
 11
18.5797
 21
4.17882
  0
LINE
  8
0
 10
18.5797
 20
4.17882
 11
18.2476
 21
4.26805
  0
LINE
  8
0
 10
18.2476
 20
4.26805
 11
17.9289
 21
4.37352
  0
LINE
  8
0
 10
17.9289
 20
4.37352
 11
17.6236
 21
4.49521
  0
LINE
  8
0
 10
17.6236
 20
4.49521
 11
17.3317
 21
4.63312
  0
LINE
  8
0
 10
17.3317
 20
4.63312
 11
17.0532
 21
4.78725
  0
LINE
  8
0
 10
17.0532
 20
4.78725
 11
16.788
 21
4.95761
  0
LINE
  8
0
 10
16.788
 20
4.95761
 11
16.5362
 21
5.14418
  0
LINE
  8
0
 10
16.5362
 20
5.14418
 11
16.2979
 21
5.34698
  0
LINE
  8
0
 10
16.2979
 20
5.34698
 11
16.0752
 21
5.56433
  0
LINE
  8
0
 10
16.0752
 20
5.56433
 11
15.8704
 21
5.7942
  0
LINE
  8
0
 10
15.8704
 20
5.7942
 11
15.6834
 21
6.03662
  0
LINE
  8
0
 10
15.6834
 20
6.03662
 11
15.5142
 21
6.29156
  0
LINE
  8
0
 10
15.5142
 20
6.29156
 11
15.3628
 21
6.55904
  0
LINE
  8
0
 10
15.3628
 20
6.55904
 11
15.2292
 21
6.83904
  0
LINE
  8
0
 10
15.2292
 20
6.83904
 11
15.1134
 21
7.13158
  0
LINE
  8
0
 10
15.1134
 20
7.13158
 11
15.0155
 21
7.43665
  0
LINE
  8
0
 10
15.0155
 20
7.43665
 11
14.9353
 21
7.75426
  0
LINE
  8
0
 10
14.9353
 20
7.75426
 11
14.873
 21
8.0844
  0
LINE
  8
0
 10
14.873
 20
8.0844
 11
14.8285
 21
8.42706
  0
LINE
  8
0
 10
14.8285
 20
8.42706
 11
14.8018
 21
8.78226
  0
LINE
  8
0
 10
14.8018
 20
8.78226
 11
14.7928
 21
9.14999
  0
LINE
  8
0
 10
14.7928
 20
9.14999
 11
14.7975
 21
9.41142
  0
LINE
  8
0
 10
14.7975
 20
9.41142
 11
14.8113
 21
9.66867
  0
LINE
  8
0
 10
14.8113
 20
9.66867
 11
14.8343
 21
9.92171
  0
LINE
  8
0
 10
14.8343
 20
9.92171
 11
14.8665
 21
10.1705
  0
LINE
  8
0
 10
14.8665
 20
10.1705
 11
14.9079
 21
10.4152
  0
LINE
  8
0
 10
14.9079
 20
10.4152
 11
14.9586
 21
10.6556
  0
LINE
  8
0
 10
14.9586
 20
10.6556
 11
15.0184
 21
10.8918
  0
LINE
  8
0
 10
15.0184
 20
10.8918
 11
15.0875
 21
11.1239
  0
LINE
  8
0
 10
15.0875
 20
11.1239
 11
15.1657
 21
11.3517
  0
LINE
  8
0
 10
15.1657
 20
11.3517
 11
15.2532
 21
11.5753
  0
LINE
  8
0
 10
15.2532
 20
11.5753
 11
15.3499
 21
11.7947
  0
LINE
  8
0
 10
15.3499
 20
11.7947
 11
15.4558
 21
12.01
  0
LINE
  8
0
 10
15.4558
 20
12.01
 11
15.5708
 21
12.221
  0
LINE
  8
0
 10
15.5708
 20
12.221
 11
15.694
 21
12.4262
  0
LINE
  8
0
 10
15.694
 20
12.4262
 11
15.8242
 21
12.6241
  0
LINE
  8
0
 10
15.8242
 20
12.6241
 11
15.9614
 21
12.8145
  0
LINE
  8
0
 10
15.9614
 20
12.8145
 11
16.1056
 21
12.9976
  0
LINE
  8
0
 10
16.1056
 20
12.9976
 11
16.2567
 21
13.1733
  0
LINE
  8
0
 10
16.2567
 20
13.1733
 11
16.4149
 21
13.3416
  0
LINE
  8
0
 10
16.4149
 20
13.3416
 11
16.58
 21
13.5025
  0
LINE
  8
0
 10
16.58
 20
13.5025
 11
16.7522
 21
13.6561
  0
LINE
  8
0
 10
16.7522
 20
13.6561
 11
16.9313
 21
13.8022
  0
LINE
  8
0
 10
16.9313
 20
13.8022
 11
17.1175
 21
13.941
  0
LINE
  8
0
 10
17.1175
 20
13.941
 11
17.3106
 21
14.0724
  0
LINE
  8
0
 10
17.3106
 20
14.0724
 11
17.5107
 21
14.1964
  0
LINE
  8
0
 10
17.5107
 20
14.1964
 11
17.7178
 21
14.313
  0
LINE
  8
0
 10
17.7178
 20
14.313
 11
17.9306
 21
14.4217
  0
LINE
  8
0
 10
17.9306
 20
14.4217
 11
18.1477
 21
14.5217
  0
LINE
  8
0
 10
18.1477
 20
14.5217
 11
18.369
 21
14.6131
  0
LINE
  8
0
 10
18.369
 20
14.6131
 11
18.5947
 21
14.6957
  0
LINE
  8
0
 10
18.5947
 20
14.6957
 11
18.8246
 21
14.7697
  0
LINE
  8
0
 10
18.8246
 20
14.7697
 11
19.0589
 21
14.8349
  0
LINE
  8
0
 10
19.0589
 20
14.8349
 11
19.2974
 21
14.8914
  0
LINE
  8
0
 10
19.2974
 20
14.8914
 11
19.5402
 21
14.9393
  0
LINE
  8
0
 10
19.5402
 20
14.9393
 11
19.7874
 21
14.9784
  0
LINE
  8
0
 10
19.7874
 20
14.9784
 11
20.0388
 21
15.0089
  0
LINE
  8
0
 10
20.0388
 20
15.0089
 11
20.2945
 21
15.0306
  0
LINE
  8
0
 10
20.2945
 20
15.0306
 11
20.5545
 21
15.0436
  0
LINE
  8
0
 10
20.5545
 20
15.0436
 11
20.8188
 21
15.048
  0
LINE
  8
0
 10
20.8188
 20
15.048
 11
21.0613
 21
15.0444
  0
LINE
  8
0
 10
21.0613
 20
15.0444
 11
21.2993
 21
15.0337
  0
LINE
  8
0
 10
21.2993
 20
15.0337
 11
21.5329
 21
15.0159
  0
LINE
  8
0
 10
21.5329
 20
15.0159
 11
21.7622
 21
14.9909
  0
LINE
  8
0
 10
21.7622
 20
14.9909
 11
21.987
 21
14.9588
  0
LINE
  8
0
 10
21.987
 20
14.9588
 11
22.2075
 21
14.9195
  0
LINE
  8
0
 10
22.2075
 20
14.9195
 11
22.4236
 21
14.8732
  0
LINE
  8
0
 10
22.4236
 20
14.8732
 11
22.6353
 21
14.8196
  0
LINE
  8
0
 10
22.6353
 20
14.8196
 11
22.8426
 21
14.759
  0
LINE
  8
0
 10
22.8426
 20
14.759
 11
23.0455
 21
14.6912
  0
LINE
  8
0
 10
23.0455
 20
14.6912
 11
23.244
 21
14.6163
  0
LINE
  8
0
 10
23.244
 20
14.6163
 11
23.4381
 21
14.5342
  0
LINE
  8
0
 10
23.4381
 20
14.5342
 11
23.6279
 21
14.445
  0
LINE
  8
0
 10
23.6279
 20
14.445
 11
23.8122
 21
14.3493
  0
LINE
  8
0
 10
23.8122
 20
14.3493
 11
23.9899
 21
14.2477
  0
LINE
  8
0
 10
23.9899
 20
14.2477
 11
24.1608
 21
14.1399
  0
LINE
  8
0
 10
24.1608
 20
14.1399
 11
24.3251
 21
14.0261
  0
LINE
  8
0
 10
24.3251
 20
14.0261
 11
24.4827
 21
13.9062
  0
LINE
  8
0
 10
24.4827
 20
13.9062
 11
24.6337
 21
13.7802
  0
LINE
  8
0
 10
24.6337
 20
13.7802
 11
24.7779
 21
13.6482
  0
LINE
  8
0
 10
24.7779
 20
13.6482
 11
24.9154
 21
13.5102
  0
LINE
  8
0
 10
24.9154
 20
13.5102
 11
25.0463
 21
13.3661
  0
LINE
  8
0
 10
25.0463
 20
13.3661
 11
25.1705
 21
13.2159
  0
LINE
  8
0
 10
25.1705
 20
13.2159
 11
25.2879
 21
13.0596
  0
LINE
  8
0
 10
25.2879
 20
13.0596
 11
25.3987
 21
12.8974
  0
LINE
  8
0
 10
25.3987
 20
12.8974
 11
25.5029
 21
12.729
  0
LINE
  8
0
 10
25.5029
 20
12.729
 11
25.5999
 21
12.5556
  0
LINE
  8
0
 10
25.5999
 20
12.5556
 11
25.6892
 21
12.3779
  0
LINE
  8
0
 10
25.6892
 20
12.3779
 11
25.7707
 21
12.196
  0
LINE
  8
0
 10
25.7707
 20
12.196
 11
25.8444
 21
12.0097
  0
LINE
  8
0
 10
25.8444
 20
12.0097
 11
25.9104
 21
11.8191
  0
LINE
  8
0
 10
25.9104
 20
11.8191
 11
25.9686
 21
11.6243
  0
LINE
  8
0
 10
25.9686
 20
11.6243
 11
26.0191
 21
11.4251
  0
LINE
  8
0
 10
26.0191
 20
11.4251
 11
26.0618
 21
11.2217
  0
LINE
  8
0
 10
26.0618
 20
11.2217
 11
26.0967
 21
11.0139
  0
LINE
  8
0
 10
26.0967
 20
11.0139
 11
26.1239
 21
10.8019
  0
LINE
  8
0
 10
26.1239
 20
10.8019
 11
26.1433
 21
10.5856
  0
LINE
  8
0
 10
26.1433
 20
10.5856
 11
26.155
 21
10.3649
  0
LINE
  8
0
 10
26.155
 20
10.3649
 11
26.1588
 21
10.14
  0
LINE
  8
0
 10
26.1588
 20
10.14
 11
26.1569
 21
9.99399
  0
LINE
  8
0
 10
26.1569
 20
9.99399
 11
26.1511
 21
9.84949
  0
LINE
  8
0
 10
26.1511
 20
9.84949
 11
26.1413
 21
9.7065
  0
LINE
  8
0
 10
26.1413
 20
9.7065
 11
26.1277
 21
9.56503
  0
LINE
  8
0
 10
26.1277
 20
9.56503
 11
26.1102
 21
9.42508
  0
LINE
  8
0
 10
26.1102
 20
9.42508
 11
26.0888
 21
9.28664
  0
LINE
  8
0
 10
26.0888
 20
9.28664
 11
26.0635
 21
9.14972
  0
LINE
  8
0
 10
26.0635
 20
9.14972
 11
26.0343
 21
9.01431
  0
LINE
  8
0
 10
26.0343
 20
9.01431
 11
26.0012
 21
8.88042
  0
LINE
  8
0
 10
26.0012
 20
8.88042
 11
25.9642
 21
8.74805
  0
LINE
  8
0
 10
25.9642
 20
8.74805
 11
25.9233
 21
8.61717
  0
LINE
  8
0
 10
25.9233
 20
8.61717
 11
25.8785
 21
8.48782
  0
LINE
  8
0
 10
25.8785
 20
8.48782
 11
25.8298
 21
8.35999
  0
LINE
  8
0
 10
25.8298
 20
8.35999
 11
25.7777
 21
8.23505
  0
LINE
  8
0
 10
25.7777
 20
8.23505
 11
25.7226
 21
8.11433
  0
LINE
  8
0
 10
25.7226
 20
8.11433
 11
25.6644
 21
7.99788
  0
LINE
  8
0
 10
25.6644
 20
7.99788
 11
25.6032
 21
7.88567
  0
LINE
  8
0
 10
25.6032
 20
7.88567
 11
25.539
 21
7.77771
  0
LINE
  8
0
 10
25.539
 20
7.77771
 11
25.4718
 21
7.67401
  0
LINE
  8
0
 10
25.4718
 20
7.67401
 11
25.4016
 21
7.57454
  0
LINE
  8
0
 10
25.4016
 20
7.57454
 11
25.3284
 21
7.47932
  0
LINE
  8
0
 10
25.3284
 20
7.47932
 11
25.2521
 21
7.38837
  0
LINE
  8
0
 10
25.2521
 20
7.38837
 11
25.1728
 21
7.30165
  0
LINE
  8
0
 10
25.1728
 20
7.30165
 11
25.0905
 21
7.21918
  0
LINE
  8
0
 10
25.0905
 20
7.21918
 11
25.0052
 21
7.14096
  0
LINE
  8
0
 10
25.0052
 20
7.14096
 11
24.9169
 21
7.06699
  0
LINE
  8
0
 10
24.9169
 20
7.06699
 11
24.826
 21
6.99791
  0
LINE
  8
0
 10
24.826
 20
6.99791
 11
24.7333
 21
6.93436
  0
LINE
  8
0
 10
24.7333
 20
6.93436
 11
24.6387
 21
6.87633
  0
LINE
  8
0
 10
24.6387
 20
6.87633
 11
24.5421
 21
6.82382
  0
LINE
  8
0
 10
24.5421
 20
6.82382
 11
24.4436
 21
6.77684
  0
LINE
  8
0
 10
24.4436
 20
6.77684
 11
24.3433
 21
6.7354
  0
LINE
  8
0
 10
24.3433
 20
6.7354
 11
24.241
 21
6.69948
  0
LINE
  8
0
 10
24.241
 20
6.69948
 11
24.1367
 21
6.66908
  0
LINE
  8
0
 10
24.1367
 20
6.66908
 11
24.0306
 21
6.64421
  0
LINE
  8
0
 10
24.0306
 20
6.64421
 11
23.9225
 21
6.62486
  0
LINE
  8
0
 10
23.9225
 20
6.62486
 11
23.8125
 21
6.61104
  0
LINE
  8
0
 10
23.8125
 20
6.61104
 11
23.7007
 21
6.60275
  0
LINE
  8
0
 10
23.7007
 20
6.60275
 11
23.5869
 21
6.59999
  0
LINE
  8
0
 10
23.5869
 20
6.59999
 11
23.505
 21
6.60126
  0
LINE
  8
0
 10
23.505
 20
6.60126
 11
23.4243
 21
6.60503
  0
LINE
  8
0
 10
23.4243
 20
6.60503
 11
23.3448
 21
6.61133
  0
LINE
  8
0
 10
23.3448
 20
6.61133
 11
23.2666
 21
6.62016
  0
LINE
  8
0
 10
23.2666
 20
6.62016
 11
23.1895
 21
6.6315
  0
LINE
  8
0
 10
23.1895
 20
6.6315
 11
23.1136
 21
6.64537
  0
LINE
  8
0
 10
23.1136
 20
6.64537
 11
23.0389
 21
6.66174
  0
LINE
  8
0
 10
23.0389
 20
6.66174
 11
22.9654
 21
6.68065
  0
LINE
  8
0
 10
22.9654
 20
6.68065
 11
22.8931
 21
6.70209
  0
LINE
  8
0
 10
22.8931
 20
6.70209
 11
22.822
 21
6.72603
  0
LINE
  8
0
 10
22.822
 20
6.72603
 11
22.7521
 21
6.7525
  0
LINE
  8
0
 10
22.7521
 20
6.7525
 11
22.6834
 21
6.78148
  0
LINE
  8
0
 10
22.6834
 20
6.78148
 11
22.6158
 21
6.81299
  0
LINE
  8
0
 10
22.6158
 20
6.81299
 11
22.5502
 21
6.84689
  0
LINE
  8
0
 10
22.5502
 20
6.84689
 11
22.4868
 21
6.88277
  0
LINE
  8
0
 10
22.4868
 20
6.88277
 11
22.4257
 21
6.92061
  0
LINE
  8
0
 10
22.4257
 20
6.92061
 11
22.3668
 21
6.9604
  0
LINE
  8
0
 10
22.3668
 20
6.9604
 11
22.3101
 21
7.00217
  0
LINE
  8
0
 10
22.3101
 20
7.00217
 11
22.2557
 21
7.0459
  0
LINE
  8
0
 10
22.2557
 20
7.0459
 11
22.2036
 21
7.09158
  0
LINE
  8
0
 10
22.2036
 20
7.09158
 11
22.1536
 21
7.13924
  0
LINE
  8
0
 10
22.1536
 20
7.13924
 11
22.106
 21
7.18886
  0
LINE
  8
0
 10
22.106
 20
7.18886
 11
22.0606
 21
7.24045
  0
LINE
  8
0
 10
22.0606
 20
7.24045
 11
22.0174
 21
7.29399
  0
LINE
  8
0
 10
22.0174
 20
7.29399
 11
21.9765
 21
7.34952
  0
LINE
  8
0
 10
21.9765
 20
7.34952
 11
21.9379
 21
7.407
  0
LINE
  8
0
 10
21.9379
 20
7.407
 11
21.8358
 21
7.407
  0
LINE
  8
0
 10
21.8358
 20
7.407
 11
21.722
 21
7.28761
  0
LINE
  8
0
 10
21.722
 20
7.28761
 11
21.6044
 21
7.17778
  0
LINE
  8
0
 10
21.6044
 20
7.17778
 11
21.4832
 21
7.07751
  0
LINE
  8
0
 10
21.4832
 20
7.07751
 11
21.3582
 21
6.98679
  0
LINE
  8
0
 10
21.3582
 20
6.98679
 11
21.2296
 21
6.90561
  0
LINE
  8
0
 10
21.2296
 20
6.90561
 11
21.0972
 21
6.83397
  0
LINE
  8
0
 10
21.0972
 20
6.83397
 11
20.9611
 21
6.7719
  0
LINE
  8
0
 10
20.9611
 20
6.7719
 11
20.8213
 21
6.71938
  0
LINE
  8
0
 10
20.8213
 20
6.71938
 11
20.6778
 21
6.67639
  0
LINE
  8
0
 10
20.6778
 20
6.67639
 11
20.5306
 21
6.64297
  0
LINE
  8
0
 10
20.5306
 20
6.64297
 11
20.3797
 21
6.61909
  0
LINE
  8
0
 10
20.3797
 20
6.61909
 11
20.2251
 21
6.60477
  0
LINE
  8
0
 10
20.2251
 20
6.60477
 11
20.0668
 21
6.59999
  0
LINE
  8
0
 10
20.0668
 20
6.59999
 11
19.8787
 21
6.60426
  0
LINE
  8
0
 10
19.8787
 20
6.60426
 11
19.6974
 21
6.61711
  0
LINE
  8
0
 10
19.6974
 20
6.61711
 11
19.523
 21
6.63849
  0
LINE
  8
0
 10
19.523
 20
6.63849
 11
19.3554
 21
6.66844
  0
LINE
  8
0
 10
19.3554
 20
6.66844
 11
19.1947
 21
6.70694
  0
LINE
  8
0
 10
19.1947
 20
6.70694
 11
19.0407
 21
6.754
  0
LINE
  8
0
 10
19.0407
 20
6.754
 11
18.8937
 21
6.80962
  0
LINE
  8
0
 10
18.8937
 20
6.80962
 11
18.7534
 21
6.87379
  0
LINE
  8
0
 10
18.7534
 20
6.87379
 11
18.62
 21
6.94652
  0
LINE
  8
0
 10
18.62
 20
6.94652
 11
18.4935
 21
7.0278
  0
LINE
  8
0
 10
18.4935
 20
7.0278
 11
18.3738
 21
7.11765
  0
LINE
  8
0
 10
18.3738
 20
7.11765
 11
18.2609
 21
7.21603
  0
LINE
  8
0
 10
18.2609
 20
7.21603
 11
18.1548
 21
7.323
  0
LINE
  8
0
 10
18.1548
 20
7.323
 11
18.0562
 21
7.43762
  0
LINE
  8
0
 10
18.0562
 20
7.43762
 11
17.9654
 21
7.55904
  0
LINE
  8
0
 10
17.9654
 20
7.55904
 11
17.8825
 21
7.68726
  0
LINE
  8
0
 10
17.8825
 20
7.68726
 11
17.8075
 21
7.82227
  0
LINE
  8
0
 10
17.8075
 20
7.82227
 11
17.7404
 21
7.96405
  0
LINE
  8
0
 10
17.7404
 20
7.96405
 11
17.6812
 21
8.11266
  0
LINE
  8
0
 10
17.6812
 20
8.11266
 11
17.6299
 21
8.26804
  0
LINE
  8
0
 10
17.6299
 20
8.26804
 11
17.5865
 21
8.43021
  0
LINE
  8
0
 10
17.5865
 20
8.43021
 11
17.551
 21
8.59918
  0
LINE
  8
0
 10
17.551
 20
8.59918
 11
17.5234
 21
8.77495
  0
LINE
  8
0
 10
17.5234
 20
8.77495
 11
17.5036
 21
8.9575
  0
LINE
  8
0
 10
17.5036
 20
8.9575
 11
17.4918
 21
9.14685
  0
LINE
  8
0
 10
17.4918
 20
9.14685
 11
17.4879
 21
9.34299
  0
LINE
  8
0
 10
17.4879
 20
9.34299
 11
17.4903
 21
9.48831
  0
LINE
  8
0
 10
17.4903
 20
9.48831
 11
17.4978
 21
9.63101
  0
LINE
  8
0
 10
17.4978
 20
9.63101
 11
17.5103
 21
9.77112
  0
LINE
  8
0
 10
17.5103
 20
9.77112
 11
17.5277
 21
9.90863
  0
LINE
  8
0
 10
17.5277
 20
9.90863
 11
17.5501
 21
10.0435
  0
LINE
  8
0
 10
17.5501
 20
10.0435
 11
17.5775
 21
10.1758
  0
LINE
  8
0
 10
17.5775
 20
10.1758
 11
17.6099
 21
10.3055
  0
LINE
  8
0
 10
17.6099
 20
10.3055
 11
17.6473
 21
10.4326
  0
LINE
  8
0
 10
17.6473
 20
10.4326
 11
17.6896
 21
10.5571
  0
LINE
  8
0
 10
17.6896
 20
10.5571
 11
17.737
 21
10.679
  0
LINE
  8
0
 10
17.737
 20
10.679
 11
17.7893
 21
10.7982
  0
LINE
  8
0
 10
17.7893
 20
10.7982
 11
17.8466
 21
10.9149
  0
LINE
  8
0
 10
17.8466
 20
10.9149
 11
17.9088
 21
11.029
  0
LINE
  8
0
 10
17.9088
 20
11.029
 11
17.976
 21
11.1398
  0
LINE
  8
0
 10
17.976
 20
11.1398
 11
18.0475
 21
11.2465
  0
LINE
  8
0
 10
18.0475
 20
11.2465
 11
18.1235
 21
11.3493
  0
LINE
  8
0
 10
18.1235
 20
11.3493
 11
18.2039
 21
11.4481
  0
LINE
  8
0
 10
18.2039
 20
11.4481
 11
18.2886
 21
11.5428
  0
LINE
  8
0
 10
18.2886
 20
11.5428
 11
18.3778
 21
11.6336
  0
LINE
  8
0
 10
18.3778
 20
11.6336
 11
18.4715
 21
11.7204
  0
LINE
  8
0
 10
18.4715
 20
11.7204
 11
18.5695
 21
11.8031
  0
LINE
  8
0
 10
18.5695
 20
11.8031
 11
18.6719
 21
11.8819
  0
LINE
  8
0
 10
18.6719
 20
11.8819
 11
18.7788
 21
11.9567
  0
LINE
  8
0
 10
18.7788
 20
11.9567
 11
18.8901
 21
12.0275
  0
LINE
  8
0
 10
18.8901
 20
12.0275
 11
19.0058
 21
12.0942
  0
LINE
  8
0
 10
19.0058
 20
12.0942
 11
19.1259
 21
12.157
  0
LINE
  8
0
 10
19.1259
 20
12.157
 11
19.2498
 21
12.2154
  0
LINE
  8
0
 10
19.2498
 20
12.2154
 11
19.3767
 21
12.2692
  0
LINE
  8
0
 10
19.3767
 20
12.2692
 11
19.5066
 21
12.3183
  0
LINE
  8
0
 10
19.5066
 20
12.3183
 11
19.6395
 21
12.3627
  0
LINE
  8
0
 10
19.6395
 20
12.3627
 11
19.7753
 21
12.4024
  0
LINE
  8
0
 10
19.7753
 20
12.4024
 11
19.9141
 21
12.4375
  0
LINE
  8
0
 10
19.9141
 20
12.4375
 11
20.0558
 21
12.4678
  0
LINE
  8
0
 10
20.0558
 20
12.4678
 11
20.2006
 21
12.4936
  0
LINE
  8
0
 10
20.2006
 20
12.4936
 11
20.3483
 21
12.5146
  0
LINE
  8
0
 10
20.3483
 20
12.5146
 11
20.499
 21
12.531
  0
LINE
  8
0
 10
20.499
 20
12.531
 11
20.6526
 21
12.5426
  0
LINE
  8
0
 10
20.6526
 20
12.5426
 11
20.8092
 21
12.5497
  0
LINE
  8
0
 10
20.8092
 20
12.5497
 11
20.9688
 21
12.552
  0
LINE
  8
0
 10
20.9688
 20
12.552
 11
21.141
 21
12.5493
  0
LINE
  8
0
 10
21.141
 20
12.5493
 11
21.3185
 21
12.5414
  0
LINE
  8
0
 10
21.3185
 20
12.5414
 11
21.5013
 21
12.5281
  0
LINE
  8
0
 10
21.5013
 20
12.5281
 11
21.6894
 21
12.5096
  0
LINE
  8
0
 10
21.6894
 20
12.5096
 11
21.8828
 21
12.4857
  0
LINE
  8
0
 10
21.8828
 20
12.4857
 11
22.0815
 21
12.4566
  0
LINE
  8
0
 10
22.0815
 20
12.4566
 11
22.2842
 21
12.4225
  0
LINE
  8
0
 10
22.2842
 20
12.4225
 11
22.4829
 21
12.3846
  0
LINE
  8
0
 10
22.4829
 20
12.3846
 11
22.6763
 21
12.3431
  0
LINE
  8
0
 10
22.6763
 20
12.3431
 11
22.8644
 21
12.2978
  0
LINE
  8
0
 10
22.8644
 20
12.2978
 11
23.0472
 21
12.2489
  0
LINE
  8
0
 10
23.0472
 20
12.2489
 11
23.2247
 21
12.1963
  0
LINE
  8
0
 10
23.2247
 20
12.1963
 11
23.3969
 21
12.14
  0
LINE
  8
0
 10
23.3969
 20
12.14
 11
23.2538
 21
9.293
  0
LINE
  8
0
 10
23.2538
 20
9.293
 11
23.2399
 21
8.65799
  0
LINE
  8
0
 10
23.2399
 20
8.65799
 11
23.2418
 21
8.57219
  0
LINE
  8
0
 10
23.2418
 20
8.57219
 11
23.2477
 21
8.49326
  0
LINE
  8
0
 10
23.2477
 20
8.49326
 11
23.2576
 21
8.42119
  0
LINE
  8
0
 10
23.2576
 20
8.42119
 11
23.2714
 21
8.35599
  0
LINE
  8
0
 10
23.2714
 20
8.35599
 11
23.2891
 21
8.29764
  0
LINE
  8
0
 10
23.2891
 20
8.29764
 11
23.3108
 21
8.24615
  0
LINE
  8
0
 10
23.3108
 20
8.24615
 11
23.3364
 21
8.20154
  0
LINE
  8
0
 10
23.3364
 20
8.20154
 11
23.366
 21
8.16379
  0
LINE
  8
0
 10
23.366
 20
8.16379
 11
23.3994
 21
8.1329
  0
LINE
  8
0
 10
23.3994
 20
8.1329
 11
23.4369
 21
8.10889
  0
LINE
  8
0
 10
23.4369
 20
8.10889
 11
23.4783
 21
8.09172
  0
LINE
  8
0
 10
23.4783
 20
8.09172
 11
23.5236
 21
8.08142
  0
LINE
  8
0
 10
23.5236
 20
8.08142
 11
23.5728
 21
8.07799
  0
LINE
  8
0
 10
23.5728
 20
8.07799
 11
23.6265
 21
8.08147
  0
LINE
  8
0
 10
23.6265
 20
8.08147
 11
23.6786
 21
8.0919
  0
LINE
  8
0
 10
23.6786
 20
8.0919
 11
23.7292
 21
8.1093
  0
LINE
  8
0
 10
23.7292
 20
8.1093
 11
23.7781
 21
8.13367
  0
LINE
  8
0
 10
23.7781
 20
8.13367
 11
23.8255
 21
8.16498
  0
LINE
  8
0
 10
23.8255
 20
8.16498
 11
23.8713
 21
8.20325
  0
LINE
  8
0
 10
23.8713
 20
8.20325
 11
23.9155
 21
8.24847
  0
LINE
  8
0
 10
23.9155
 20
8.24847
 11
23.9582
 21
8.30067
  0
LINE
  8
0
 10
23.9582
 20
8.30067
 11
23.9993
 21
8.35982
  0
LINE
  8
0
 10
23.9993
 20
8.35982
 11
24.0388
 21
8.42592
  0
LINE
  8
0
 10
24.0388
 20
8.42592
 11
24.0767
 21
8.49899
  0
LINE
  8
0
 10
24.0767
 20
8.49899
 11
24.1131
 21
8.57901
  0
LINE
  8
0
 10
24.1131
 20
8.57901
 11
24.1478
 21
8.66599
  0
LINE
  8
0
 10
24.1478
 20
8.66599
 11
24.1805
 21
8.75844
  0
LINE
  8
0
 10
24.1805
 20
8.75844
 11
24.2106
 21
8.85455
  0
LINE
  8
0
 10
24.2106
 20
8.85455
 11
24.2381
 21
8.95435
  0
LINE
  8
0
 10
24.2381
 20
8.95435
 11
24.2629
 21
9.0578
  0
LINE
  8
0
 10
24.2629
 20
9.0578
 11
24.2852
 21
9.16493
  0
LINE
  8
0
 10
24.2852
 20
9.16493
 11
24.3048
 21
9.27573
  0
LINE
  8
0
 10
24.3048
 20
9.27573
 11
24.3218
 21
9.39018
  0
LINE
  8
0
 10
24.3218
 20
9.39018
 11
24.3362
 21
9.50832
  0
LINE
  8
0
 10
24.3362
 20
9.50832
 11
24.3479
 21
9.63011
  0
LINE
  8
0
 10
24.3479
 20
9.63011
 11
24.3571
 21
9.75558
  0
LINE
  8
0
 10
24.3571
 20
9.75558
 11
24.3636
 21
9.88472
  0
LINE
  8
0
 10
24.3636
 20
9.88472
 11
24.3675
 21
10.0175
  0
LINE
  8
0
 10
24.3675
 20
10.0175
 11
24.3689
 21
10.154
  0
LINE
  8
0
 10
24.3689
 20
10.154
 11
24.3634
 21
10.3984
  0
LINE
  8
0
 10
24.3634
 20
10.3984
 11
24.3471
 21
10.6341
  0
LINE
  8
0
 10
24.3471
 20
10.6341
 11
24.32
 21
10.861
  0
LINE
  8
0
 10
24.32
 20
10.861
 11
24.2819
 21
11.0792
  0
LINE
  8
0
 10
24.2819
 20
11.0792
 11
24.233
 21
11.2887
  0
LINE
  8
0
 10
24.233
 20
11.2887
 11
24.1733
 21
11.4894
  0
LINE
  8
0
 10
24.1733
 20
11.4894
 11
24.1027
 21
11.6814
  0
LINE
  8
0
 10
24.1027
 20
11.6814
 11
24.0212
 21
11.8647
  0
LINE
  8
0
 10
24.0212
 20
11.8647
 11
23.9289
 21
12.0392
  0
LINE
  8
0
 10
23.9289
 20
12.0392
 11
23.8257
 21
12.205
  0
LINE
  8
0
 10
23.8257
 20
12.205
 11
23.7116
 21
12.3621
  0
LINE
  8
0
 10
23.7116
 20
12.3621
 11
23.5866
 21
12.5104
  0
LINE
  8
0
 10
23.5866
 20
12.5104
 11
23.4509
 21
12.65
  0
LINE
  8
0
 10
23.4509
 20
12.65
 11
23.3051
 21
12.78
  0
LINE
  8
0
 10
23.3051
 20
12.78
 11
23.1502
 21
12.8996
  0
LINE
  8
0
 10
23.1502
 20
12.8996
 11
22.9863
 21
13.0089
  0
LINE
  8
0
 10
22.9863
 20
13.0089
 11
22.8132
 21
13.1077
  0
LINE
  8
0
 10
22.8132
 20
13.1077
 11
22.6311
 21
13.1961
  0
LINE
  8
0
 10
22.6311
 20
13.1961
 11
22.4399
 21
13.2741
  0
LINE
  8
0
 10
22.4399
 20
13.2741
 11
22.2396
 21
13.3418
  0
LINE
  8
0
 10
22.2396
 20
13.3418
 11
22.0302
 21
13.399
  0
LINE
  8
0
 10
22.0302
 20
13.399
 11
21.8117
 21
13.4458
  0
LINE
  8
0
 10
21.8117
 20
13.4458
 11
21.5841
 21
13.4822
  0
LINE
  8
0
 10
21.5841
 20
13.4822
 11
21.3474
 21
13.5082
  0
LINE
  8
0
 10
21.3474
 20
13.5082
 11
21.1017
 21
13.5238
  0
LINE
  8
0
 10
21.1017
 20
13.5238
 11
20.8468
 21
13.529
  0
LINE
  8
0
 10
20.8468
 20
13.529
 11
20.6501
 21
13.5258
  0
LINE
  8
0
 10
20.6501
 20
13.5258
 11
20.4573
 21
13.5163
  0
LINE
  8
0
 10
20.4573
 20
13.5163
 11
20.2684
 21
13.5005
  0
LINE
  8
0
 10
20.2684
 20
13.5005
 11
20.0836
 21
13.4783
  0
LINE
  8
0
 10
20.0836
 20
13.4783
 11
19.9027
 21
13.4498
  0
LINE
  8
0
 10
19.9027
 20
13.4498
 11
19.7258
 21
13.415
  0
LINE
  8
0
 10
19.7258
 20
13.415
 11
19.5529
 21
13.3739
  0
LINE
  8
0
 10
19.5529
 20
13.3739
 11
19.3839
 21
13.3264
  0
LINE
  8
0
 10
19.3839
 20
13.3264
 11
19.219
 21
13.2726
  0
LINE
  8
0
 10
19.219
 20
13.2726
 11
19.058
 21
13.2124
  0
LINE
  8
0
 10
19.058
 20
13.2124
 11
18.901
 21
13.146
  0
LINE
  8
0
 10
18.901
 20
13.146
 11
18.7479
 21
13.0731
  0
LINE
  8
0
 10
18.7479
 20
13.0731
 11
18.5988
 21
12.994
  0
LINE
  8
0
 10
18.5988
 20
12.994
 11
18.4546
 21
12.9091
  0
LINE
  8
0
 10
18.4546
 20
12.9091
 11
18.3157
 21
12.8187
  0
LINE
  8
0
 10
18.3157
 20
12.8187
 11
18.1821
 21
12.7228
  0
LINE
  8
0
 10
18.1821
 20
12.7228
 11
18.054
 21
12.6214
  0
LINE
  8
0
 10
18.054
 20
12.6214
 11
17.9311
 21
12.5144
  0
LINE
  8
0
 10
17.9311
 20
12.5144
 11
17.8136
 21
12.402
  0
LINE
  8
0
 10
17.8136
 20
12.402
 11
17.7014
 21
12.2841
  0
LINE
  8
0
 10
17.7014
 20
12.2841
 11
17.5946
 21
12.1607
  0
LINE
  8
0
 10
17.5946
 20
12.1607
 11
17.4932
 21
12.0317
  0
LINE
  8
0
 10
17.4932
 20
12.0317
 11
17.3971
 21
11.8973
  0
LINE
  8
0
 10
17.3971
 20
11.8973
 11
17.3063
 21
11.7574
  0
LINE
  8
0
 10
17.3063
 20
11.7574
 11
17.2209
 21
11.6119
  0
LINE
  8
0
 10
17.2209
 20
11.6119
 11
17.1409
 21
11.461
  0
LINE
  8
0
 10
17.1409
 20
11.461
 11
17.0664
 21
11.3054
  0
LINE
  8
0
 10
17.0664
 20
11.3054
 11
16.998
 21
11.1458
  0
LINE
  8
0
 10
16.998
 20
11.1458
 11
16.9355
 21
10.9822
  0
LINE
  8
0
 10
16.9355
 20
10.9822
 11
16.8789
 21
10.8145
  0
LINE
  8
0
 10
16.8789
 20
10.8145
 11
16.8283
 21
10.6427
  0
LINE
  8
0
 10
16.8283
 20
10.6427
 11
16.7837
 21
10.4669
  0
LINE
  8
0
 10
16.7837
 20
10.4669
 11
16.745
 21
10.2871
  0
LINE
  8
0
 10
16.745
 20
10.2871
 11
16.7122
 21
10.1032
  0
LINE
  8
0
 10
16.7122
 20
10.1032
 11
16.6855
 21
9.91522
  0
LINE
  8
0
 10
16.6855
 20
9.91522
 11
16.6646
 21
9.72324
  0
LINE
  8
0
 10
16.6646
 20
9.72324
 11
16.6497
 21
9.52721
  0
LINE
  8
0
 10
16.6497
 20
9.52721
 11
16.6408
 21
9.32712
  0
LINE
  8
0
 10
16.6408
 20
9.32712
 11
16.6378
 21
9.12299
  0
LINE
  8
0
 10
16.6378
 20
9.12299
 11
16.6436
 21
8.86212
  0
LINE
  8
0
 10
16.6436
 20
8.86212
 11
16.6608
 21
8.61057
  0
LINE
  8
0
 10
16.6608
 20
8.61057
 11
16.6895
 21
8.36835
  0
LINE
  8
0
 10
16.6895
 20
8.36835
 11
16.7296
 21
8.13544
  0
LINE
  8
0
 10
16.7296
 20
8.13544
 11
16.7812
 21
7.91187
  0
LINE
  8
0
 10
16.7812
 20
7.91187
 11
16.8443
 21
7.69762
  0
LINE
  8
0
 10
16.8443
 20
7.69762
 11
16.9188
 21
7.49269
  0
LINE
  8
0
 10
16.9188
 20
7.49269
 11
17.0048
 21
7.2971
  0
LINE
  8
0
 10
17.0048
 20
7.2971
 11
17.1023
 21
7.11082
  0
LINE
  8
0
 10
17.1023
 20
7.11082
 11
17.2112
 21
6.93388
  0
LINE
  8
0
 10
17.2112
 20
6.93388
 11
17.3316
 21
6.76627
  0
LINE
  8
0
 10
17.3316
 20
6.76627
 11
17.4635
 21
6.60796
  0
LINE
  8
0
 10
17.4635
 20
6.60796
 11
17.6068
 21
6.459
  0
LINE
  8
0
 10
17.6068
 20
6.459
 11
17.7607
 21
6.32039
  0
LINE
  8
0
 10
17.7607
 20
6.32039
 11
17.9239
 21
6.19286
  0
LINE
  8
0
 10
17.9239
 20
6.19286
 11
18.0966
 21
6.07643
  0
LINE
  8
0
 10
18.0966
 20
6.07643
 11
18.2788
 21
5.97108
  0
LINE
  8
0
 10
18.2788
 20
5.97108
 11
18.4704
 21
5.87683
  0
LINE
  8
0
 10
18.4704
 20
5.87683
 11
18.6715
 21
5.79367
  0
LINE
  8
0
 10
18.6715
 20
5.79367
 11
18.882
 21
5.72159
  0
LINE
  8
0
 10
18.882
 20
5.72159
 11
19.102
 21
5.6606
  0
LINE
  8
0
 10
19.102
 20
5.6606
 11
19.3315
 21
5.6107
  0
LINE
  8
0
 10
19.3315
 20
5.6107
 11
19.5704
 21
5.57188
  0
LINE
  8
0
 10
19.5704
 20
5.57188
 11
19.8188
 21
5.54417
  0
LINE
  8
0
 10
19.8188
 20
5.54417
 11
20.0766
 21
5.52754
  0
LINE
  8
0
 10
20.0766
 20
5.52754
 11
20.3438
 21
5.52199
  0
LINE
  8
0
 10
20.3438
 20
5.52199
 11
20.5896
 21
5.52599
  0
LINE
  8
0
 10
20.5896
 20
5.52599
 11
20.8413
 21
5.53799
  0
LINE
  8
0
 10
20.8413
 20
5.53799
 11
21.099
 21
5.558
  0
LINE
  8
0
 10
21.099
 20
5.558
 11
21.3626
 21
5.586
  0
LINE
  8
0
 10
21.3626
 20
5.586
 11
21.6322
 21
5.62199
  0
LINE
  8
0
 10
21.6322
 20
5.62199
 11
21.9078
 21
5.66599
  0
LINE
  8
0
 10
21.9078
 20
5.66599
 11
22.1884
 21
5.71799
  0
LINE
  8
0
 10
22.1884
 20
5.71799
 11
22.4681
 21
5.77702
  0
LINE
  8
0
 10
22.4681
 20
5.77702
 11
22.7461
 21
5.84277
  0
LINE
  8
0
 10
22.7461
 20
5.84277
 11
23.0222
 21
5.91524
  0
LINE
  8
0
 10
23.0222
 20
5.91524
 11
23.2966
 21
5.99443
  0
LINE
  8
0
 10
23.2966
 20
5.99443
 11
23.5691
 21
6.08035
  0
LINE
  8
0
 10
23.5691
 20
6.08035
 11
23.8398
 21
6.17299
  0
LINE
  8
0
 10
23.8398
 20
6.17299
 11
23.8398
 21
4.62001
  0
LINE
  8
0
 10
23.8398
 20
4.62001
 11
23.6035
 21
4.52473
  0
LINE
  8
0
 10
23.6035
 20
4.52473
 11
23.3629
 21
4.4371
  0
LINE
  8
0
 10
23.3629
 20
4.4371
 11
23.1181
 21
4.35707
  0
LINE
  8
0
 10
23.1181
 20
4.35707
 11
22.8692
 21
4.28467
  0
LINE
  8
0
 10
22.8692
 20
4.28467
 11
22.6161
 21
4.21989
  0
LINE
  8
0
 10
22.6161
 20
4.21989
 11
22.3588
 21
4.16273
  0
LINE
  8
0
 10
22.3588
 20
4.16273
 11
22.0974
 21
4.11319
  0
LINE
  8
0
 10
22.0974
 20
4.11319
 11
21.8317
 21
4.07127
  0
LINE
  8
0
 10
21.8317
 20
4.07127
 11
21.5619
 21
4.03697
  0
LINE
  8
0
 10
21.5619
 20
4.03697
 11
21.2879
 21
4.0103
  0
LINE
  8
0
 10
21.2879
 20
4.0103
 11
21.0097
 21
3.99126
  0
LINE
  8
0
 10
21.0097
 20
3.99126
 11
20.7274
 21
3.97981
  0
LINE
  8
0
 10
20.7274
 20
3.97981
 11
20.4408
 21
3.97601
  0
LINE
  8
0
 10
20.4408
 20
3.97601
 11
20.0419
 21
3.98412
  0
LINE
  8
0
 10
20.3821
 20
8.08046
 11
20.4581
 21
8.08786
  0
LINE
  8
0
 10
20.4581
 20
8.08786
 11
20.5307
 21
8.1002
  0
LINE
  8
0
 10
20.5307
 20
8.1002
 11
20.6
 21
8.11748
  0
LINE
  8
0
 10
20.6
 20
8.11748
 11
20.666
 21
8.13968
  0
LINE
  8
0
 10
20.666
 20
8.13968
 11
20.7287
 21
8.16682
  0
LINE
  8
0
 10
20.7287
 20
8.16682
 11
20.7881
 21
8.1989
  0
LINE
  8
0
 10
20.7881
 20
8.1989
 11
20.8442
 21
8.23592
  0
LINE
  8
0
 10
20.8442
 20
8.23592
 11
20.897
 21
8.27786
  0
LINE
  8
0
 10
20.897
 20
8.27786
 11
20.9464
 21
8.32474
  0
LINE
  8
0
 10
20.9464
 20
8.32474
 11
20.9925
 21
8.37656
  0
LINE
  8
0
 10
20.9925
 20
8.37656
 11
21.0353
 21
8.4333
  0
LINE
  8
0
 10
21.0353
 20
8.4333
 11
21.0748
 21
8.495
  0
LINE
  8
0
 10
21.0748
 20
8.495
 11
21.1117
 21
8.56311
  0
LINE
  8
0
 10
21.1117
 20
8.56311
 11
21.1465
 21
8.63887
  0
LINE
  8
0
 10
21.1465
 20
8.63887
 11
21.1793
 21
8.72226
  0
LINE
  8
0
 10
21.1793
 20
8.72226
 11
21.21
 21
8.81329
  0
LINE
  8
0
 10
21.21
 20
8.81329
 11
21.2388
 21
8.91194
  0
LINE
  8
0
 10
21.2388
 20
8.91194
 11
21.2655
 21
9.01823
  0
LINE
  8
0
 10
21.2655
 20
9.01823
 11
21.2902
 21
9.13216
  0
LINE
  8
0
 10
21.2902
 20
9.13216
 11
21.3129
 21
9.25371
  0
LINE
  8
0
 10
21.3129
 20
9.25371
 11
21.3335
 21
9.3829
  0
LINE
  8
0
 10
21.3335
 20
9.3829
 11
21.3521
 21
9.51973
  0
LINE
  8
0
 10
21.3521
 20
9.51973
 11
21.3687
 21
9.66418
  0
LINE
  8
0
 10
21.3687
 20
9.66418
 11
21.3833
 21
9.81627
  0
LINE
  8
0
 10
21.3833
 20
9.81627
 11
21.3958
 21
9.976
  0
LINE
  8
0
 10
21.3958
 20
9.976
 11
21.4639
 21
11.027
  0
LINE
  8
0
 10
21.4639
 20
11.027
 11
21.4223
 21
11.0329
  0
LINE
  8
0
 10
21.4223
 20
11.0329
 11
21.1933
 21
11.0585
  0
LINE
  8
0
 10
21.1933
 20
11.0585
 11
21.0289
 21
11.0668
  0
LINE
  8
0
 10
21.0289
 20
11.0668
 11
20.8873
 21
11.0643
  0
LINE
  8
0
 10
20.8873
 20
11.0643
 11
20.7793
 21
11.0563
  0
LINE
  8
0
 10
20.7793
 20
11.0563
 11
20.6748
 21
11.043
  0
LINE
  8
0
 10
20.6748
 20
11.043
 11
20.574
 21
11.0243
  0
LINE
  8
0
 10
20.574
 20
11.0243
 11
20.4767
 21
11.0003
  0
LINE
  8
0
 10
20.4767
 20
11.0003
 11
20.3831
 21
10.9709
  0
LINE
  8
0
 10
20.3831
 20
10.9709
 11
20.293
 21
10.9362
  0
LINE
  8
0
 10
20.293
 20
10.9362
 11
20.2065
 21
10.8962
  0
LINE
  8
0
 10
20.2065
 20
10.8962
 11
20.1236
 21
10.8508
  0
LINE
  8
0
 10
20.1236
 20
10.8508
 11
20.0443
 21
10.8001
  0
LINE
  8
0
 10
20.0443
 20
10.8001
 11
19.9686
 21
10.7441
  0
LINE
  8
0
 10
19.9686
 20
10.7441
 11
19.8964
 21
10.6827
  0
LINE
  8
0
 10
19.8964
 20
10.6827
 11
19.8279
 21
10.616
  0
LINE
  8
0
 10
19.8279
 20
10.616
 11
19.7636
 21
10.5445
  0
LINE
  8
0
 10
19.7636
 20
10.5445
 11
19.7046
 21
10.4688
  0
LINE
  8
0
 10
19.7046
 20
10.4688
 11
19.6507
 21
10.3888
  0
LINE
  8
0
 10
19.6507
 20
10.3888
 11
19.6019
 21
10.3047
  0
LINE
  8
0
 10
19.6019
 20
10.3047
 11
19.5582
 21
10.2163
  0
LINE
  8
0
 10
19.5582
 20
10.2163
 11
19.5197
 21
10.1236
  0
LINE
  8
0
 10
19.5197
 20
10.1236
 11
19.4863
 21
10.0268
  0
LINE
  8
0
 10
19.4863
 20
10.0268
 11
19.4581
 21
9.92572
  0
LINE
  8
0
 10
19.4581
 20
9.92572
 11
19.4349
 21
9.82042
  0
LINE
  8
0
 10
19.4349
 20
9.82042
 11
19.417
 21
9.71091
  0
LINE
  8
0
 10
19.417
 20
9.71091
 11
19.4041
 21
9.59715
  0
LINE
  8
0
 10
19.4041
 20
9.59715
 11
19.3964
 21
9.47919
  0
LINE
  8
0
 10
19.3964
 20
9.47919
 11
19.3938
 21
9.35699
  0
LINE
  8
0
 10
19.3938
 20
9.35699
 11
19.3953
 21
9.25565
  0
LINE
  8
0
 10
19.3953
 20
9.25565
 11
19.3997
 21
9.15868
  0
LINE
  8
0
 10
19.3997
 20
9.15868
 11
19.4071
 21
9.06609
  0
LINE
  8
0
 10
19.4071
 20
9.06609
 11
19.4174
 21
8.97787
  0
LINE
  8
0
 10
19.4174
 20
8.97787
 11
19.4307
 21
8.89403
  0
LINE
  8
0
 10
19.4307
 20
8.89403
 11
19.4469
 21
8.81458
  0
LINE
  8
0
 10
19.4469
 20
8.81458
 11
19.466
 21
8.7395
  0
LINE
  8
0
 10
19.466
 20
8.7395
 11
19.4881
 21
8.66881
  0
LINE
  8
0
 10
19.4881
 20
8.66881
 11
19.5132
 21
8.60248
  0
LINE
  8
0
 10
19.5132
 20
8.60248
 11
19.5412
 21
8.54054
  0
LINE
  8
0
 10
19.5412
 20
8.54054
 11
19.5721
 21
8.48299
  0
LINE
  8
0
 10
19.5721
 20
8.48299
 11
19.606
 21
8.42979
  0
LINE
  8
0
 10
19.606
 20
8.42979
 11
19.6429
 21
8.381
  0
LINE
  8
0
 10
19.6429
 20
8.381
 11
19.6823
 21
8.33617
  0
LINE
  8
0
 10
19.6823
 20
8.33617
 11
19.7236
 21
8.29494
  0
LINE
  8
0
 10
19.7236
 20
8.29494
 11
19.7668
 21
8.25728
  0
LINE
  8
0
 10
19.7668
 20
8.25728
 11
19.8118
 21
8.22322
  0
LINE
  8
0
 10
19.8118
 20
8.22322
 11
19.8588
 21
8.19273
  0
LINE
  8
0
 10
19.8588
 20
8.19273
 11
19.9077
 21
8.16585
  0
LINE
  8
0
 10
19.9077
 20
8.16585
 11
19.9585
 21
8.14253
  0
LINE
  8
0
 10
19.9585
 20
8.14253
 11
20.0111
 21
8.12282
  0
LINE
  8
0
 10
20.0111
 20
8.12282
 11
20.0657
 21
8.10667
  0
LINE
  8
0
 10
20.0657
 20
8.10667
 11
20.1221
 21
8.09413
  0
LINE
  8
0
 10
20.1221
 20
8.09413
 11
20.1805
 21
8.08516
  0
LINE
  8
0
 10
20.1805
 20
8.08516
 11
20.2407
 21
8.07979
  0
LINE
  8
0
 10
20.2407
 20
8.07979
 11
20.3028
 21
8.07799
  0
LINE
  8
0
 10
20.3028
 20
8.07799
 11
20.3821
 21
8.08046
  0
LINE
  8
0
 10
53.5093
 20
5
 11
53.5093
 21
12.68
  0
LINE
  8
0
 10
53.5093
 20
12.68
 11
55.4823
 21
12.68
  0
LINE
  8
0
 10
55.4823
 20
12.68
 11
55.8963
 21
11.445
  0
LINE
  8
0
 10
55.8963
 20
11.445
 11
56.0253
 21
11.445
  0
LINE
  8
0
 10
56.0253
 20
11.445
 11
56.0781
 21
11.5375
  0
LINE
  8
0
 10
56.0781
 20
11.5375
 11
56.1339
 21
11.6272
  0
LINE
  8
0
 10
56.1339
 20
11.6272
 11
56.1929
 21
11.7141
  0
LINE
  8
0
 10
56.1929
 20
11.7141
 11
56.255
 21
11.7982
  0
LINE
  8
0
 10
56.255
 20
11.7982
 11
56.3202
 21
11.8796
  0
LINE
  8
0
 10
56.3202
 20
11.8796
 11
56.3885
 21
11.9582
  0
LINE
  8
0
 10
56.3885
 20
11.9582
 11
56.4599
 21
12.0341
  0
LINE
  8
0
 10
56.4599
 20
12.0341
 11
56.5343
 21
12.1071
  0
LINE
  8
0
 10
56.5343
 20
12.1071
 11
56.6119
 21
12.1775
  0
LINE
  8
0
 10
56.6119
 20
12.1775
 11
56.6926
 21
12.245
  0
LINE
  8
0
 10
56.6926
 20
12.245
 11
56.7764
 21
12.3098
  0
LINE
  8
0
 10
56.7764
 20
12.3098
 11
56.8633
 21
12.3718
  0
LINE
  8
0
 10
56.8633
 20
12.3718
 11
56.9533
 21
12.431
  0
LINE
  8
0
 10
56.9533
 20
12.431
 11
57.045
 21
12.4868
  0
LINE
  8
0
 10
57.045
 20
12.4868
 11
57.1369
 21
12.5381
  0
LINE
  8
0
 10
57.1369
 20
12.5381
 11
57.2288
 21
12.5849
  0
LINE
  8
0
 10
57.2288
 20
12.5849
 11
57.3209
 21
12.6273
  0
LINE
  8
0
 10
57.3209
 20
12.6273
 11
57.4131
 21
12.6652
  0
LINE
  8
0
 10
57.4131
 20
12.6652
 11
57.5054
 21
12.6987
  0
LINE
  8
0
 10
57.5054
 20
12.6987
 11
57.5977
 21
12.7277
  0
LINE
  8
0
 10
57.5977
 20
12.7277
 11
57.6902
 21
12.7522
  0
LINE
  8
0
 10
57.6902
 20
12.7522
 11
57.7828
 21
12.7723
  0
LINE
  8
0
 10
57.7828
 20
12.7723
 11
57.8755
 21
12.7879
  0
LINE
  8
0
 10
57.8755
 20
12.7879
 11
57.9683
 21
12.7991
  0
LINE
  8
0
 10
57.9683
 20
12.7991
 11
58.0612
 21
12.8058
  0
LINE
  8
0
 10
58.0612
 20
12.8058
 11
58.1543
 21
12.808
  0
LINE
  8
0
 10
58.1543
 20
12.808
 11
58.3646
 21
12.8029
  0
LINE
  8
0
 10
58.3646
 20
12.8029
 11
58.5685
 21
12.7875
  0
LINE
  8
0
 10
58.5685
 20
12.7875
 11
58.7172
 21
12.7693
  0
LINE
  8
0
 10
58.7172
 20
12.7693
 11
58.9643
 21
12.727
  0
LINE
  8
0
 10
58.9643
 20
12.727
 11
58.7263
 21
10.224
  0
LINE
  8
0
 10
58.7263
 20
10.224
 11
58.6745
 21
10.2361
  0
LINE
  8
0
 10
58.6745
 20
10.2361
 11
58.562
 21
10.2575
  0
LINE
  8
0
 10
58.562
 20
10.2575
 11
58.4376
 21
10.2749
  0
LINE
  8
0
 10
58.4376
 20
10.2749
 11
58.3013
 21
10.2885
  0
LINE
  8
0
 10
58.3013
 20
10.2885
 11
58.1532
 21
10.2982
  0
LINE
  8
0
 10
58.1532
 20
10.2982
 11
57.9932
 21
10.304
  0
LINE
  8
0
 10
57.9932
 20
10.304
 11
57.8213
 21
10.306
  0
LINE
  8
0
 10
57.8213
 20
10.306
 11
57.6901
 21
10.3036
  0
LINE
  8
0
 10
57.6901
 20
10.3036
 11
57.5645
 21
10.2966
  0
LINE
  8
0
 10
57.5645
 20
10.2966
 11
57.4446
 21
10.2849
  0
LINE
  8
0
 10
57.4446
 20
10.2849
 11
57.3303
 21
10.2685
  0
LINE
  8
0
 10
57.3303
 20
10.2685
 11
57.2217
 21
10.2474
  0
LINE
  8
0
 10
57.2217
 20
10.2474
 11
57.1187
 21
10.2216
  0
LINE
  8
0
 10
57.1187
 20
10.2216
 11
57.0213
 21
10.1912
  0
LINE
  8
0
 10
57.0213
 20
10.1912
 11
56.9295
 21
10.156
  0
LINE
  8
0
 10
56.9295
 20
10.156
 11
56.8434
 21
10.1162
  0
LINE
  8
0
 10
56.8434
 20
10.1162
 11
56.7629
 21
10.0717
  0
LINE
  8
0
 10
56.7629
 20
10.0717
 11
56.6881
 21
10.0225
  0
LINE
  8
0
 10
56.6881
 20
10.0225
 11
56.6189
 21
9.96857
  0
LINE
  8
0
 10
56.6189
 20
9.96857
 11
56.5553
 21
9.90999
  0
LINE
  8
0
 10
56.5553
 20
9.90999
 11
56.497
 21
9.84702
  0
LINE
  8
0
 10
56.497
 20
9.84702
 11
56.4434
 21
9.77991
  0
LINE
  8
0
 10
56.4434
 20
9.77991
 11
56.3944
 21
9.70869
  0
LINE
  8
0
 10
56.3944
 20
9.70869
 11
56.3501
 21
9.63335
  0
LINE
  8
0
 10
56.3501
 20
9.63335
 11
56.3105
 21
9.55389
  0
LINE
  8
0
 10
56.3105
 20
9.55389
 11
56.2755
 21
9.47032
  0
LINE
  8
0
 10
56.2755
 20
9.47032
 11
56.2452
 21
9.38263
  0
LINE
  8
0
 10
56.2452
 20
9.38263
 11
56.2196
 21
9.29082
  0
LINE
  8
0
 10
56.2196
 20
9.29082
 11
56.1986
 21
9.19489
  0
LINE
  8
0
 10
56.1986
 20
9.19489
 11
56.1823
 21
9.09485
  0
LINE
  8
0
 10
56.1823
 20
9.09485
 11
56.1706
 21
8.99068
  0
LINE
  8
0
 10
56.1706
 20
8.99068
 11
56.1636
 21
8.8824
  0
LINE
  8
0
 10
56.1636
 20
8.8824
 11
56.1613
 21
8.76999
  0
LINE
  8
0
 10
56.1613
 20
8.76999
 11
56.1613
 21
5
  0
LINE
  8
0
 10
56.1613
 20
5
 11
53.5093
 21
5
  0
LINE
  8
0
 10
68.3237
 20
5
 11
68.3237
 21
12.68
  0
LINE
  8
0
 10
68.3237
 20
12.68
 11
70.2967
 21
12.68
  0
LINE
  8
0
 10
70.2967
 20
12.68
 11
70.7107
 21
11.445
  0
LINE
  8
0
 10
70.7107
 20
11.445
 11
70.8397
 21
11.445
  0
LINE
  8
0
 10
70.8397
 20
11.445
 11
70.8925
 21
11.5375
  0
LINE
  8
0
 10
70.8925
 20
11.5375
 11
70.9484
 21
11.6272
  0
LINE
  8
0
 10
70.9484
 20
11.6272
 11
71.0074
 21
11.7141
  0
LINE
  8
0
 10
71.0074
 20
11.7141
 11
71.0695
 21
11.7982
  0
LINE
  8
0
 10
71.0695
 20
11.7982
 11
71.1346
 21
11.8796
  0
LINE
  8
0
 10
71.1346
 20
11.8796
 11
71.2029
 21
11.9582
  0
LINE
  8
0
 10
71.2029
 20
11.9582
 11
71.2743
 21
12.0341
  0
LINE
  8
0
 10
71.2743
 20
12.0341
 11
71.3488
 21
12.1071
  0
LINE
  8
0
 10
71.3488
 20
12.1071
 11
71.4264
 21
12.1775
  0
LINE
  8
0
 10
71.4264
 20
12.1775
 11
71.5071
 21
12.245
  0
LINE
  8
0
 10
71.5071
 20
12.245
 11
71.5909
 21
12.3098
  0
LINE
  8
0
 10
71.5909
 20
12.3098
 11
71.6777
 21
12.3718
  0
LINE
  8
0
 10
71.6777
 20
12.3718
 11
71.7677
 21
12.431
  0
LINE
  8
0
 10
71.7677
 20
12.431
 11
71.8595
 21
12.4868
  0
LINE
  8
0
 10
71.8595
 20
12.4868
 11
71.9513
 21
12.5381
  0
LINE
  8
0
 10
71.9513
 20
12.5381
 11
72.0433
 21
12.5849
  0
LINE
  8
0
 10
72.0433
 20
12.5849
 11
72.1353
 21
12.6273
  0
LINE
  8
0
 10
72.1353
 20
12.6273
 11
72.2275
 21
12.6652
  0
LINE
  8
0
 10
72.2275
 20
12.6652
 11
72.3198
 21
12.6987
  0
LINE
  8
0
 10
72.3198
 20
12.6987
 11
72.4122
 21
12.7277
  0
LINE
  8
0
 10
72.4122
 20
12.7277
 11
72.5047
 21
12.7522
  0
LINE
  8
0
 10
72.5047
 20
12.7522
 11
72.5973
 21
12.7723
  0
LINE
  8
0
 10
72.5973
 20
12.7723
 11
72.69
 21
12.7879
  0
LINE
  8
0
 10
72.69
 20
12.7879
 11
72.7828
 21
12.7991
  0
LINE
  8
0
 10
72.7828
 20
12.7991
 11
72.8757
 21
12.8058
  0
LINE
  8
0
 10
72.8757
 20
12.8058
 11
72.9687
 21
12.808
  0
LINE
  8
0
 10
72.9687
 20
12.808
 11
73.179
 21
12.8029
  0
LINE
  8
0
 10
73.179
 20
12.8029
 11
73.3829
 21
12.7875
  0
LINE
  8
0
 10
73.3829
 20
12.7875
 11
73.5316
 21
12.7693
  0
LINE
  8
0
 10
73.5316
 20
12.7693
 11
73.7787
 21
12.727
  0
LINE
  8
0
 10
73.7787
 20
12.727
 11
73.5407
 21
10.224
  0
LINE
  8
0
 10
73.5407
 20
10.224
 11
73.4889
 21
10.2361
  0
LINE
  8
0
 10
73.4889
 20
10.2361
 11
73.3764
 21
10.2575
  0
LINE
  8
0
 10
73.3764
 20
10.2575
 11
73.2521
 21
10.2749
  0
LINE
  8
0
 10
73.2521
 20
10.2749
 11
73.1158
 21
10.2885
  0
LINE
  8
0
 10
73.1158
 20
10.2885
 11
72.9677
 21
10.2982
  0
LINE
  8
0
 10
72.9677
 20
10.2982
 11
72.8076
 21
10.304
  0
LINE
  8
0
 10
72.8076
 20
10.304
 11
72.6357
 21
10.306
  0
LINE
  8
0
 10
72.6357
 20
10.306
 11
72.5045
 21
10.3036
  0
LINE
  8
0
 10
72.5045
 20
10.3036
 11
72.379
 21
10.2966
  0
LINE
  8
0
 10
72.379
 20
10.2966
 11
72.2591
 21
10.2849
  0
LINE
  8
0
 10
72.2591
 20
10.2849
 11
72.1448
 21
10.2685
  0
LINE
  8
0
 10
72.1448
 20
10.2685
 11
72.0361
 21
10.2474
  0
LINE
  8
0
 10
72.0361
 20
10.2474
 11
71.9331
 21
10.2216
  0
LINE
  8
0
 10
71.9331
 20
10.2216
 11
71.8357
 21
10.1912
  0
LINE
  8
0
 10
71.8357
 20
10.1912
 11
71.744
 21
10.156
  0
LINE
  8
0
 10
71.744
 20
10.156
 11
71.6579
 21
10.1162
  0
LINE
  8
0
 10
71.6579
 20
10.1162
 11
71.5774
 21
10.0717
  0
LINE
  8
0
 10
71.5774
 20
10.0717
 11
71.5025
 21
10.0225
  0
LINE
  8
0
 10
71.5025
 20
10.0225
 11
71.4333
 21
9.96857
  0
LINE
  8
0
 10
71.4333
 20
9.96857
 11
71.3697
 21
9.90999
  0
LINE
  8
0
 10
71.3697
 20
9.90999
 11
71.3114
 21
9.84702
  0
LINE
  8
0
 10
71.3114
 20
9.84702
 11
71.2578
 21
9.77991
  0
LINE
  8
0
 10
71.2578
 20
9.77991
 11
71.2089
 21
9.70869
  0
LINE
  8
0
 10
71.2089
 20
9.70869
 11
71.1646
 21
9.63335
  0
LINE
  8
0
 10
71.1646
 20
9.63335
 11
71.1249
 21
9.55389
  0
LINE
  8
0
 10
71.1249
 20
9.55389
 11
71.09
 21
9.47032
  0
LINE
  8
0
 10
71.09
 20
9.47032
 11
71.0597
 21
9.38263
  0
LINE
  8
0
 10
71.0597
 20
9.38263
 11
71.034
 21
9.29082
  0
LINE
  8
0
 10
71.034
 20
9.29082
 11
71.013
 21
9.19489
  0
LINE
  8
0
 10
71.013
 20
9.19489
 11
70.9967
 21
9.09485
  0
LINE
  8
0
 10
70.9967
 20
9.09485
 11
70.9851
 21
8.99068
  0
LINE
  8
0
 10
70.9851
 20
8.99068
 11
70.9781
 21
8.8824
  0
LINE
  8
0
 10
70.9781
 20
8.8824
 11
70.9757
 21
8.76999
  0
LINE
  8
0
 10
70.9757
 20
8.76999
 11
70.9757
 21
5
  0
LINE
  8
0
 10
70.9757
 20
5
 11
68.3237
 21
5
  0
LINE
  8
0
 10
61.6208
 20
4.87582
 11
61.4625
 21
4.8873
  0
LINE
  8
0
 10
61.4625
 20
4.8873
 11
61.3096
 21
4.9064
  0
LINE
  8
0
 10
61.3096
 20
4.9064
 11
61.1621
 21
4.93317
  0
LINE
  8
0
 10
61.1621
 20
4.93317
 11
61.0201
 21
4.96758
  0
LINE
  8
0
 10
61.0201
 20
4.96758
 11
60.8835
 21
5.0096
  0
LINE
  8
0
 10
60.8835
 20
5.0096
 11
60.7524
 21
5.0593
  0
LINE
  8
0
 10
60.7524
 20
5.0593
 11
60.6267
 21
5.11664
  0
LINE
  8
0
 10
60.6267
 20
5.11664
 11
60.5064
 21
5.18161
  0
LINE
  8
0
 10
60.5064
 20
5.18161
 11
60.3915
 21
5.25424
  0
LINE
  8
0
 10
60.3915
 20
5.25424
 11
60.2821
 21
5.33452
  0
LINE
  8
0
 10
60.2821
 20
5.33452
 11
60.1781
 21
5.42242
  0
LINE
  8
0
 10
60.1781
 20
5.42242
 11
60.0795
 21
5.51799
  0
LINE
  8
0
 10
60.0795
 20
5.51799
 11
59.9875
 21
5.62064
  0
LINE
  8
0
 10
59.9875
 20
5.62064
 11
59.9029
 21
5.72952
  0
LINE
  8
0
 10
59.9029
 20
5.72952
 11
59.8256
 21
5.84462
  0
LINE
  8
0
 10
59.8256
 20
5.84462
 11
59.7557
 21
5.96594
  0
LINE
  8
0
 10
59.7557
 20
5.96594
 11
59.6931
 21
6.09349
  0
LINE
  8
0
 10
59.6931
 20
6.09349
 11
59.6379
 21
6.22726
  0
LINE
  8
0
 10
59.6379
 20
6.22726
 11
59.59
 21
6.36726
  0
LINE
  8
0
 10
59.59
 20
6.36726
 11
59.5495
 21
6.51349
  0
LINE
  8
0
 10
59.5495
 20
6.51349
 11
59.5164
 21
6.66594
  0
LINE
  8
0
 10
59.5164
 20
6.66594
 11
59.4907
 21
6.82462
  0
LINE
  8
0
 10
59.4907
 20
6.82462
 11
59.4723
 21
6.98952
  0
LINE
  8
0
 10
59.4723
 20
6.98952
 11
59.4612
 21
7.16064
  0
LINE
  8
0
 10
59.4612
 20
7.16064
 11
59.4575
 21
7.338
  0
LINE
  8
0
 10
59.4575
 20
7.338
 11
59.4626
 21
7.52185
  0
LINE
  8
0
 10
59.4626
 20
7.52185
 11
59.4777
 21
7.69832
  0
LINE
  8
0
 10
59.4777
 20
7.69832
 11
59.5029
 21
7.86743
  0
LINE
  8
0
 10
59.5029
 20
7.86743
 11
59.5382
 21
8.02916
  0
LINE
  8
0
 10
59.5382
 20
8.02916
 11
59.5836
 21
8.18352
  0
LINE
  8
0
 10
59.5836
 20
8.18352
 11
59.639
 21
8.33052
  0
LINE
  8
0
 10
59.639
 20
8.33052
 11
59.7046
 21
8.47012
  0
LINE
  8
0
 10
59.7046
 20
8.47012
 11
59.7802
 21
8.60237
  0
LINE
  8
0
 10
59.7802
 20
8.60237
 11
59.8659
 21
8.72723
  0
LINE
  8
0
 10
59.8659
 20
8.72723
 11
59.9617
 21
8.84474
  0
LINE
  8
0
 10
59.9617
 20
8.84474
 11
60.0676
 21
8.95486
  0
LINE
  8
0
 10
60.0676
 20
8.95486
 11
60.1835
 21
9.05762
  0
LINE
  8
0
 10
60.1835
 20
9.05762
 11
60.3095
 21
9.153
  0
LINE
  8
0
 10
60.3095
 20
9.153
 11
60.4453
 21
9.24161
  0
LINE
  8
0
 10
60.4453
 20
9.24161
 11
60.5901
 21
9.32405
  0
LINE
  8
0
 10
60.5901
 20
9.32405
 11
60.7439
 21
9.40033
  0
LINE
  8
0
 10
60.7439
 20
9.40033
 11
60.9067
 21
9.47044
  0
LINE
  8
0
 10
60.9067
 20
9.47044
 11
61.0786
 21
9.53438
  0
LINE
  8
0
 10
61.0786
 20
9.53438
 11
61.2594
 21
9.59216
  0
LINE
  8
0
 10
61.2594
 20
9.59216
 11
61.4494
 21
9.64378
  0
LINE
  8
0
 10
61.4494
 20
9.64378
 11
61.6483
 21
9.68922
  0
LINE
  8
0
 10
61.6483
 20
9.68922
 11
61.8563
 21
9.72852
  0
LINE
  8
0
 10
61.8563
 20
9.72852
 11
62.0733
 21
9.76163
  0
LINE
  8
0
 10
62.0733
 20
9.76163
 11
62.2994
 21
9.78859
  0
LINE
  8
0
 10
62.2994
 20
9.78859
 11
62.5344
 21
9.80937
  0
LINE
  8
0
 10
62.5344
 20
9.80937
 11
62.7785
 21
9.82399
  0
LINE
  8
0
 10
62.7785
 20
9.82399
 11
64.0575
 21
9.864
  0
LINE
  8
0
 10
64.0575
 20
9.864
 11
64.0575
 21
9.974
  0
LINE
  8
0
 10
64.0575
 20
9.974
 11
64.052
 21
10.1163
  0
LINE
  8
0
 10
64.052
 20
10.1163
 11
64.0354
 21
10.2472
  0
LINE
  8
0
 10
64.0354
 20
10.2472
 11
64.0078
 21
10.3668
  0
LINE
  8
0
 10
64.0078
 20
10.3668
 11
63.9691
 21
10.4749
  0
LINE
  8
0
 10
63.9691
 20
10.4749
 11
63.9194
 21
10.5717
  0
LINE
  8
0
 10
63.9194
 20
10.5717
 11
63.8586
 21
10.6571
  0
LINE
  8
0
 10
63.8586
 20
10.6571
 11
63.7867
 21
10.7311
  0
LINE
  8
0
 10
63.7867
 20
10.7311
 11
63.7038
 21
10.7937
  0
LINE
  8
0
 10
63.7038
 20
10.7937
 11
63.6099
 21
10.8449
  0
LINE
  8
0
 10
63.6099
 20
10.8449
 11
63.5049
 21
10.8848
  0
LINE
  8
0
 10
63.5049
 20
10.8848
 11
63.3888
 21
10.9132
  0
LINE
  8
0
 10
63.3888
 20
10.9132
 11
63.2617
 21
10.9303
  0
LINE
  8
0
 10
63.2617
 20
10.9303
 11
63.1235
 21
10.936
  0
LINE
  8
0
 10
63.1235
 20
10.936
 11
62.9919
 21
10.9326
  0
LINE
  8
0
 10
62.9919
 20
10.9326
 11
62.8549
 21
10.9223
  0
LINE
  8
0
 10
62.8549
 20
10.9223
 11
62.7125
 21
10.9053
  0
LINE
  8
0
 10
62.7125
 20
10.9053
 11
62.5648
 21
10.8814
  0
LINE
  8
0
 10
62.5648
 20
10.8814
 11
62.4116
 21
10.8506
  0
LINE
  8
0
 10
62.4116
 20
10.8506
 11
62.2531
 21
10.8131
  0
LINE
  8
0
 10
62.2531
 20
10.8131
 11
62.0892
 21
10.7687
  0
LINE
  8
0
 10
62.0892
 20
10.7687
 11
61.9198
 21
10.7175
  0
LINE
  8
0
 10
61.9198
 20
10.7175
 11
61.7451
 21
10.6594
  0
LINE
  8
0
 10
61.7451
 20
10.6594
 11
61.5651
 21
10.5946
  0
LINE
  8
0
 10
61.5651
 20
10.5946
 11
61.3796
 21
10.5229
  0
LINE
  8
0
 10
61.3796
 20
10.5229
 11
61.1888
 21
10.4444
  0
LINE
  8
0
 10
61.1888
 20
10.4444
 11
60.9925
 21
10.359
  0
LINE
  8
0
 10
60.9925
 20
10.359
 11
60.2285
 21
12.114
  0
LINE
  8
0
 10
60.2285
 20
12.114
 11
60.439
 21
12.2167
  0
LINE
  8
0
 10
60.439
 20
12.2167
 11
60.6578
 21
12.3111
  0
LINE
  8
0
 10
60.6578
 20
12.3111
 11
60.8849
 21
12.3973
  0
LINE
  8
0
 10
60.8849
 20
12.3973
 11
61.1204
 21
12.4754
  0
LINE
  8
0
 10
61.1204
 20
12.4754
 11
61.3642
 21
12.5452
  0
LINE
  8
0
 10
61.3642
 20
12.5452
 11
61.6163
 21
12.6068
  0
LINE
  8
0
 10
61.6163
 20
12.6068
 11
61.8768
 21
12.6602
  0
LINE
  8
0
 10
61.8768
 20
12.6602
 11
62.1456
 21
12.7053
  0
LINE
  8
0
 10
62.1456
 20
12.7053
 11
62.4227
 21
12.7423
  0
LINE
  8
0
 10
62.4227
 20
12.7423
 11
62.7082
 21
12.771
  0
LINE
  8
0
 10
62.7082
 20
12.771
 11
63.002
 21
12.7916
  0
LINE
  8
0
 10
63.002
 20
12.7916
 11
63.3041
 21
12.8039
  0
LINE
  8
0
 10
63.3041
 20
12.8039
 11
63.6145
 21
12.808
  0
LINE
  8
0
 10
63.6145
 20
12.808
 11
63.8377
 21
12.8037
  0
LINE
  8
0
 10
63.8377
 20
12.8037
 11
64.0529
 21
12.7907
  0
LINE
  8
0
 10
64.0529
 20
12.7907
 11
64.2602
 21
12.769
  0
LINE
  8
0
 10
64.2602
 20
12.769
 11
64.4597
 21
12.7387
  0
LINE
  8
0
 10
64.4597
 20
12.7387
 11
64.6512
 21
12.6997
  0
LINE
  8
0
 10
64.6512
 20
12.6997
 11
64.8349
 21
12.6521
  0
LINE
  8
0
 10
64.8349
 20
12.6521
 11
65.0107
 21
12.5957
  0
LINE
  8
0
 10
65.0107
 20
12.5957
 11
65.1786
 21
12.5308
  0
LINE
  8
0
 10
65.1786
 20
12.5308
 11
65.3385
 21
12.4572
  0
LINE
  8
0
 10
65.3385
 20
12.4572
 11
65.4906
 21
12.3749
  0
LINE
  8
0
 10
65.4906
 20
12.3749
 11
65.6348
 21
12.2839
  0
LINE
  8
0
 10
65.6348
 20
12.2839
 11
65.7711
 21
12.1843
  0
LINE
  8
0
 10
65.7711
 20
12.1843
 11
65.8995
 21
12.076
  0
LINE
  8
0
 10
65.8995
 20
12.076
 11
66.0194
 21
11.9601
  0
LINE
  8
0
 10
66.0194
 20
11.9601
 11
66.1296
 21
11.8373
  0
LINE
  8
0
 10
66.1296
 20
11.8373
 11
66.2302
 21
11.7076
  0
LINE
  8
0
 10
66.2302
 20
11.7076
 11
66.3213
 21
11.571
  0
LINE
  8
0
 10
66.3213
 20
11.571
 11
66.4028
 21
11.4276
  0
LINE
  8
0
 10
66.4028
 20
11.4276
 11
66.4747
 21
11.2773
  0
LINE
  8
0
 10
66.4747
 20
11.2773
 11
66.537
 21
11.12
  0
LINE
  8
0
 10
66.537
 20
11.12
 11
66.5897
 21
10.9559
  0
LINE
  8
0
 10
66.5897
 20
10.9559
 11
66.6328
 21
10.7849
  0
LINE
  8
0
 10
66.6328
 20
10.7849
 11
66.6664
 21
10.607
  0
LINE
  8
0
 10
66.6664
 20
10.607
 11
66.6904
 21
10.4222
  0
LINE
  8
0
 10
66.6904
 20
10.4222
 11
66.7047
 21
10.2305
  0
LINE
  8
0
 10
66.7047
 20
10.2305
 11
66.7095
 21
10.032
  0
LINE
  8
0
 10
66.7095
 20
10.032
 11
66.7095
 21
5
  0
LINE
  8
0
 10
66.7095
 20
5
 11
64.8715
 21
5
  0
LINE
  8
0
 10
64.8715
 20
5
 11
64.3625
 21
6.02499
  0
LINE
  8
0
 10
64.3625
 20
6.02499
 11
64.3085
 21
6.02499
  0
LINE
  8
0
 10
64.3085
 20
6.02499
 11
64.2261
 21
5.92517
  0
LINE
  8
0
 10
64.2261
 20
5.92517
 11
64.1434
 21
5.83034
  0
LINE
  8
0
 10
64.1434
 20
5.83034
 11
64.0605
 21
5.74049
  0
LINE
  8
0
 10
64.0605
 20
5.74049
 11
63.9774
 21
5.65562
  0
LINE
  8
0
 10
63.9774
 20
5.65562
 11
63.894
 21
5.57573
  0
LINE
  8
0
 10
63.894
 20
5.57573
 11
63.8104
 21
5.50082
  0
LINE
  8
0
 10
63.8104
 20
5.50082
 11
63.7266
 21
5.43091
  0
LINE
  8
0
 10
63.7266
 20
5.43091
 11
63.6425
 21
5.36597
  0
LINE
  8
0
 10
63.6425
 20
5.36597
 11
63.5582
 21
5.306
  0
LINE
  8
0
 10
63.5582
 20
5.306
 11
63.4736
 21
5.25102
  0
LINE
  8
0
 10
63.4736
 20
5.25102
 11
63.3888
 21
5.20103
  0
LINE
  8
0
 10
63.3888
 20
5.20103
 11
63.3038
 21
5.15602
  0
LINE
  8
0
 10
63.3038
 20
5.15602
 11
63.2185
 21
5.116
  0
LINE
  8
0
 10
63.2185
 20
5.116
 11
63.1314
 21
5.0799
  0
LINE
  8
0
 10
63.1314
 20
5.0799
 11
63.0404
 21
5.04669
  0
LINE
  8
0
 10
63.0404
 20
5.04669
 11
62.9455
 21
5.01637
  0
LINE
  8
0
 10
62.9455
 20
5.01637
 11
62.8468
 21
4.98895
  0
LINE
  8
0
 10
62.8468
 20
4.98895
 11
62.7442
 21
4.96442
  0
LINE
  8
0
 10
62.7442
 20
4.96442
 11
62.6377
 21
4.94275
  0
LINE
  8
0
 10
62.6377
 20
4.94275
 11
62.5274
 21
4.92398
  0
LINE
  8
0
 10
62.5274
 20
4.92398
 11
62.4132
 21
4.9081
  0
LINE
  8
0
 10
62.4132
 20
4.9081
 11
62.2952
 21
4.89511
  0
LINE
  8
0
 10
62.2952
 20
4.89511
 11
62.1733
 21
4.88499
  0
LINE
  8
0
 10
62.1733
 20
4.88499
 11
62.0476
 21
4.87778
  0
LINE
  8
0
 10
62.0476
 20
4.87778
 11
61.918
 21
4.87346
  0
LINE
  8
0
 10
61.918
 20
4.87346
 11
61.7845
 21
4.87201
  0
LINE
  8
0
 10
61.7845
 20
4.87201
 11
61.6208
 21
4.87582
  0
LINE
  8
0
 10
62.9844
 20
6.74576
 11
63.0556
 21
6.75107
  0
LINE
  8
0
 10
63.0556
 20
6.75107
 11
63.1252
 21
6.75992
  0
LINE
  8
0
 10
63.1252
 20
6.75992
 11
63.1931
 21
6.77229
  0
LINE
  8
0
 10
63.1931
 20
6.77229
 11
63.2594
 21
6.78822
  0
LINE
  8
0
 10
63.2594
 20
6.78822
 11
63.3241
 21
6.80768
  0
LINE
  8
0
 10
63.3241
 20
6.80768
 11
63.3871
 21
6.83069
  0
LINE
  8
0
 10
63.3871
 20
6.83069
 11
63.4484
 21
6.85722
  0
LINE
  8
0
 10
63.4484
 20
6.85722
 11
63.5081
 21
6.8873
  0
LINE
  8
0
 10
63.5081
 20
6.8873
 11
63.5662
 21
6.92091
  0
LINE
  8
0
 10
63.5662
 20
6.92091
 11
63.6226
 21
6.95807
  0
LINE
  8
0
 10
63.6226
 20
6.95807
 11
63.6774
 21
6.99876
  0
LINE
  8
0
 10
63.6774
 20
6.99876
 11
63.7305
 21
7.043
  0
LINE
  8
0
 10
63.7305
 20
7.043
 11
63.781
 21
7.09006
  0
LINE
  8
0
 10
63.781
 20
7.09006
 11
63.8274
 21
7.13925
  0
LINE
  8
0
 10
63.8274
 20
7.13925
 11
63.8698
 21
7.19058
  0
LINE
  8
0
 10
63.8698
 20
7.19058
 11
63.9081
 21
7.24403
  0
LINE
  8
0
 10
63.9081
 20
7.24403
 11
63.9424
 21
7.29962
  0
LINE
  8
0
 10
63.9424
 20
7.29962
 11
63.9727
 21
7.35733
  0
LINE
  8
0
 10
63.9727
 20
7.35733
 11
63.9989
 21
7.41718
  0
LINE
  8
0
 10
63.9989
 20
7.41718
 11
64.0211
 21
7.47916
  0
LINE
  8
0
 10
64.0211
 20
7.47916
 11
64.0392
 21
7.54326
  0
LINE
  8
0
 10
64.0392
 20
7.54326
 11
64.0534
 21
7.6095
  0
LINE
  8
0
 10
64.0534
 20
7.6095
 11
64.0635
 21
7.67787
  0
LINE
  8
0
 10
64.0635
 20
7.67787
 11
64.0695
 21
7.74837
  0
LINE
  8
0
 10
64.0695
 20
7.74837
 11
64.0715
 21
7.821
  0
LINE
  8
0
 10
64.0715
 20
7.821
 11
64.0715
 21
8.40599
  0
LINE
  8
0
 10
64.0715
 20
8.40599
 11
63.4645
 21
8.379
  0
LINE
  8
0
 10
63.4645
 20
8.379
 11
63.2721
 21
8.36687
  0
LINE
  8
0
 10
63.2721
 20
8.36687
 11
63.095
 21
8.34467
  0
LINE
  8
0
 10
63.095
 20
8.34467
 11
62.9334
 21
8.31239
  0
LINE
  8
0
 10
62.9334
 20
8.31239
 11
62.7871
 21
8.27002
  0
LINE
  8
0
 10
62.7871
 20
8.27002
 11
62.6562
 21
8.21758
  0
LINE
  8
0
 10
62.6562
 20
8.21758
 11
62.5407
 21
8.15504
  0
LINE
  8
0
 10
62.5407
 20
8.15504
 11
62.4407
 21
8.08243
  0
LINE
  8
0
 10
62.4407
 20
8.08243
 11
62.356
 21
7.99973
  0
LINE
  8
0
 10
62.356
 20
7.99973
 11
62.2867
 21
7.90695
  0
LINE
  8
0
 10
62.2867
 20
7.90695
 11
62.2328
 21
7.80408
  0
LINE
  8
0
 10
62.2328
 20
7.80408
 11
62.1943
 21
7.69113
  0
LINE
  8
0
 10
62.1943
 20
7.69113
 11
62.1712
 21
7.5681
  0
LINE
  8
0
 10
62.1712
 20
7.5681
 11
62.1635
 21
7.435
  0
LINE
  8
0
 10
62.1635
 20
7.435
 11
62.168
 21
7.33278
  0
LINE
  8
0
 10
62.168
 20
7.33278
 11
62.1812
 21
7.23874
  0
LINE
  8
0
 10
62.1812
 20
7.23874
 11
62.2034
 21
7.15286
  0
LINE
  8
0
 10
62.2034
 20
7.15286
 11
62.2343
 21
7.07518
  0
LINE
  8
0
 10
62.2343
 20
7.07518
 11
62.2742
 21
7.00568
  0
LINE
  8
0
 10
62.2742
 20
7.00568
 11
62.3229
 21
6.94434
  0
LINE
  8
0
 10
62.3229
 20
6.94434
 11
62.3804
 21
6.89119
  0
LINE
  8
0
 10
62.3804
 20
6.89119
 11
62.4468
 21
6.84621
  0
LINE
  8
0
 10
62.4468
 20
6.84621
 11
62.522
 21
6.80942
  0
LINE
  8
0
 10
62.522
 20
6.80942
 11
62.6061
 21
6.78079
  0
LINE
  8
0
 10
62.6061
 20
6.78079
 11
62.6991
 21
6.76035
  0
LINE
  8
0
 10
62.6991
 20
6.76035
 11
62.8009
 21
6.74808
  0
LINE
  8
0
 10
62.8009
 20
6.74808
 11
62.9115
 21
6.74399
  0
LINE
  8
0
 10
62.9115
 20
6.74399
 11
62.9844
 21
6.74576
  0
LINE
  8
0
 10
48.5387
 20
4.87804
 11
48.2589
 21
4.8961
  0
LINE
  8
0
 10
48.2589
 20
4.8961
 11
47.9894
 21
4.92622
  0
LINE
  8
0
 10
47.9894
 20
4.92622
 11
47.7299
 21
4.96838
  0
LINE
  8
0
 10
47.7299
 20
4.96838
 11
47.4807
 21
5.02258
  0
LINE
  8
0
 10
47.4807
 20
5.02258
 11
47.2415
 21
5.08885
  0
LINE
  8
0
 10
47.2415
 20
5.08885
 11
47.0125
 21
5.16714
  0
LINE
  8
0
 10
47.0125
 20
5.16714
 11
46.7937
 21
5.25751
  0
LINE
  8
0
 10
46.7937
 20
5.25751
 11
46.5849
 21
5.35991
  0
LINE
  8
0
 10
46.5849
 20
5.35991
 11
46.3864
 21
5.47437
  0
LINE
  8
0
 10
46.3864
 20
5.47437
 11
46.1979
 21
5.60086
  0
LINE
  8
0
 10
46.1979
 20
5.60086
 11
46.0197
 21
5.7394
  0
LINE
  8
0
 10
46.0197
 20
5.7394
 11
45.8515
 21
5.89
  0
LINE
  8
0
 10
45.8515
 20
5.89
 11
45.6947
 21
6.05171
  0
LINE
  8
0
 10
45.6947
 20
6.05171
 11
45.5504
 21
6.22365
  0
LINE
  8
0
 10
45.5504
 20
6.22365
 11
45.4187
 21
6.40579
  0
LINE
  8
0
 10
45.4187
 20
6.40579
 11
45.2995
 21
6.59816
  0
LINE
  8
0
 10
45.2995
 20
6.59816
 11
45.1929
 21
6.80074
  0
LINE
  8
0
 10
45.1929
 20
6.80074
 11
45.0988
 21
7.01352
  0
LINE
  8
0
 10
45.0988
 20
7.01352
 11
45.0173
 21
7.23653
  0
LINE
  8
0
 10
45.0173
 20
7.23653
 11
44.9483
 21
7.46973
  0
LINE
  8
0
 10
44.9483
 20
7.46973
 11
44.8919
 21
7.71317
  0
LINE
  8
0
 10
44.8919
 20
7.71317
 11
44.8479
 21
7.9668
  0
LINE
  8
0
 10
44.8479
 20
7.9668
 11
44.8166
 21
8.23065
  0
LINE
  8
0
 10
44.8166
 20
8.23065
 11
44.7978
 21
8.50471
  0
LINE
  8
0
 10
44.7978
 20
8.50471
 11
44.7915
 21
8.78899
  0
LINE
  8
0
 10
44.7915
 20
8.78899
 11
44.7973
 21
9.08241
  0
LINE
  8
0
 10
44.7973
 20
9.08241
 11
44.8147
 21
9.36513
  0
LINE
  8
0
 10
44.8147
 20
9.36513
 11
44.8438
 21
9.63716
  0
LINE
  8
0
 10
44.8438
 20
9.63716
 11
44.8845
 21
9.89848
  0
LINE
  8
0
 10
44.8845
 20
9.89848
 11
44.9368
 21
10.1491
  0
LINE
  8
0
 10
44.9368
 20
10.1491
 11
45.0007
 21
10.389
  0
LINE
  8
0
 10
45.0007
 20
10.389
 11
45.0762
 21
10.6183
  0
LINE
  8
0
 10
45.0762
 20
10.6183
 11
45.1634
 21
10.8368
  0
LINE
  8
0
 10
45.1634
 20
10.8368
 11
45.2622
 21
11.0446
  0
LINE
  8
0
 10
45.2622
 20
11.0446
 11
45.3726
 21
11.2418
  0
LINE
  8
0
 10
45.3726
 20
11.2418
 11
45.4946
 21
11.4282
  0
LINE
  8
0
 10
45.4946
 20
11.4282
 11
45.6282
 21
11.604
  0
LINE
  8
0
 10
45.6282
 20
11.604
 11
45.7735
 21
11.769
  0
LINE
  8
0
 10
45.7735
 20
11.769
 11
45.9296
 21
11.9227
  0
LINE
  8
0
 10
45.9296
 20
11.9227
 11
46.0955
 21
12.0641
  0
LINE
  8
0
 10
46.0955
 20
12.0641
 11
46.2715
 21
12.1932
  0
LINE
  8
0
 10
46.2715
 20
12.1932
 11
46.4573
 21
12.31
  0
LINE
  8
0
 10
46.4573
 20
12.31
 11
46.6532
 21
12.4145
  0
LINE
  8
0
 10
46.6532
 20
12.4145
 11
46.8589
 21
12.5067
  0
LINE
  8
0
 10
46.8589
 20
12.5067
 11
47.0746
 21
12.5867
  0
LINE
  8
0
 10
47.0746
 20
12.5867
 11
47.3002
 21
12.6543
  0
LINE
  8
0
 10
47.3002
 20
12.6543
 11
47.5358
 21
12.7096
  0
LINE
  8
0
 10
47.5358
 20
12.7096
 11
47.7813
 21
12.7527
  0
LINE
  8
0
 10
47.7813
 20
12.7527
 11
48.0368
 21
12.7834
  0
LINE
  8
0
 10
48.0368
 20
12.7834
 11
48.3022
 21
12.8018
  0
LINE
  8
0
 10
48.3022
 20
12.8018
 11
48.5775
 21
12.808
  0
LINE
  8
0
 10
48.5775
 20
12.808
 11
48.8396
 21
12.8027
  0
LINE
  8
0
 10
48.8396
 20
12.8027
 11
49.0924
 21
12.7866
  0
LINE
  8
0
 10
49.0924
 20
12.7866
 11
49.3358
 21
12.76
  0
LINE
  8
0
 10
49.3358
 20
12.76
 11
49.5699
 21
12.7226
  0
LINE
  8
0
 10
49.5699
 20
12.7226
 11
49.7946
 21
12.6746
  0
LINE
  8
0
 10
49.7946
 20
12.6746
 11
50.0101
 21
12.6158
  0
LINE
  8
0
 10
50.0101
 20
12.6158
 11
50.2161
 21
12.5465
  0
LINE
  8
0
 10
50.2161
 20
12.5465
 11
50.4129
 21
12.4664
  0
LINE
  8
0
 10
50.4129
 20
12.4664
 11
50.6003
 21
12.3757
  0
LINE
  8
0
 10
50.6003
 20
12.3757
 11
50.7783
 21
12.2743
  0
LINE
  8
0
 10
50.7783
 20
12.2743
 11
50.9471
 21
12.1622
  0
LINE
  8
0
 10
50.9471
 20
12.1622
 11
51.1064
 21
12.0394
  0
LINE
  8
0
 10
51.1064
 20
12.0394
 11
51.2565
 21
11.906
  0
LINE
  8
0
 10
51.2565
 20
11.906
 11
51.3963
 21
11.7625
  0
LINE
  8
0
 10
51.3963
 20
11.7625
 11
51.5249
 21
11.6097
  0
LINE
  8
0
 10
51.5249
 20
11.6097
 11
51.6423
 21
11.4474
  0
LINE
  8
0
 10
51.6423
 20
11.4474
 11
51.7486
 21
11.2757
  0
LINE
  8
0
 10
51.7486
 20
11.2757
 11
51.8436
 21
11.0947
  0
LINE
  8
0
 10
51.8436
 20
11.0947
 11
51.9275
 21
10.9042
  0
LINE
  8
0
 10
51.9275
 20
10.9042
 11
52.0002
 21
10.7044
  0
LINE
  8
0
 10
52.0002
 20
10.7044
 11
52.0617
 21
10.4951
  0
LINE
  8
0
 10
52.0617
 20
10.4951
 11
52.112
 21
10.2765
  0
LINE
  8
0
 10
52.112
 20
10.2765
 11
52.1512
 21
10.0485
  0
LINE
  8
0
 10
52.1512
 20
10.0485
 11
52.1791
 21
9.81105
  0
LINE
  8
0
 10
52.1791
 20
9.81105
 11
52.1959
 21
9.56422
  0
LINE
  8
0
 10
52.1959
 20
9.56422
 11
52.2015
 21
9.308
  0
LINE
  8
0
 10
52.2015
 20
9.308
 11
52.2015
 21
8.13199
  0
LINE
  8
0
 10
52.2015
 20
8.13199
 11
47.4705
 21
8.13199
  0
LINE
  8
0
 10
47.4705
 20
8.13199
 11
47.4771
 21
8.03471
  0
LINE
  8
0
 10
47.4771
 20
8.03471
 11
47.4887
 21
7.9407
  0
LINE
  8
0
 10
47.4887
 20
7.9407
 11
47.5051
 21
7.84998
  0
LINE
  8
0
 10
47.5051
 20
7.84998
 11
47.5265
 21
7.76253
  0
LINE
  8
0
 10
47.5265
 20
7.76253
 11
47.5528
 21
7.67836
  0
LINE
  8
0
 10
47.5528
 20
7.67836
 11
47.584
 21
7.59746
  0
LINE
  8
0
 10
47.584
 20
7.59746
 11
47.6202
 21
7.51985
  0
LINE
  8
0
 10
47.6202
 20
7.51985
 11
47.6613
 21
7.44551
  0
LINE
  8
0
 10
47.6613
 20
7.44551
 11
47.7073
 21
7.37445
  0
LINE
  8
0
 10
47.7073
 20
7.37445
 11
47.7582
 21
7.30667
  0
LINE
  8
0
 10
47.7582
 20
7.30667
 11
47.814
 21
7.24216
  0
LINE
  8
0
 10
47.814
 20
7.24216
 11
47.8748
 21
7.18094
  0
LINE
  8
0
 10
47.8748
 20
7.18094
 11
47.9405
 21
7.12299
  0
LINE
  8
0
 10
47.9405
 20
7.12299
 11
48.0107
 21
7.06885
  0
LINE
  8
0
 10
48.0107
 20
7.06885
 11
48.0847
 21
7.01904
  0
LINE
  8
0
 10
48.0847
 20
7.01904
 11
48.1625
 21
6.97356
  0
LINE
  8
0
 10
48.1625
 20
6.97356
 11
48.244
 21
6.93242
  0
LINE
  8
0
 10
48.244
 20
6.93242
 11
48.3294
 21
6.8956
  0
LINE
  8
0
 10
48.3294
 20
6.8956
 11
48.4185
 21
6.86311
  0
LINE
  8
0
 10
48.4185
 20
6.86311
 11
48.5114
 21
6.83496
  0
LINE
  8
0
 10
48.5114
 20
6.83496
 11
48.6082
 21
6.81114
  0
LINE
  8
0
 10
48.6082
 20
6.81114
 11
48.7086
 21
6.79164
  0
LINE
  8
0
 10
48.7086
 20
6.79164
 11
48.8129
 21
6.77649
  0
LINE
  8
0
 10
48.8129
 20
6.77649
 11
48.921
 21
6.76566
  0
LINE
  8
0
 10
48.921
 20
6.76566
 11
49.0329
 21
6.75916
  0
LINE
  8
0
 10
49.0329
 20
6.75916
 11
49.1485
 21
6.75699
  0
LINE
  8
0
 10
49.1485
 20
6.75699
 11
49.3606
 21
6.76012
  0
LINE
  8
0
 10
49.3606
 20
6.76012
 11
49.5673
 21
6.76949
  0
LINE
  8
0
 10
49.5673
 20
6.76949
 11
49.7687
 21
6.78511
  0
LINE
  8
0
 10
49.7687
 20
6.78511
 11
49.9648
 21
6.80698
  0
LINE
  8
0
 10
49.9648
 20
6.80698
 11
50.1555
 21
6.8351
  0
LINE
  8
0
 10
50.1555
 20
6.8351
 11
50.3408
 21
6.86946
  0
LINE
  8
0
 10
50.3408
 20
6.86946
 11
50.5221
 21
6.9104
  0
LINE
  8
0
 10
50.5221
 20
6.9104
 11
50.7068
 21
6.95987
  0
LINE
  8
0
 10
50.7068
 20
6.95987
 11
50.8961
 21
7.01819
  0
LINE
  8
0
 10
50.8961
 20
7.01819
 11
51.0902
 21
7.08536
  0
LINE
  8
0
 10
51.0902
 20
7.08536
 11
51.289
 21
7.16139
  0
LINE
  8
0
 10
51.289
 20
7.16139
 11
51.4924
 21
7.24626
  0
LINE
  8
0
 10
51.4924
 20
7.24626
 11
51.7005
 21
7.34
  0
LINE
  8
0
 10
51.7005
 20
7.34
 11
51.7005
 21
5.435
  0
LINE
  8
0
 10
51.7005
 20
5.435
 11
51.6044
 21
5.38708
  0
LINE
  8
0
 10
51.6044
 20
5.38708
 11
51.5078
 21
5.34151
  0
LINE
  8
0
 10
51.5078
 20
5.34151
 11
51.4108
 21
5.29825
  0
LINE
  8
0
 10
51.4108
 20
5.29825
 11
51.3132
 21
5.25734
  0
LINE
  8
0
 10
51.3132
 20
5.25734
 11
51.2152
 21
5.21875
  0
LINE
  8
0
 10
51.2152
 20
5.21875
 11
51.1167
 21
5.1825
  0
LINE
  8
0
 10
51.1167
 20
5.1825
 11
51.0177
 21
5.14857
  0
LINE
  8
0
 10
51.0177
 20
5.14857
 11
50.9182
 21
5.11697
  0
LINE
  8
0
 10
50.9182
 20
5.11697
 11
50.8182
 21
5.08772
  0
LINE
  8
0
 10
50.8182
 20
5.08772
 11
50.7178
 21
5.06079
  0
LINE
  8
0
 10
50.7178
 20
5.06079
 11
50.6168
 21
5.03619
  0
LINE
  8
0
 10
50.6168
 20
5.03619
 11
50.5154
 21
5.01393
  0
LINE
  8
0
 10
50.5154
 20
5.01393
 11
50.4135
 21
4.994
  0
LINE
  8
0
 10
50.4135
 20
4.994
 11
50.3098
 21
4.97597
  0
LINE
  8
0
 10
50.3098
 20
4.97597
 11
50.0934
 21
4.9442
  0
LINE
  8
0
 10
50.0934
 20
4.9442
 11
49.8647
 21
4.91821
  0
LINE
  8
0
 10
49.8647
 20
4.91821
 11
49.6239
 21
4.89799
  0
LINE
  8
0
 10
49.6239
 20
4.89799
 11
49.3709
 21
4.88356
  0
LINE
  8
0
 10
49.3709
 20
4.88356
 11
49.1058
 21
4.87489
  0
LINE
  8
0
 10
49.1058
 20
4.87489
 11
48.8285
 21
4.87201
  0
LINE
  8
0
 10
48.8285
 20
4.87201
 11
48.5387
 21
4.87804
  0
LINE
  8
0
 10
49.7906
 20
9.883
 11
49.7834
 21
9.96339
  0
LINE
  8
0
 10
49.7834
 20
9.96339
 11
49.7728
 21
10.0412
  0
LINE
  8
0
 10
49.7728
 20
10.0412
 11
49.7587
 21
10.1164
  0
LINE
  8
0
 10
49.7587
 20
10.1164
 11
49.7413
 21
10.189
  0
LINE
  8
0
 10
49.7413
 20
10.189
 11
49.7204
 21
10.259
  0
LINE
  8
0
 10
49.7204
 20
10.259
 11
49.6962
 21
10.3264
  0
LINE
  8
0
 10
49.6962
 20
10.3264
 11
49.6686
 21
10.3911
  0
LINE
  8
0
 10
49.6686
 20
10.3911
 11
49.6376
 21
10.4533
  0
LINE
  8
0
 10
49.6376
 20
10.4533
 11
49.6031
 21
10.5129
  0
LINE
  8
0
 10
49.6031
 20
10.5129
 11
49.5653
 21
10.5699
  0
LINE
  8
0
 10
49.5653
 20
10.5699
 11
49.5241
 21
10.6242
  0
LINE
  8
0
 10
49.5241
 20
10.6242
 11
49.4795
 21
10.676
  0
LINE
  8
0
 10
49.4795
 20
10.676
 11
49.4321
 21
10.7245
  0
LINE
  8
0
 10
49.4321
 20
10.7245
 11
49.3823
 21
10.7691
  0
LINE
  8
0
 10
49.3823
 20
10.7691
 11
49.3301
 21
10.8099
  0
LINE
  8
0
 10
49.3301
 20
10.8099
 11
49.2754
 21
10.8468
  0
LINE
  8
0
 10
49.2754
 20
10.8468
 11
49.2183
 21
10.8798
  0
LINE
  8
0
 10
49.2183
 20
10.8798
 11
49.1587
 21
10.9089
  0
LINE
  8
0
 10
49.1587
 20
10.9089
 11
49.0967
 21
10.9341
  0
LINE
  8
0
 10
49.0967
 20
10.9341
 11
49.0323
 21
10.9555
  0
LINE
  8
0
 10
49.0323
 20
10.9555
 11
48.9654
 21
10.9729
  0
LINE
  8
0
 10
48.9654
 20
10.9729
 11
48.8961
 21
10.9865
  0
LINE
  8
0
 10
48.8961
 20
10.9865
 11
48.8243
 21
10.9962
  0
LINE
  8
0
 10
48.8243
 20
10.9962
 11
48.7501
 21
11.002
  0
LINE
  8
0
 10
48.7501
 20
11.002
 11
48.6735
 21
11.004
  0
LINE
  8
0
 10
48.6735
 20
11.004
 11
48.6026
 21
11.0023
  0
LINE
  8
0
 10
48.6026
 20
11.0023
 11
48.5334
 21
10.9971
  0
LINE
  8
0
 10
48.5334
 20
10.9971
 11
48.4661
 21
10.9885
  0
LINE
  8
0
 10
48.4661
 20
10.9885
 11
48.4006
 21
10.9764
  0
LINE
  8
0
 10
48.4006
 20
10.9764
 11
48.3369
 21
10.9609
  0
LINE
  8
0
 10
48.3369
 20
10.9609
 11
48.275
 21
10.942
  0
LINE
  8
0
 10
48.275
 20
10.942
 11
48.2149
 21
10.9196
  0
LINE
  8
0
 10
48.2149
 20
10.9196
 11
48.1567
 21
10.8938
  0
LINE
  8
0
 10
48.1567
 20
10.8938
 11
48.1002
 21
10.8645
  0
LINE
  8
0
 10
48.1002
 20
10.8645
 11
48.0456
 21
10.8318
  0
LINE
  8
0
 10
48.0456
 20
10.8318
 11
47.9927
 21
10.7956
  0
LINE
  8
0
 10
47.9927
 20
10.7956
 11
47.9417
 21
10.756
  0
LINE
  8
0
 10
47.9417
 20
10.756
 11
47.8925
 21
10.713
  0
LINE
  8
0
 10
47.8925
 20
10.713
 11
47.8457
 21
10.6663
  0
LINE
  8
0
 10
47.8457
 20
10.6663
 11
47.802
 21
10.6156
  0
LINE
  8
0
 10
47.802
 20
10.6156
 11
47.7614
 21
10.5611
  0
LINE
  8
0
 10
47.7614
 20
10.5611
 11
47.7239
 21
10.5026
  0
LINE
  8
0
 10
47.7239
 20
10.5026
 11
47.6894
 21
10.4402
  0
LINE
  8
0
 10
47.6894
 20
10.4402
 11
47.658
 21
10.3739
  0
LINE
  8
0
 10
47.658
 20
10.3739
 11
47.6297
 21
10.3036
  0
LINE
  8
0
 10
47.6297
 20
10.3036
 11
47.6045
 21
10.2295
  0
LINE
  8
0
 10
47.6045
 20
10.2295
 11
47.5824
 21
10.1514
  0
LINE
  8
0
 10
47.5824
 20
10.1514
 11
47.5633
 21
10.0694
  0
LINE
  8
0
 10
47.5633
 20
10.0694
 11
47.5473
 21
9.98354
  0
LINE
  8
0
 10
47.5473
 20
9.98354
 11
47.5343
 21
9.89372
  0
LINE
  8
0
 10
47.5343
 20
9.89372
 11
47.5245
 21
9.79999
  0
LINE
  8
0
 10
47.5245
 20
9.79999
 11
49.7945
 21
9.79999
  0
LINE
  8
0
 10
49.7945
 20
9.79999
 11
49.7906
 21
9.883
  0
LINE
  8
0
 10
84.1863
 20
1.67268
 11
84.0225
 21
1.67813
  0
LINE
  8
0
 10
84.0225
 20
1.67813
 11
83.8575
 21
1.68903
  0
LINE
  8
0
 10
83.8575
 20
1.68903
 11
83.6912
 21
1.70535
  0
LINE
  8
0
 10
83.6912
 20
1.70535
 11
83.5237
 21
1.72713
  0
LINE
  8
0
 10
83.5237
 20
1.72713
 11
83.3548
 21
1.75435
  0
LINE
  8
0
 10
83.3548
 20
1.75435
 11
83.1847
 21
1.787
  0
LINE
  8
0
 10
83.1847
 20
1.787
 11
83.1847
 21
3.87001
  0
LINE
  8
0
 10
83.1847
 20
3.87001
 11
83.2972
 21
3.84671
  0
LINE
  8
0
 10
83.2972
 20
3.84671
 11
83.4145
 21
3.82732
  0
LINE
  8
0
 10
83.4145
 20
3.82732
 11
83.5367
 21
3.81178
  0
LINE
  8
0
 10
83.5367
 20
3.81178
 11
83.6635
 21
3.80014
  0
LINE
  8
0
 10
83.6635
 20
3.80014
 11
83.7952
 21
3.79237
  0
LINE
  8
0
 10
83.7952
 20
3.79237
 11
83.9317
 21
3.7885
  0
LINE
  8
0
 10
83.9317
 20
3.7885
 11
84.0551
 21
3.7888
  0
LINE
  8
0
 10
84.0551
 20
3.7888
 11
84.159
 21
3.7952
  0
LINE
  8
0
 10
84.159
 20
3.7952
 11
84.2587
 21
3.80798
  0
LINE
  8
0
 10
84.2587
 20
3.80798
 11
84.3542
 21
3.82715
  0
LINE
  8
0
 10
84.3542
 20
3.82715
 11
84.4455
 21
3.85271
  0
LINE
  8
0
 10
84.4455
 20
3.85271
 11
84.5327
 21
3.88466
  0
LINE
  8
0
 10
84.5327
 20
3.88466
 11
84.6157
 21
3.923
  0
LINE
  8
0
 10
84.6157
 20
3.923
 11
84.695
 21
3.96718
  0
LINE
  8
0
 10
84.695
 20
3.96718
 11
84.7711
 21
4.01659
  0
LINE
  8
0
 10
84.7711
 20
4.01659
 11
84.8439
 21
4.07127
  0
LINE
  8
0
 10
84.8439
 20
4.07127
 11
84.9136
 21
4.1312
  0
LINE
  8
0
 10
84.9136
 20
4.1312
 11
84.98
 21
4.19638
  0
LINE
  8
0
 10
84.98
 20
4.19638
 11
85.0433
 21
4.26682
  0
LINE
  8
0
 10
85.0433
 20
4.26682
 11
85.104
 21
4.3437
  0
LINE
  8
0
 10
85.104
 20
4.3437
 11
85.1656
 21
4.43422
  0
LINE
  8
0
 10
85.1656
 20
4.43422
 11
85.2284
 21
4.53954
  0
LINE
  8
0
 10
85.2284
 20
4.53954
 11
85.2926
 21
4.65968
  0
LINE
  8
0
 10
85.2926
 20
4.65968
 11
85.358
 21
4.79465
  0
LINE
  8
0
 10
85.358
 20
4.79465
 11
85.4247
 21
4.94441
  0
LINE
  8
0
 10
85.4247
 20
4.94441
 11
85.4927
 21
5.10899
  0
LINE
  8
0
 10
85.4927
 20
5.10899
 11
82.4787
 21
12.68
  0
LINE
  8
0
 10
82.4787
 20
12.68
 11
85.2727
 21
12.68
  0
LINE
  8
0
 10
85.2727
 20
12.68
 11
86.5647
 21
8.27499
  0
LINE
  8
0
 10
86.5647
 20
8.27499
 11
86.5922
 21
8.16518
  0
LINE
  8
0
 10
86.5922
 20
8.16518
 11
86.6168
 21
8.04863
  0
LINE
  8
0
 10
86.6168
 20
8.04863
 11
86.6485
 21
7.86121
  0
LINE
  8
0
 10
86.6485
 20
7.86121
 11
86.6738
 21
7.65866
  0
LINE
  8
0
 10
86.6738
 20
7.65866
 11
86.6927
 21
7.44099
  0
LINE
  8
0
 10
86.6927
 20
7.44099
 11
86.7467
 21
7.44099
  0
LINE
  8
0
 10
86.7467
 20
7.44099
 11
86.7744
 21
7.65082
  0
LINE
  8
0
 10
86.7744
 20
7.65082
 11
86.8078
 21
7.84828
  0
LINE
  8
0
 10
86.8078
 20
7.84828
 11
86.8468
 21
8.0334
  0
LINE
  8
0
 10
86.8468
 20
8.0334
 11
86.8915
 21
8.20615
  0
LINE
  8
0
 10
86.8915
 20
8.20615
 11
88.2347
 21
12.68
  0
LINE
  8
0
 10
88.2347
 20
12.68
 11
90.9407
 21
12.68
  0
LINE
  8
0
 10
90.9407
 20
12.68
 11
87.9147
 21
4.51701
  0
LINE
  8
0
 10
87.9147
 20
4.51701
 11
87.8237
 21
4.28273
  0
LINE
  8
0
 10
87.8237
 20
4.28273
 11
87.7295
 21
4.05928
  0
LINE
  8
0
 10
87.7295
 20
4.05928
 11
87.6322
 21
3.84666
  0
LINE
  8
0
 10
87.6322
 20
3.84666
 11
87.5317
 21
3.64487
  0
LINE
  8
0
 10
87.5317
 20
3.64487
 11
87.4279
 21
3.4539
  0
LINE
  8
0
 10
87.4279
 20
3.4539
 11
87.3211
 21
3.27376
  0
LINE
  8
0
 10
87.3211
 20
3.27376
 11
87.211
 21
3.10446
  0
LINE
  8
0
 10
87.211
 20
3.10446
 11
87.0977
 21
2.94598
  0
LINE
  8
0
 10
87.0977
 20
2.94598
 11
86.9813
 21
2.79832
  0
LINE
  8
0
 10
86.9813
 20
2.79832
 11
86.8616
 21
2.6615
  0
LINE
  8
0
 10
86.8616
 20
2.6615
 11
86.7388
 21
2.53551
  0
LINE
  8
0
 10
86.7388
 20
2.53551
 11
86.6128
 21
2.42035
  0
LINE
  8
0
 10
86.6128
 20
2.42035
 11
86.4837
 21
2.31601
  0
LINE
  8
0
 10
86.4837
 20
2.31601
 11
86.35
 21
2.22075
  0
LINE
  8
0
 10
86.35
 20
2.22075
 11
86.2102
 21
2.1331
  0
LINE
  8
0
 10
86.2102
 20
2.1331
 11
86.0642
 21
2.05307
  0
LINE
  8
0
 10
86.0642
 20
2.05307
 11
85.9122
 21
1.98067
  0
LINE
  8
0
 10
85.9122
 20
1.98067
 11
85.754
 21
1.91589
  0
LINE
  8
0
 10
85.754
 20
1.91589
 11
85.5896
 21
1.85873
  0
LINE
  8
0
 10
85.5896
 20
1.85873
 11
85.4192
 21
1.80919
  0
LINE
  8
0
 10
85.4192
 20
1.80919
 11
85.2426
 21
1.76727
  0
LINE
  8
0
 10
85.2426
 20
1.76727
 11
85.0599
 21
1.73297
  0
LINE
  8
0
 10
85.0599
 20
1.73297
 11
84.871
 21
1.7063
  0
LINE
  8
0
 10
84.871
 20
1.7063
 11
84.676
 21
1.68726
  0
LINE
  8
0
 10
84.676
 20
1.68726
 11
84.4749
 21
1.67581
  0
LINE
  8
0
 10
84.4749
 20
1.67581
 11
84.2677
 21
1.67201
  0
LINE
  8
0
 10
84.2677
 20
1.67201
 11
84.1863
 21
1.67268
  0
LINE
  8
0
 10
29.7787
 20
4.87636
 11
29.5942
 21
4.8894
  0
LINE
  8
0
 10
29.5942
 20
4.8894
 11
29.4164
 21
4.91115
  0
LINE
  8
0
 10
29.4164
 20
4.91115
 11
29.2451
 21
4.94159
  0
LINE
  8
0
 10
29.2451
 20
4.94159
 11
29.0806
 21
4.98073
  0
LINE
  8
0
 10
29.0806
 20
4.98073
 11
28.9226
 21
5.02856
  0
LINE
  8
0
 10
28.9226
 20
5.02856
 11
28.7713
 21
5.0851
  0
LINE
  8
0
 10
28.7713
 20
5.0851
 11
28.6266
 21
5.15033
  0
LINE
  8
0
 10
28.6266
 20
5.15033
 11
28.4886
 21
5.22427
  0
LINE
  8
0
 10
28.4886
 20
5.22427
 11
28.3572
 21
5.3069
  0
LINE
  8
0
 10
28.3572
 20
5.3069
 11
28.2325
 21
5.39824
  0
LINE
  8
0
 10
28.2325
 20
5.39824
 11
28.1144
 21
5.49826
  0
LINE
  8
0
 10
28.1144
 20
5.49826
 11
28.0029
 21
5.60699
  0
LINE
  8
0
 10
28.0029
 20
5.60699
 11
27.899
 21
5.72365
  0
LINE
  8
0
 10
27.899
 20
5.72365
 11
27.8035
 21
5.84747
  0
LINE
  8
0
 10
27.8035
 20
5.84747
 11
27.7163
 21
5.97844
  0
LINE
  8
0
 10
27.7163
 20
5.97844
 11
27.6373
 21
6.11658
  0
LINE
  8
0
 10
27.6373
 20
6.11658
 11
27.5667
 21
6.26187
  0
LINE
  8
0
 10
27.5667
 20
6.26187
 11
27.5044
 21
6.41434
  0
LINE
  8
0
 10
27.5044
 20
6.41434
 11
27.4504
 21
6.57394
  0
LINE
  8
0
 10
27.4504
 20
6.57394
 11
27.4047
 21
6.74072
  0
LINE
  8
0
 10
27.4047
 20
6.74072
 11
27.3674
 21
6.91466
  0
LINE
  8
0
 10
27.3674
 20
6.91466
 11
27.3383
 21
7.09575
  0
LINE
  8
0
 10
27.3383
 20
7.09575
 11
27.3175
 21
7.284
  0
LINE
  8
0
 10
27.3175
 20
7.284
 11
27.305
 21
7.47942
  0
LINE
  8
0
 10
27.305
 20
7.47942
 11
27.3009
 21
7.68199
  0
LINE
  8
0
 10
27.3009
 20
7.68199
 11
27.3009
 21
12.68
  0
LINE
  8
0
 10
27.3009
 20
12.68
 11
29.9519
 21
12.68
  0
LINE
  8
0
 10
29.9519
 20
12.68
 11
29.9519
 21
8.48999
  0
LINE
  8
0
 10
29.9519
 20
8.48999
 11
29.9531
 21
8.37662
  0
LINE
  8
0
 10
29.9531
 20
8.37662
 11
29.9569
 21
8.26755
  0
LINE
  8
0
 10
29.9569
 20
8.26755
 11
29.9632
 21
8.16281
  0
LINE
  8
0
 10
29.9632
 20
8.16281
 11
29.972
 21
8.06239
  0
LINE
  8
0
 10
29.972
 20
8.06239
 11
29.9832
 21
7.96629
  0
LINE
  8
0
 10
29.9832
 20
7.96629
 11
29.997
 21
7.87451
  0
LINE
  8
0
 10
29.997
 20
7.87451
 11
30.0134
 21
7.78705
  0
LINE
  8
0
 10
30.0134
 20
7.78705
 11
30.0322
 21
7.7039
  0
LINE
  8
0
 10
30.0322
 20
7.7039
 11
30.0535
 21
7.62509
  0
LINE
  8
0
 10
30.0535
 20
7.62509
 11
30.0773
 21
7.55058
  0
LINE
  8
0
 10
30.0773
 20
7.55058
 11
30.1037
 21
7.48041
  0
LINE
  8
0
 10
30.1037
 20
7.48041
 11
30.1325
 21
7.41454
  0
LINE
  8
0
 10
30.1325
 20
7.41454
 11
30.1639
 21
7.353
  0
LINE
  8
0
 10
30.1639
 20
7.353
 11
30.1981
 21
7.2959
  0
LINE
  8
0
 10
30.1981
 20
7.2959
 11
30.2355
 21
7.24336
  0
LINE
  8
0
 10
30.2355
 20
7.24336
 11
30.2762
 21
7.19539
  0
LINE
  8
0
 10
30.2762
 20
7.19539
 11
30.3201
 21
7.15199
  0
LINE
  8
0
 10
30.3201
 20
7.15199
 11
30.3672
 21
7.11317
  0
LINE
  8
0
 10
30.3672
 20
7.11317
 11
30.4175
 21
7.0789
  0
LINE
  8
0
 10
30.4175
 20
7.0789
 11
30.4711
 21
7.04921
  0
LINE
  8
0
 10
30.4711
 20
7.04921
 11
30.5278
 21
7.02409
  0
LINE
  8
0
 10
30.5278
 20
7.02409
 11
30.5878
 21
7.00354
  0
LINE
  8
0
 10
30.5878
 20
7.00354
 11
30.651
 21
6.98755
  0
LINE
  8
0
 10
30.651
 20
6.98755
 11
30.7174
 21
6.97614
  0
LINE
  8
0
 10
30.7174
 20
6.97614
 11
30.787
 21
6.96927
  0
LINE
  8
0
 10
30.787
 20
6.96927
 11
30.8599
 21
6.967
  0
LINE
  8
0
 10
30.8599
 20
6.967
 11
30.962
 21
6.97017
  0
LINE
  8
0
 10
30.962
 20
6.97017
 11
31.0596
 21
6.97972
  0
LINE
  8
0
 10
31.0596
 20
6.97972
 11
31.1525
 21
6.99564
  0
LINE
  8
0
 10
31.1525
 20
6.99564
 11
31.2408
 21
7.01793
  0
LINE
  8
0
 10
31.2408
 20
7.01793
 11
31.3245
 21
7.04659
  0
LINE
  8
0
 10
31.3245
 20
7.04659
 11
31.4036
 21
7.08159
  0
LINE
  8
0
 10
31.4036
 20
7.08159
 11
31.478
 21
7.12299
  0
LINE
  8
0
 10
31.478
 20
7.12299
 11
31.5479
 21
7.17073
  0
LINE
  8
0
 10
31.5479
 20
7.17073
 11
31.6131
 21
7.22485
  0
LINE
  8
0
 10
31.6131
 20
7.22485
 11
31.6737
 21
7.28534
  0
LINE
  8
0
 10
31.6737
 20
7.28534
 11
31.7297
 21
7.35219
  0
LINE
  8
0
 10
31.7297
 20
7.35219
 11
31.7811
 21
7.4254
  0
LINE
  8
0
 10
31.7811
 20
7.4254
 11
31.8279
 21
7.50499
  0
LINE
  8
0
 10
31.8279
 20
7.50499
 11
31.8706
 21
7.59215
  0
LINE
  8
0
 10
31.8706
 20
7.59215
 11
31.91
 21
7.6881
  0
LINE
  8
0
 10
31.91
 20
7.6881
 11
31.9459
 21
7.79282
  0
LINE
  8
0
 10
31.9459
 20
7.79282
 11
31.9784
 21
7.90631
  0
LINE
  8
0
 10
31.9784
 20
7.90631
 11
32.0074
 21
8.02859
  0
LINE
  8
0
 10
32.0074
 20
8.02859
 11
32.0331
 21
8.15967
  0
LINE
  8
0
 10
32.0331
 20
8.15967
 11
32.0553
 21
8.29951
  0
LINE
  8
0
 10
32.0553
 20
8.29951
 11
32.0741
 21
8.44814
  0
LINE
  8
0
 10
32.0741
 20
8.44814
 11
32.0895
 21
8.60555
  0
LINE
  8
0
 10
32.0895
 20
8.60555
 11
32.1015
 21
8.77174
  0
LINE
  8
0
 10
32.1015
 20
8.77174
 11
32.11
 21
8.9467
  0
LINE
  8
0
 10
32.11
 20
8.9467
 11
32.1152
 21
9.13046
  0
LINE
  8
0
 10
32.1152
 20
9.13046
 11
32.1169
 21
9.323
  0
LINE
  8
0
 10
32.1169
 20
9.323
 11
32.1169
 21
12.68
  0
LINE
  8
0
 10
32.1169
 20
12.68
 11
34.7679
 21
12.68
  0
LINE
  8
0
 10
34.7679
 20
12.68
 11
34.7679
 21
5
  0
LINE
  8
0
 10
34.7679
 20
5
 11
32.7679
 21
5
  0
LINE
  8
0
 10
32.7679
 20
5
 11
32.4359
 21
5.96199
  0
LINE
  8
0
 10
32.4359
 20
5.96199
 11
32.2799
 21
5.96199
  0
LINE
  8
0
 10
32.2799
 20
5.96199
 11
32.2274
 21
5.88222
  0
LINE
  8
0
 10
32.2274
 20
5.88222
 11
32.1719
 21
5.80537
  0
LINE
  8
0
 10
32.1719
 20
5.80537
 11
32.1133
 21
5.73146
  0
LINE
  8
0
 10
32.1133
 20
5.73146
 11
32.0516
 21
5.66046
  0
LINE
  8
0
 10
32.0516
 20
5.66046
 11
31.9868
 21
5.59238
  0
LINE
  8
0
 10
31.9868
 20
5.59238
 11
31.919
 21
5.52722
  0
LINE
  8
0
 10
31.919
 20
5.52722
 11
31.848
 21
5.465
  0
LINE
  8
0
 10
31.848
 20
5.465
 11
31.774
 21
5.40569
  0
LINE
  8
0
 10
31.774
 20
5.40569
 11
31.697
 21
5.3493
  0
LINE
  8
0
 10
31.697
 20
5.3493
 11
31.6168
 21
5.29584
  0
LINE
  8
0
 10
31.6168
 20
5.29584
 11
31.5336
 21
5.2453
  0
LINE
  8
0
 10
31.5336
 20
5.2453
 11
31.4473
 21
5.19768
  0
LINE
  8
0
 10
31.4473
 20
5.19768
 11
31.3579
 21
5.153
  0
LINE
  8
0
 10
31.3579
 20
5.153
 11
31.2657
 21
5.11142
  0
LINE
  8
0
 10
31.2657
 20
5.11142
 11
31.1712
 21
5.07318
  0
LINE
  8
0
 10
31.1712
 20
5.07318
 11
31.0741
 21
5.03827
  0
LINE
  8
0
 10
31.0741
 20
5.03827
 11
30.9747
 21
5.00667
  0
LINE
  8
0
 10
30.9747
 20
5.00667
 11
30.8728
 21
4.97842
  0
LINE
  8
0
 10
30.8728
 20
4.97842
 11
30.7685
 21
4.95348
  0
LINE
  8
0
 10
30.7685
 20
4.95348
 11
30.6617
 21
4.93187
  0
LINE
  8
0
 10
30.6617
 20
4.93187
 11
30.5525
 21
4.91357
  0
LINE
  8
0
 10
30.5525
 20
4.91357
 11
30.4408
 21
4.89861
  0
LINE
  8
0
 10
30.4408
 20
4.89861
 11
30.3268
 21
4.88698
  0
LINE
  8
0
 10
30.3268
 20
4.88698
 11
30.2102
 21
4.87866
  0
LINE
  8
0
 10
30.2102
 20
4.87866
 11
30.0913
 21
4.87367
  0
LINE
  8
0
 10
30.0913
 20
4.87367
 11
29.9699
 21
4.87201
  0
LINE
  8
0
 10
29.9699
 20
4.87201
 11
29.7787
 21
4.87636
  0
LINE
  8
0
 10
4.93719
 20
8.50197
 11
4.87466
 21
8.50787
  0
LINE
  8
0
 10
4.87466
 20
8.50787
 11
4.81261
 21
8.5177
  0
LINE
  8
0
 10
4.81261
 20
8.5177
 11
4.7513
 21
8.5314
  0
LINE
  8
0
 10
4.7513
 20
8.5314
 11
4.69098
 21
8.54893
  0
LINE
  8
0
 10
4.69098
 20
8.54893
 11
4.63187
 21
8.57022
  0
LINE
  8
0
 10
4.63187
 20
8.57022
 11
4.57422
 21
8.59517
  0
LINE
  8
0
 10
4.57422
 20
8.59517
 11
4.51823
 21
8.62369
  0
LINE
  8
0
 10
4.51823
 20
8.62369
 11
4.46417
 21
8.65567
  0
LINE
  8
0
 10
4.46417
 20
8.65567
 11
4.4122
 21
8.69098
  0
LINE
  8
0
 10
4.4122
 20
8.69098
 11
4.36256
 21
8.72948
  0
LINE
  8
0
 10
4.36256
 20
8.72948
 11
4.31544
 21
8.77103
  0
LINE
  8
0
 10
4.31544
 20
8.77103
 11
4.27103
 21
8.81544
  0
LINE
  8
0
 10
4.27103
 20
8.81544
 11
4.22948
 21
8.86256
  0
LINE
  8
0
 10
4.22948
 20
8.86256
 11
4.19098
 21
8.9122
  0
LINE
  8
0
 10
4.19098
 20
8.9122
 11
4.15567
 21
8.96417
  0
LINE
  8
0
 10
4.15567
 20
8.96417
 11
4.12369
 21
9.01823
  0
LINE
  8
0
 10
4.12369
 20
9.01823
 11
4.09517
 21
9.07422
  0
LINE
  8
0
 10
4.09517
 20
9.07422
 11
4.07022
 21
9.13187
  0
LINE
  8
0
 10
4.07022
 20
9.13187
 11
4.04893
 21
9.19098
  0
LINE
  8
0
 10
4.04893
 20
9.19098
 11
4.0314
 21
9.2513
  0
LINE
  8
0
 10
4.0314
 20
9.2513
 11
4.0177
 21
9.31261
  0
LINE
  8
0
 10
4.0177
 20
9.31261
 11
4.00787
 21
9.37466
  0
LINE
  8
0
 10
4.00787
 20
9.37466
 11
4.00197
 21
9.43719
  0
LINE
  8
0
 10
4.00197
 20
9.43719
 11
4
 21
9.5
  0
LINE
  8
0
 10
4
 20
9.5
 11
4.00197
 21
9.56279
  0
LINE
  8
0
 10
4.00197
 20
9.56279
 11
4.00787
 21
9.62532
  0
LINE
  8
0
 10
4.00787
 20
9.62532
 11
4.0177
 21
9.68738
  0
LINE
  8
0
 10
4.0177
 20
9.68738
 11
4.0314
 21
9.74869
  0
LINE
  8
0
 10
4.0314
 20
9.74869
 11
4.04893
 21
9.80901
  0
LINE
  8
0
 10
4.04893
 20
9.80901
 11
4.07022
 21
9.86812
  0
LINE
  8
0
 10
4.07022
 20
9.86812
 11
4.09517
 21
9.92577
  0
LINE
  8
0
 10
4.09517
 20
9.92577
 11
4.12369
 21
9.98175
  0
LINE
  8
0
 10
4.12369
 20
9.98175
 11
4.15567
 21
10.0358
  0
LINE
  8
0
 10
4.15567
 20
10.0358
 11
4.19098
 21
10.0878
  0
LINE
  8
0
 10
4.19098
 20
10.0878
 11
4.22948
 21
10.1374
  0
LINE
  8
0
 10
4.22948
 20
10.1374
 11
4.27103
 21
10.1845
  0
LINE
  8
0
 10
4.27103
 20
10.1845
 11
4.31544
 21
10.229
  0
LINE
  8
0
 10
4.31544
 20
10.229
 11
4.36256
 21
10.2705
  0
LINE
  8
0
 10
4.36256
 20
10.2705
 11
4.4122
 21
10.309
  0
LINE
  8
0
 10
4.4122
 20
10.309
 11
4.46417
 21
10.3443
  0
LINE
  8
0
 10
4.46417
 20
10.3443
 11
4.51823
 21
10.3763
  0
LINE
  8
0
 10
4.51823
 20
10.3763
 11
4.57422
 21
10.4048
  0
LINE
  8
0
 10
4.57422
 20
10.4048
 11
4.63187
 21
10.4298
  0
LINE
  8
0
 10
4.63187
 20
10.4298
 11
4.69098
 21
10.451
  0
LINE
  8
0
 10
4.69098
 20
10.451
 11
4.7513
 21
10.4686
  0
LINE
  8
0
 10
4.7513
 20
10.4686
 11
4.81261
 21
10.4823
  0
LINE
  8
0
 10
4.81261
 20
10.4823
 11
4.87466
 21
10.4921
  0
LINE
  8
0
 10
4.87466
 20
10.4921
 11
4.93719
 21
10.498
  0
LINE
  8
0
 10
4.93719
 20
10.498
 11
5
 21
10.5
  0
LINE
  8
0
 10
5
 20
10.5
 11
5.06279
 21
10.498
  0
LINE
  8
0
 10
5.06279
 20
10.498
 11
5.12532
 21
10.4921
  0
LINE
  8
0
 10
5.12532
 20
10.4921
 11
5.18738
 21
10.4823
  0
LINE
  8
0
 10
5.18738
 20
10.4823
 11
5.24869
 21
10.4686
  0
LINE
  8
0
 10
5.24869
 20
10.4686
 11
5.30901
 21
10.451
  0
LINE
  8
0
 10
5.30901
 20
10.451
 11
5.36812
 21
10.4298
  0
LINE
  8
0
 10
5.36812
 20
10.4298
 11
5.42577
 21
10.4048
  0
LINE
  8
0
 10
5.42577
 20
10.4048
 11
5.48175
 21
10.3763
  0
LINE
  8
0
 10
5.48175
 20
10.3763
 11
5.53581
 21
10.3443
  0
LINE
  8
0
 10
5.53581
 20
10.3443
 11
5.58778
 21
10.309
  0
LINE
  8
0
 10
5.58778
 20
10.309
 11
5.63742
 21
10.2705
  0
LINE
  8
0
 10
5.63742
 20
10.2705
 11
5.68454
 21
10.229
  0
LINE
  8
0
 10
5.68454
 20
10.229
 11
5.72896
 21
10.1845
  0
LINE
  8
0
 10
5.72896
 20
10.1845
 11
5.77051
 21
10.1374
  0
LINE
  8
0
 10
5.77051
 20
10.1374
 11
5.80901
 21
10.0878
  0
LINE
  8
0
 10
5.80901
 20
10.0878
 11
5.84431
 21
10.0358
  0
LINE
  8
0
 10
5.84431
 20
10.0358
 11
5.8763
 21
9.98175
  0
LINE
  8
0
 10
5.8763
 20
9.98175
 11
5.90482
 21
9.92577
  0
LINE
  8
0
 10
5.90482
 20
9.92577
 11
5.92976
 21
9.86812
  0
LINE
  8
0
 10
5.92976
 20
9.86812
 11
5.95105
 21
9.80901
  0
LINE
  8
0
 10
5.95105
 20
9.80901
 11
5.96858
 21
9.74869
  0
LINE
  8
0
 10
5.96858
 20
9.74869
 11
5.98228
 21
9.68738
  0
LINE
  8
0
 10
5.98228
 20
9.68738
 11
5.99211
 21
9.62532
  0
LINE
  8
0
 10
5.99211
 20
9.62532
 11
5.99802
 21
9.56279
  0
LINE
  8
0
 10
5.99802
 20
9.56279
 11
6
 21
9.5
  0
LINE
  8
0
 10
6
 20
9.5
 11
5.99802
 21
9.43719
  0
LINE
  8
0
 10
5.99802
 20
9.43719
 11
5.99211
 21
9.37466
  0
LINE
  8
0
 10
5.99211
 20
9.37466
 11
5.98228
 21
9.31261
  0
LINE
  8
0
 10
5.98228
 20
9.31261
 11
5.96858
 21
9.2513
  0
LINE
  8
0
 10
5.96858
 20
9.2513
 11
5.95105
 21
9.19098
  0
LINE
  8
0
 10
5.95105
 20
9.19098
 11
5.92976
 21
9.13187
  0
LINE
  8
0
 10
5.92976
 20
9.13187
 11
5.90482
 21
9.07422
  0
LINE
  8
0
 10
5.90482
 20
9.07422
 11
5.8763
 21
9.01823
  0
LINE
  8
0
 10
5.8763
 20
9.01823
 11
5.84431
 21
8.96417
  0
LINE
  8
0
 10
5.84431
 20
8.96417
 11
5.80901
 21
8.9122
  0
LINE
  8
0
 10
5.80901
 20
8.9122
 11
5.77051
 21
8.86256
  0
LINE
  8
0
 10
5.77051
 20
8.86256
 11
5.72896
 21
8.81544
  0
LINE
  8
0
 10
5.72896
 20
8.81544
 11
5.68454
 21
8.77103
  0
LINE
  8
0
 10
5.68454
 20
8.77103
 11
5.63742
 21
8.72948
  0
LINE
  8
0
 10
5.63742
 20
8.72948
 11
5.58778
 21
8.69098
  0
LINE
  8
0
 10
5.58778
 20
8.69098
 11
5.53581
 21
8.65567
  0
LINE
  8
0
 10
5.53581
 20
8.65567
 11
5.48175
 21
8.62369
  0
LINE
  8
0
 10
5.48175
 20
8.62369
 11
5.42577
 21
8.59517
  0
LINE
  8
0
 10
5.42577
 20
8.59517
 11
5.36812
 21
8.57022
  0
LINE
  8
0
 10
5.36812
 20
8.57022
 11
5.30901
 21
8.54893
  0
LINE
  8
0
 10
5.30901
 20
8.54893
 11
5.24869
 21
8.5314
  0
LINE
  8
0
 10
5.24869
 20
8.5314
 11
5.18738
 21
8.5177
  0
LINE
  8
0
 10
5.18738
 20
8.5177
 11
5.12532
 21
8.50787
  0
LINE
  8
0
 10
5.12532
 20
8.50787
 11
5.06279
 21
8.50197
  0
LINE
  8
0
 10
5.06279
 20
8.50197
 11
5
 21
8.5
  0
LINE
  8
0
 10
5
 20
8.5
 11
4.93719
 21
8.50197
  0
ENDSEC
  0
SECTION
  2
OBJECTS
  0
DICTIONARY
  0
ENDSEC
  0
EOF
