  0
SECTION
  2
BLOCKS
  0
ENDSEC
  0
SECTION
  2
ENTITIES
  0
LINE
  8
0
 10
146.913
 20
0.3806
 11
148.536
 21
1.46446
  0
LINE
  8
0
 10
148.536
 20
1.46446
 11
149.619
 21
3.08658
  0
LINE
  8
0
 10
149.619
 20
3.08658
 11
150
 21
5
  0
LINE
  8
0
 10
150
 20
5
 11
150
 21
85
  0
LINE
  8
0
 10
150
 20
85
 11
149.619
 21
86.9134
  0
LINE
  8
0
 10
149.619
 20
86.9134
 11
148.536
 21
88.5355
  0
LINE
  8
0
 10
148.536
 20
88.5355
 11
146.913
 21
89.6194
  0
LINE
  8
0
 10
146.913
 20
89.6194
 11
145
 21
90
  0
LINE
  8
0
 10
145
 20
90
 11
5
 21
90
  0
LINE
  8
0
 10
5
 20
90
 11
3.08658
 21
89.6194
  0
LINE
  8
0
 10
3.08658
 20
89.6194
 11
1.46446
 21
88.5355
  0
LINE
  8
0
 10
1.46446
 20
88.5355
 11
0.3806
 21
86.9134
  0
LINE
  8
0
 10
0.3806
 20
86.9134
 11
0
 21
85
  0
LINE
  8
0
 10
0
 20
85
 11
0
 21
5
  0
LINE
  8
0
 10
0
 20
5
 11
0.3806
 21
3.08658
  0
LINE
  8
0
 10
0.3806
 20
3.08658
 11
1.46446
 21
1.46446
  0
LINE
  8
0
 10
1.46446
 20
1.46446
 11
3.08658
 21
0.3806
  0
LINE
  8
0
 10
3.08658
 20
0.3806
 11
4.99998
 21
0
  0
LINE
  8
0
 10
4.99998
 20
0
 11
145
 21
0
  0
LINE
  8
0
 10
145
 20
0
 11
146.913
 21
0.3806
  0
LINE
  8
0
 10
3.23222
 20
83.2322
 11
2.5
 21
85
  0
LINE
  8
0
 10
2.5
 20
85
 11
3.23222
 21
86.7678
  0
LINE
  8
0
 10
3.23222
 20
86.7678
 11
5
 21
87.5
  0
LINE
  8
0
 10
5
 20
87.5
 11
6.76776
 21
86.7678
  0
LINE
  8
0
 10
6.76776
 20
86.7678
 11
7.5
 21
85
  0
LINE
  8
0
 10
7.5
 20
85
 11
6.76776
 21
83.2322
  0
LINE
  8
0
 10
6.76776
 20
83.2322
 11
4.99998
 21
82.5
  0
LINE
  8
0
 10
4.99998
 20
82.5
 11
3.23222
 21
83.2322
  0
LINE
  8
0
 10
143.232
 20
83.2322
 11
142.5
 21
85
  0
LINE
  8
0
 10
142.5
 20
85
 11
143.232
 21
86.7678
  0
LINE
  8
0
 10
143.232
 20
86.7678
 11
145
 21
87.5
  0
LINE
  8
0
 10
145
 20
87.5
 11
146.768
 21
86.7678
  0
LINE
  8
0
 10
146.768
 20
86.7678
 11
147.5
 21
85
  0
LINE
  8
0
 10
147.5
 20
85
 11
146.768
 21
83.2322
  0
LINE
  8
0
 10
146.768
 20
83.2322
 11
145
 21
82.5
  0
LINE
  8
0
 10
145
 20
82.5
 11
143.232
 21
83.2322
  0
LINE
  8
0
 10
15.7743
 20
51.75
 11
15.7743
 21
76.582
  0
LINE
  8
0
 10
15.7743
 20
76.582
 11
24.3713
 21
76.582
  0
LINE
  8
0
 10
24.3713
 20
76.582
 11
27.1913
 21
76.3909
  0
LINE
  8
0
 10
27.1913
 20
76.3909
 11
29.6703
 21
75.8175
  0
LINE
  8
0
 10
29.6703
 20
75.8175
 11
31.8083
 21
74.8619
  0
LINE
  8
0
 10
31.8083
 20
74.8619
 11
33.6053
 21
73.524
  0
LINE
  8
0
 10
33.6053
 20
73.524
 11
35.029
 21
71.8257
  0
LINE
  8
0
 10
35.029
 20
71.8257
 11
36.0458
 21
69.7878
  0
LINE
  8
0
 10
36.0458
 20
69.7878
 11
36.656
 21
67.4102
  0
LINE
  8
0
 10
36.656
 20
67.4102
 11
36.8593
 21
64.693
  0
LINE
  8
0
 10
36.8593
 20
64.693
 11
36.6453
 21
61.7629
  0
LINE
  8
0
 10
36.6453
 20
61.7629
 11
36.0033
 21
59.1895
  0
LINE
  8
0
 10
36.0033
 20
59.1895
 11
34.9333
 21
56.9729
  0
LINE
  8
0
 10
34.9333
 20
56.9729
 11
33.4353
 21
55.113
  0
LINE
  8
0
 10
33.4353
 20
55.113
 11
31.5502
 21
53.6417
  0
LINE
  8
0
 10
31.5502
 20
53.6417
 11
29.3176
 21
52.5908
  0
LINE
  8
0
 10
29.3176
 20
52.5908
 11
26.7377
 21
51.9602
  0
LINE
  8
0
 10
26.7377
 20
51.9602
 11
23.8103
 21
51.75
  0
LINE
  8
0
 10
23.8103
 20
51.75
 11
15.7743
 21
51.75
  0
LINE
  8
0
 10
25.4066
 20
57.359
 11
26.6326
 21
57.692
  0
LINE
  8
0
 10
26.6326
 20
57.692
 11
27.6542
 21
58.247
  0
LINE
  8
0
 10
27.6542
 20
58.247
 11
28.4713
 21
59.024
  0
LINE
  8
0
 10
28.4713
 20
59.024
 11
29.0974
 21
60.0294
  0
LINE
  8
0
 10
29.0974
 20
60.0294
 11
29.5446
 21
61.2698
  0
LINE
  8
0
 10
29.5446
 20
61.2698
 11
29.8129
 21
62.7449
  0
LINE
  8
0
 10
29.8129
 20
62.7449
 11
29.9023
 21
64.455
  0
LINE
  8
0
 10
29.9023
 20
64.455
 11
29.8177
 21
66.0526
  0
LINE
  8
0
 10
29.8177
 20
66.0526
 11
29.5638
 21
67.4293
  0
LINE
  8
0
 10
29.5638
 20
67.4293
 11
29.1407
 21
68.5851
  0
LINE
  8
0
 10
29.1407
 20
68.5851
 11
28.5483
 21
69.52
  0
LINE
  8
0
 10
28.5483
 20
69.52
 11
27.7835
 21
70.2414
  0
LINE
  8
0
 10
27.7835
 20
70.2414
 11
26.8431
 21
70.7568
  0
LINE
  8
0
 10
26.8431
 20
70.7568
 11
25.727
 21
71.0659
  0
LINE
  8
0
 10
25.727
 20
71.0659
 11
24.4353
 21
71.169
  0
LINE
  8
0
 10
24.4353
 20
71.169
 11
22.4773
 21
71.169
  0
LINE
  8
0
 10
22.4773
 20
71.169
 11
22.4773
 21
57.248
  0
LINE
  8
0
 10
22.4773
 20
57.248
 11
23.9763
 21
57.248
  0
LINE
  8
0
 10
23.9763
 20
57.248
 11
25.4066
 21
57.359
  0
LINE
  8
0
 10
40.6776
 20
51.75
 11
40.6776
 21
76.582
  0
LINE
  8
0
 10
40.6776
 20
76.582
 11
55.4056
 21
76.582
  0
LINE
  8
0
 10
55.4056
 20
76.582
 11
55.4056
 21
71.203
  0
LINE
  8
0
 10
55.4056
 20
71.203
 11
47.3806
 21
71.203
  0
LINE
  8
0
 10
47.3806
 20
71.203
 11
47.3806
 21
67.302
  0
LINE
  8
0
 10
47.3806
 20
67.302
 11
54.8116
 21
67.302
  0
LINE
  8
0
 10
54.8116
 20
67.302
 11
54.8116
 21
61.923
  0
LINE
  8
0
 10
54.8116
 20
61.923
 11
47.3806
 21
61.923
  0
LINE
  8
0
 10
47.3806
 20
61.923
 11
47.3806
 21
57.214
  0
LINE
  8
0
 10
47.3806
 20
57.214
 11
55.4056
 21
57.214
  0
LINE
  8
0
 10
55.4056
 20
57.214
 11
55.4056
 21
51.75
  0
LINE
  8
0
 10
55.4056
 20
51.75
 11
40.6776
 21
51.75
  0
LINE
  8
0
 10
59.3066
 20
51.75
 11
59.3066
 21
76.582
  0
LINE
  8
0
 10
59.3066
 20
76.582
 11
73.9816
 21
76.582
  0
LINE
  8
0
 10
73.9816
 20
76.582
 11
73.9816
 21
71.203
  0
LINE
  8
0
 10
73.9816
 20
71.203
 11
65.9076
 21
71.203
  0
LINE
  8
0
 10
65.9076
 20
71.203
 11
65.9076
 21
66.47
  0
LINE
  8
0
 10
65.9076
 20
66.47
 11
73.3536
 21
66.47
  0
LINE
  8
0
 10
73.3536
 20
66.47
 11
73.3536
 21
61.091
  0
LINE
  8
0
 10
73.3536
 20
61.091
 11
65.9076
 21
61.091
  0
LINE
  8
0
 10
65.9076
 20
61.091
 11
65.9076
 21
51.75
  0
LINE
  8
0
 10
65.9076
 20
51.75
 11
59.3066
 21
51.75
  0
LINE
  8
0
 10
77.5985
 20
51.75
 11
77.5985
 21
76.582
  0
LINE
  8
0
 10
77.5985
 20
76.582
 11
92.3265
 21
76.582
  0
LINE
  8
0
 10
92.3265
 20
76.582
 11
92.3265
 21
71.203
  0
LINE
  8
0
 10
92.3265
 20
71.203
 11
84.3015
 21
71.203
  0
LINE
  8
0
 10
84.3015
 20
71.203
 11
84.3015
 21
67.302
  0
LINE
  8
0
 10
84.3015
 20
67.302
 11
91.7325
 21
67.302
  0
LINE
  8
0
 10
91.7325
 20
67.302
 11
91.7325
 21
61.923
  0
LINE
  8
0
 10
91.7325
 20
61.923
 11
84.3015
 21
61.923
  0
LINE
  8
0
 10
84.3015
 20
61.923
 11
84.3015
 21
57.214
  0
LINE
  8
0
 10
84.3015
 20
57.214
 11
92.3265
 21
57.214
  0
LINE
  8
0
 10
92.3265
 20
57.214
 11
92.3265
 21
51.75
  0
LINE
  8
0
 10
92.3265
 20
51.75
 11
77.5985
 21
51.75
  0
LINE
  8
0
 10
96.2245
 20
51.75
 11
96.2245
 21
76.582
  0
LINE
  8
0
 10
96.2245
 20
76.582
 11
102.961
 21
76.582
  0
LINE
  8
0
 10
102.961
 20
76.582
 11
102.961
 21
65.797
  0
LINE
  8
0
 10
102.961
 20
65.797
 11
103.281
 21
66.3713
  0
LINE
  8
0
 10
103.281
 20
66.3713
 11
103.729
 21
67.092
  0
LINE
  8
0
 10
103.729
 20
67.092
 11
104.307
 21
67.9593
  0
LINE
  8
0
 10
104.307
 20
67.9593
 11
105.013
 21
68.973
  0
LINE
  8
0
 10
105.013
 20
68.973
 11
110.22
 21
76.582
  0
LINE
  8
0
 10
110.22
 20
76.582
 11
117.551
 21
76.582
  0
LINE
  8
0
 10
117.551
 20
76.582
 11
109.731
 21
65.457
  0
LINE
  8
0
 10
109.731
 20
65.457
 11
117.415
 21
51.75
  0
LINE
  8
0
 10
117.415
 20
51.75
 11
109.847
 21
51.75
  0
LINE
  8
0
 10
109.847
 20
51.75
 11
104.945
 21
61.245
  0
LINE
  8
0
 10
104.945
 20
61.245
 11
102.961
 21
60.056
  0
LINE
  8
0
 10
102.961
 20
60.056
 11
102.961
 21
51.75
  0
LINE
  8
0
 10
102.961
 20
51.75
 11
96.2245
 21
51.75
  0
LINE
  8
0
 10
123.786
 20
51.75
 11
123.786
 21
71.101
  0
LINE
  8
0
 10
123.786
 20
71.101
 11
117.725
 21
71.101
  0
LINE
  8
0
 10
117.725
 20
71.101
 11
117.725
 21
76.582
  0
LINE
  8
0
 10
117.725
 20
76.582
 11
136.537
 21
76.582
  0
LINE
  8
0
 10
136.537
 20
76.582
 11
136.537
 21
71.101
  0
LINE
  8
0
 10
136.537
 20
71.101
 11
130.489
 21
71.101
  0
LINE
  8
0
 10
130.489
 20
71.101
 11
130.489
 21
51.75
  0
LINE
  8
0
 10
130.489
 20
51.75
 11
123.786
 21
51.75
  0
LINE
  8
0
 10
5
 20
44
 11
5
 21
46
  0
LINE
  8
0
 10
5
 20
46
 11
145
 21
46
  0
LINE
  8
0
 10
145
 20
46
 11
145
 21
44
  0
LINE
  8
0
 10
145
 20
44
 11
5
 21
44
  0
LINE
  8
0
 10
76.519
 20
32
 11
75
 21
37.952
  0
LINE
  8
0
 10
75
 20
37.952
 11
76.239
 21
37.952
  0
LINE
  8
0
 10
76.239
 20
37.952
 11
77.001
 21
34.702
  0
LINE
  8
0
 10
77.001
 20
34.702
 11
77.1221
 21
34.1287
  0
LINE
  8
0
 10
77.1221
 20
34.1287
 11
77.2188
 21
33.6087
  0
LINE
  8
0
 10
77.2188
 20
33.6087
 11
77.291
 21
33.142
  0
LINE
  8
0
 10
77.291
 20
33.142
 11
77.3145
 21
33.325
  0
LINE
  8
0
 10
77.3145
 20
33.325
 11
77.3519
 21
33.5647
  0
LINE
  8
0
 10
77.3519
 20
33.5647
 11
77.403
 21
33.861
  0
LINE
  8
0
 10
77.403
 20
33.861
 11
77.4605
 21
34.1613
  0
LINE
  8
0
 10
77.4605
 20
34.1613
 11
77.5159
 21
34.413
  0
LINE
  8
0
 10
77.5159
 20
34.413
 11
78.439
 21
37.952
  0
LINE
  8
0
 10
78.439
 20
37.952
 11
79.629
 21
37.952
  0
LINE
  8
0
 10
79.629
 20
37.952
 11
80.499
 21
34.616
  0
LINE
  8
0
 10
80.499
 20
34.616
 11
80.5402
 21
34.4404
  0
LINE
  8
0
 10
80.5402
 20
34.4404
 11
80.5879
 21
34.2124
  0
LINE
  8
0
 10
80.5879
 20
34.2124
 11
80.642
 21
33.932
  0
LINE
  8
0
 10
80.642
 20
33.932
 11
80.6948
 21
33.6398
  0
LINE
  8
0
 10
80.6948
 20
33.6398
 11
80.7384
 21
33.3764
  0
LINE
  8
0
 10
80.7384
 20
33.3764
 11
80.773
 21
33.142
  0
LINE
  8
0
 10
80.773
 20
33.142
 11
80.8057
 21
33.3713
  0
LINE
  8
0
 10
80.8057
 20
33.3713
 11
80.849
 21
33.6353
  0
LINE
  8
0
 10
80.849
 20
33.6353
 11
80.903
 21
33.934
  0
LINE
  8
0
 10
80.903
 20
33.934
 11
80.9612
 21
34.2304
  0
LINE
  8
0
 10
80.9612
 20
34.2304
 11
81.0159
 21
34.4864
  0
LINE
  8
0
 10
81.0159
 20
34.4864
 11
81.825
 21
37.952
  0
LINE
  8
0
 10
81.825
 20
37.952
 11
83.064
 21
37.952
  0
LINE
  8
0
 10
83.064
 20
37.952
 11
81.549
 21
32
  0
LINE
  8
0
 10
81.549
 20
32
 11
80.114
 21
32
  0
LINE
  8
0
 10
80.114
 20
32
 11
79.306
 21
35.129
  0
LINE
  8
0
 10
79.306
 20
35.129
 11
79.2689
 21
35.2799
  0
LINE
  8
0
 10
79.2689
 20
35.2799
 11
79.2175
 21
35.5099
  0
LINE
  8
0
 10
79.2175
 20
35.5099
 11
79.152
 21
35.819
  0
LINE
  8
0
 10
79.152
 20
35.819
 11
79.0902
 21
36.13
  0
LINE
  8
0
 10
79.0902
 20
36.13
 11
79.0489
 21
36.3643
  0
LINE
  8
0
 10
79.0489
 20
36.3643
 11
79.028
 21
36.522
  0
LINE
  8
0
 10
79.028
 20
36.522
 11
79.0032
 21
36.3457
  0
LINE
  8
0
 10
79.0032
 20
36.3457
 11
78.9622
 21
36.11
  0
LINE
  8
0
 10
78.9622
 20
36.11
 11
78.905
 21
35.815
  0
LINE
  8
0
 10
78.905
 20
35.815
 11
78.8447
 21
35.5214
  0
LINE
  8
0
 10
78.8447
 20
35.5214
 11
78.7943
 21
35.2901
  0
LINE
  8
0
 10
78.7943
 20
35.2901
 11
78.754
 21
35.121
  0
LINE
  8
0
 10
78.754
 20
35.121
 11
77.949
 21
32
  0
LINE
  8
0
 10
77.949
 20
32
 11
76.519
 21
32
  0
LINE
  8
0
 10
5.74799
 20
32
 11
5.74799
 21
37.952
  0
LINE
  8
0
 10
5.74799
 20
37.952
 11
7.60699
 21
37.952
  0
LINE
  8
0
 10
7.60699
 20
37.952
 11
8.5011
 21
37.8664
  0
LINE
  8
0
 10
8.5011
 20
37.8664
 11
9.25143
 21
37.6098
  0
LINE
  8
0
 10
9.25143
 20
37.6098
 11
9.85799
 21
37.182
  0
LINE
  8
0
 10
9.85799
 20
37.182
 11
10.3035
 21
36.6014
  0
LINE
  8
0
 10
10.3035
 20
36.6014
 11
10.5709
 21
35.8851
  0
LINE
  8
0
 10
10.5709
 20
35.8851
 11
10.66
 21
35.033
  0
LINE
  8
0
 10
10.66
 20
35.033
 11
10.5676
 21
34.1294
  0
LINE
  8
0
 10
10.5676
 20
34.1294
 11
10.2902
 21
33.3788
  0
LINE
  8
0
 10
10.2902
 20
33.3788
 11
9.82799
 21
32.781
  0
LINE
  8
0
 10
9.82799
 20
32.781
 11
9.1911
 21
32.3471
  0
LINE
  8
0
 10
9.1911
 20
32.3471
 11
8.38977
 21
32.0868
  0
LINE
  8
0
 10
8.38977
 20
32.0868
 11
7.424
 21
32
  0
LINE
  8
0
 10
7.424
 20
32
 11
5.74799
 21
32
  0
LINE
  8
0
 10
8.54843
 20
33.2578
 11
9.15111
 21
33.9111
  0
LINE
  8
0
 10
9.15111
 20
33.9111
 11
9.35199
 21
35
  0
LINE
  8
0
 10
9.35199
 20
35
 11
9.16544
 21
36.0667
  0
LINE
  8
0
 10
9.16544
 20
36.0667
 11
8.60577
 21
36.7067
  0
LINE
  8
0
 10
8.60577
 20
36.7067
 11
7.67299
 21
36.92
  0
LINE
  8
0
 10
7.67299
 20
36.92
 11
7.00699
 21
36.92
  0
LINE
  8
0
 10
7.00699
 20
36.92
 11
7.00699
 21
33.04
  0
LINE
  8
0
 10
7.00699
 20
33.04
 11
7.54399
 21
33.04
  0
LINE
  8
0
 10
7.54399
 20
33.04
 11
8.54843
 21
33.2578
  0
LINE
  8
0
 10
17.6634
 20
31.9776
 11
17.3051
 21
32.1022
  0
LINE
  8
0
 10
17.3051
 20
32.1022
 11
17.0359
 21
32.31
  0
LINE
  8
0
 10
17.0359
 20
32.31
 11
16.8492
 21
32.6014
  0
LINE
  8
0
 10
16.8492
 20
32.6014
 11
16.7372
 21
32.9758
  0
LINE
  8
0
 10
16.7372
 20
32.9758
 11
16.6999
 21
33.433
  0
LINE
  8
0
 10
16.6999
 20
33.433
 11
16.6999
 21
35.614
  0
LINE
  8
0
 10
16.6999
 20
35.614
 11
16.1069
 21
35.614
  0
LINE
  8
0
 10
16.1069
 20
35.614
 11
16.1069
 21
36.138
  0
LINE
  8
0
 10
16.1069
 20
36.138
 11
16.7889
 21
36.552
  0
LINE
  8
0
 10
16.7889
 20
36.552
 11
17.1469
 21
37.511
  0
LINE
  8
0
 10
17.1469
 20
37.511
 11
17.9389
 21
37.511
  0
LINE
  8
0
 10
17.9389
 20
37.511
 11
17.9389
 21
36.544
  0
LINE
  8
0
 10
17.9389
 20
36.544
 11
19.1919
 21
36.544
  0
LINE
  8
0
 10
19.1919
 20
36.544
 11
19.1919
 21
35.614
  0
LINE
  8
0
 10
19.1919
 20
35.614
 11
17.9389
 21
35.614
  0
LINE
  8
0
 10
17.9389
 20
35.614
 11
17.9389
 21
33.436
  0
LINE
  8
0
 10
17.9389
 20
33.436
 11
17.9551
 21
33.2764
  0
LINE
  8
0
 10
17.9551
 20
33.2764
 11
18.0038
 21
33.1471
  0
LINE
  8
0
 10
18.0038
 20
33.1471
 11
18.0849
 21
33.048
  0
LINE
  8
0
 10
18.0849
 20
33.048
 11
18.1926
 21
32.9785
  0
LINE
  8
0
 10
18.1926
 20
32.9785
 11
18.3213
 21
32.9369
  0
LINE
  8
0
 10
18.3213
 20
32.9369
 11
18.4709
 21
32.923
  0
LINE
  8
0
 10
18.4709
 20
32.923
 11
18.699
 21
32.9388
  0
LINE
  8
0
 10
18.699
 20
32.9388
 11
18.9553
 21
32.9861
  0
LINE
  8
0
 10
18.9553
 20
32.9861
 11
19.2399
 21
33.065
  0
LINE
  8
0
 10
19.2399
 20
33.065
 11
19.2399
 21
32.143
  0
LINE
  8
0
 10
19.2399
 20
32.143
 11
18.91
 21
32.028
  0
LINE
  8
0
 10
18.91
 20
32.028
 11
18.5336
 21
31.959
  0
LINE
  8
0
 10
18.5336
 20
31.959
 11
18.1109
 21
31.936
  0
LINE
  8
0
 10
18.1109
 20
31.936
 11
17.6634
 21
31.9776
  0
LINE
  8
0
 10
33.7473
 20
35.2468
 11
33.5714
 21
35.3061
  0
LINE
  8
0
 10
33.5714
 20
35.3061
 11
33.4296
 21
35.405
  0
LINE
  8
0
 10
33.4296
 20
35.405
 11
33.3257
 21
35.5415
  0
LINE
  8
0
 10
33.3257
 20
35.5415
 11
33.2634
 21
35.7126
  0
LINE
  8
0
 10
33.2634
 20
35.7126
 11
33.2426
 21
35.918
  0
LINE
  8
0
 10
33.2426
 20
35.918
 11
33.2629
 21
36.1268
  0
LINE
  8
0
 10
33.2629
 20
36.1268
 11
33.3239
 21
36.2984
  0
LINE
  8
0
 10
33.3239
 20
36.2984
 11
33.4256
 21
36.433
  0
LINE
  8
0
 10
33.4256
 20
36.433
 11
33.566
 21
36.5302
  0
LINE
  8
0
 10
33.566
 20
36.5302
 11
33.7433
 21
36.5885
  0
LINE
  8
0
 10
33.7433
 20
36.5885
 11
33.9576
 21
36.608
  0
LINE
  8
0
 10
33.9576
 20
36.608
 11
34.1653
 21
36.5881
  0
LINE
  8
0
 10
34.1653
 20
36.5881
 11
34.3394
 21
36.5284
  0
LINE
  8
0
 10
34.3394
 20
36.5284
 11
34.4796
 21
36.429
  0
LINE
  8
0
 10
34.4796
 20
36.429
 11
34.5824
 21
36.2931
  0
LINE
  8
0
 10
34.5824
 20
36.2931
 11
34.644
 21
36.1228
  0
LINE
  8
0
 10
34.644
 20
36.1228
 11
34.6646
 21
35.918
  0
LINE
  8
0
 10
34.6646
 20
35.918
 11
34.6436
 21
35.7146
  0
LINE
  8
0
 10
34.6436
 20
35.7146
 11
34.5806
 21
35.5442
  0
LINE
  8
0
 10
34.5806
 20
35.5442
 11
34.4756
 21
35.407
  0
LINE
  8
0
 10
34.4756
 20
35.407
 11
34.334
 21
35.307
  0
LINE
  8
0
 10
34.334
 20
35.307
 11
34.1613
 21
35.247
  0
LINE
  8
0
 10
34.1613
 20
35.247
 11
33.9576
 21
35.227
  0
LINE
  8
0
 10
33.9576
 20
35.227
 11
33.7473
 21
35.2468
  0
LINE
  8
0
 10
97.442
 20
32
 11
97.442
 21
36.544
  0
LINE
  8
0
 10
97.442
 20
36.544
 11
98.388
 21
36.544
  0
LINE
  8
0
 10
98.388
 20
36.544
 11
98.555
 21
35.942
  0
LINE
  8
0
 10
98.555
 20
35.942
 11
98.624
 21
35.942
  0
LINE
  8
0
 10
98.624
 20
35.942
 11
98.7646
 21
36.1354
  0
LINE
  8
0
 10
98.7646
 20
36.1354
 11
98.9413
 21
36.2984
  0
LINE
  8
0
 10
98.9413
 20
36.2984
 11
99.154
 21
36.431
  0
LINE
  8
0
 10
99.154
 20
36.431
 11
99.3967
 21
36.5293
  0
LINE
  8
0
 10
99.3967
 20
36.5293
 11
99.662
 21
36.5883
  0
LINE
  8
0
 10
99.662
 20
36.5883
 11
99.95
 21
36.608
  0
LINE
  8
0
 10
99.95
 20
36.608
 11
100.559
 21
36.534
  0
LINE
  8
0
 10
100.559
 20
36.534
 11
101.021
 21
36.312
  0
LINE
  8
0
 10
101.021
 20
36.312
 11
101.336
 21
35.942
  0
LINE
  8
0
 10
101.336
 20
35.942
 11
101.445
 21
35.942
  0
LINE
  8
0
 10
101.445
 20
35.942
 11
101.587
 21
36.1374
  0
LINE
  8
0
 10
101.587
 20
36.1374
 11
101.767
 21
36.3011
  0
LINE
  8
0
 10
101.767
 20
36.3011
 11
101.986
 21
36.433
  0
LINE
  8
0
 10
101.986
 20
36.433
 11
102.234
 21
36.5302
  0
LINE
  8
0
 10
102.234
 20
36.5302
 11
102.502
 21
36.5885
  0
LINE
  8
0
 10
102.502
 20
36.5885
 11
102.791
 21
36.608
  0
LINE
  8
0
 10
102.791
 20
36.608
 11
103.266
 21
36.5641
  0
LINE
  8
0
 10
103.266
 20
36.5641
 11
103.657
 21
36.4324
  0
LINE
  8
0
 10
103.657
 20
36.4324
 11
103.964
 21
36.213
  0
LINE
  8
0
 10
103.964
 20
36.213
 11
104.185
 21
35.8974
  0
LINE
  8
0
 10
104.185
 20
35.8974
 11
104.318
 21
35.4761
  0
LINE
  8
0
 10
104.318
 20
35.4761
 11
104.362
 21
34.949
  0
LINE
  8
0
 10
104.362
 20
34.949
 11
104.362
 21
32
  0
LINE
  8
0
 10
104.362
 20
32
 11
103.119
 21
32
  0
LINE
  8
0
 10
103.119
 20
32
 11
103.119
 21
34.639
  0
LINE
  8
0
 10
103.119
 20
34.639
 11
103.101
 21
34.9378
  0
LINE
  8
0
 10
103.101
 20
34.9378
 11
103.045
 21
35.1821
  0
LINE
  8
0
 10
103.045
 20
35.1821
 11
102.953
 21
35.372
  0
LINE
  8
0
 10
102.953
 20
35.372
 11
102.822
 21
35.5081
  0
LINE
  8
0
 10
102.822
 20
35.5081
 11
102.648
 21
35.5898
  0
LINE
  8
0
 10
102.648
 20
35.5898
 11
102.432
 21
35.617
  0
LINE
  8
0
 10
102.432
 20
35.617
 11
102.152
 21
35.581
  0
LINE
  8
0
 10
102.152
 20
35.581
 11
101.923
 21
35.473
  0
LINE
  8
0
 10
101.923
 20
35.473
 11
101.746
 21
35.293
  0
LINE
  8
0
 10
101.746
 20
35.293
 11
101.62
 21
35.0354
  0
LINE
  8
0
 10
101.62
 20
35.0354
 11
101.544
 21
34.6934
  0
LINE
  8
0
 10
101.544
 20
34.6934
 11
101.519
 21
34.267
  0
LINE
  8
0
 10
101.519
 20
34.267
 11
101.519
 21
32
  0
LINE
  8
0
 10
101.519
 20
32
 11
100.28
 21
32
  0
LINE
  8
0
 10
100.28
 20
32
 11
100.28
 21
34.639
  0
LINE
  8
0
 10
100.28
 20
34.639
 11
100.262
 21
34.9378
  0
LINE
  8
0
 10
100.262
 20
34.9378
 11
100.206
 21
35.1821
  0
LINE
  8
0
 10
100.206
 20
35.1821
 11
100.114
 21
35.372
  0
LINE
  8
0
 10
100.114
 20
35.372
 11
99.9828
 21
35.5081
  0
LINE
  8
0
 10
99.9828
 20
35.5081
 11
99.8091
 21
35.5898
  0
LINE
  8
0
 10
99.8091
 20
35.5898
 11
99.593
 21
35.617
  0
LINE
  8
0
 10
99.593
 20
35.617
 11
99.3028
 21
35.5783
  0
LINE
  8
0
 10
99.3028
 20
35.5783
 11
99.0708
 21
35.4623
  0
LINE
  8
0
 10
99.0708
 20
35.4623
 11
98.897
 21
35.269
  0
LINE
  8
0
 10
98.897
 20
35.269
 11
98.777
 21
34.9878
  0
LINE
  8
0
 10
98.777
 20
34.9878
 11
98.705
 21
34.6068
  0
LINE
  8
0
 10
98.705
 20
34.6068
 11
98.681
 21
34.126
  0
LINE
  8
0
 10
98.681
 20
34.126
 11
98.681
 21
32
  0
LINE
  8
0
 10
98.681
 20
32
 11
97.442
 21
32
  0
LINE
  8
0
 10
88.4127
 20
32
 11
88.4127
 21
36.544
  0
LINE
  8
0
 10
88.4127
 20
36.544
 11
89.3507
 21
36.544
  0
LINE
  8
0
 10
89.3507
 20
36.544
 11
89.5337
 21
35.759
  0
LINE
  8
0
 10
89.5337
 20
35.759
 11
89.5947
 21
35.759
  0
LINE
  8
0
 10
89.5947
 20
35.759
 11
89.7518
 21
35.9971
  0
LINE
  8
0
 10
89.7518
 20
35.9971
 11
89.9418
 21
36.2021
  0
LINE
  8
0
 10
89.9418
 20
36.2021
 11
90.1647
 21
36.374
  0
LINE
  8
0
 10
90.1647
 20
36.374
 11
90.411
 21
36.504
  0
LINE
  8
0
 10
90.411
 20
36.504
 11
90.6714
 21
36.582
  0
LINE
  8
0
 10
90.6714
 20
36.582
 11
90.9457
 21
36.608
  0
LINE
  8
0
 10
90.9457
 20
36.608
 11
91.1041
 21
36.6039
  0
LINE
  8
0
 10
91.1041
 20
36.6039
 11
91.2435
 21
36.5916
  0
LINE
  8
0
 10
91.2435
 20
36.5916
 11
91.3637
 21
36.571
  0
LINE
  8
0
 10
91.3637
 20
36.571
 11
91.2707
 21
35.41
  0
LINE
  8
0
 10
91.2707
 20
35.41
 11
91.1635
 21
35.4322
  0
LINE
  8
0
 10
91.1635
 20
35.4322
 11
91.0418
 21
35.4455
  0
LINE
  8
0
 10
91.0418
 20
35.4455
 11
90.9057
 21
35.45
  0
LINE
  8
0
 10
90.9057
 20
35.45
 11
90.5395
 21
35.4163
  0
LINE
  8
0
 10
90.5395
 20
35.4163
 11
90.2315
 21
35.3153
  0
LINE
  8
0
 10
90.2315
 20
35.3153
 11
89.9817
 21
35.147
  0
LINE
  8
0
 10
89.9817
 20
35.147
 11
89.7984
 21
34.9181
  0
LINE
  8
0
 10
89.7984
 20
34.9181
 11
89.6884
 21
34.6354
  0
LINE
  8
0
 10
89.6884
 20
34.6354
 11
89.6517
 21
34.299
  0
LINE
  8
0
 10
89.6517
 20
34.299
 11
89.6517
 21
32
  0
LINE
  8
0
 10
89.6517
 20
32
 11
88.4127
 21
32
  0
LINE
  8
0
 10
84.216
 20
31.9771
 11
83.869
 21
32.1004
  0
LINE
  8
0
 10
83.869
 20
32.1004
 11
83.5845
 21
32.306
  0
LINE
  8
0
 10
83.5845
 20
32.306
 11
83.3734
 21
32.5876
  0
LINE
  8
0
 10
83.3734
 20
32.5876
 11
83.2467
 21
32.9389
  0
LINE
  8
0
 10
83.2467
 20
32.9389
 11
83.2045
 21
33.36
  0
LINE
  8
0
 10
83.2045
 20
33.36
 11
83.2612
 21
33.7955
  0
LINE
  8
0
 10
83.2612
 20
33.7955
 11
83.4316
 21
34.1476
  0
LINE
  8
0
 10
83.4316
 20
34.1476
 11
83.7155
 21
34.416
  0
LINE
  8
0
 10
83.7155
 20
34.416
 11
84.1145
 21
34.6089
  0
LINE
  8
0
 10
84.1145
 20
34.6089
 11
84.6288
 21
34.7342
  0
LINE
  8
0
 10
84.6288
 20
34.7342
 11
85.2585
 21
34.792
  0
LINE
  8
0
 10
85.2585
 20
34.792
 11
86.0555
 21
34.816
  0
LINE
  8
0
 10
86.0555
 20
34.816
 11
86.0555
 21
35.012
  0
LINE
  8
0
 10
86.0555
 20
35.012
 11
85.976
 21
35.3887
  0
LINE
  8
0
 10
85.976
 20
35.3887
 11
85.7377
 21
35.6147
  0
LINE
  8
0
 10
85.7377
 20
35.6147
 11
85.3405
 21
35.69
  0
LINE
  8
0
 10
85.3405
 20
35.69
 11
84.9522
 21
35.6534
  0
LINE
  8
0
 10
84.9522
 20
35.6534
 11
84.5209
 21
35.5438
  0
LINE
  8
0
 10
84.5209
 20
35.5438
 11
84.0465
 21
35.361
  0
LINE
  8
0
 10
84.0465
 20
35.361
 11
83.6315
 21
36.198
  0
LINE
  8
0
 10
83.6315
 20
36.198
 11
84.1772
 21
36.4258
  0
LINE
  8
0
 10
84.1772
 20
36.4258
 11
84.7612
 21
36.5624
  0
LINE
  8
0
 10
84.7612
 20
36.5624
 11
85.3835
 21
36.608
  0
LINE
  8
0
 10
85.3835
 20
36.608
 11
85.9497
 21
36.564
  0
LINE
  8
0
 10
85.9497
 20
36.564
 11
86.4203
 21
36.432
  0
LINE
  8
0
 10
86.4203
 20
36.432
 11
86.7955
 21
36.212
  0
LINE
  8
0
 10
86.7955
 20
36.212
 11
87.0682
 21
35.9023
  0
LINE
  8
0
 10
87.0682
 20
35.9023
 11
87.2319
 21
35.5013
  0
LINE
  8
0
 10
87.2319
 20
35.5013
 11
87.2865
 21
35.009
  0
LINE
  8
0
 10
87.2865
 20
35.009
 11
87.2865
 21
32
  0
LINE
  8
0
 10
87.2865
 20
32
 11
86.4205
 21
32
  0
LINE
  8
0
 10
86.4205
 20
32
 11
86.1815
 21
32.635
  0
LINE
  8
0
 10
86.1815
 20
32.635
 11
86.1485
 21
32.635
  0
LINE
  8
0
 10
86.1485
 20
32.635
 11
85.9357
 21
32.3991
  0
LINE
  8
0
 10
85.9357
 20
32.3991
 11
85.7187
 21
32.2168
  0
LINE
  8
0
 10
85.7187
 20
32.2168
 11
85.4975
 21
32.088
  0
LINE
  8
0
 10
85.4975
 20
32.088
 11
85.2521
 21
32.0036
  0
LINE
  8
0
 10
85.2521
 20
32.0036
 11
84.9615
 21
31.9529
  0
LINE
  8
0
 10
84.9615
 20
31.9529
 11
84.6255
 21
31.936
  0
LINE
  8
0
 10
84.6255
 20
31.936
 11
84.216
 21
31.9771
  0
LINE
  8
0
 10
85.3631
 20
32.8689
 11
85.5975
 21
32.9496
  0
LINE
  8
0
 10
85.5975
 20
32.9496
 11
85.7925
 21
33.084
  0
LINE
  8
0
 10
85.7925
 20
33.084
 11
85.9386
 21
33.2635
  0
LINE
  8
0
 10
85.9386
 20
33.2635
 11
86.0262
 21
33.4782
  0
LINE
  8
0
 10
86.0262
 20
33.4782
 11
86.0555
 21
33.728
  0
LINE
  8
0
 10
86.0555
 20
33.728
 11
86.0555
 21
34.093
  0
LINE
  8
0
 10
86.0555
 20
34.093
 11
85.5665
 21
34.077
  0
LINE
  8
0
 10
85.5665
 20
34.077
 11
85.2303
 21
34.0487
  0
LINE
  8
0
 10
85.2303
 20
34.0487
 11
84.9567
 21
33.985
  0
LINE
  8
0
 10
84.9567
 20
33.985
 11
84.7455
 21
33.886
  0
LINE
  8
0
 10
84.7455
 20
33.886
 11
84.596
 21
33.7495
  0
LINE
  8
0
 10
84.596
 20
33.7495
 11
84.5063
 21
33.5722
  0
LINE
  8
0
 10
84.5063
 20
33.5722
 11
84.4765
 21
33.354
  0
LINE
  8
0
 10
84.4765
 20
33.354
 11
84.5446
 21
33.0695
  0
LINE
  8
0
 10
84.5446
 20
33.0695
 11
84.7489
 21
32.8989
  0
LINE
  8
0
 10
84.7489
 20
32.8989
 11
85.0895
 21
32.842
  0
LINE
  8
0
 10
85.0895
 20
32.842
 11
85.3631
 21
32.8689
  0
LINE
  8
0
 10
105.75
 20
35.2468
 11
105.574
 21
35.3061
  0
LINE
  8
0
 10
105.574
 20
35.3061
 11
105.432
 21
35.405
  0
LINE
  8
0
 10
105.432
 20
35.405
 11
105.329
 21
35.5415
  0
LINE
  8
0
 10
105.329
 20
35.5415
 11
105.266
 21
35.7126
  0
LINE
  8
0
 10
105.266
 20
35.7126
 11
105.245
 21
35.918
  0
LINE
  8
0
 10
105.245
 20
35.918
 11
105.266
 21
36.1268
  0
LINE
  8
0
 10
105.266
 20
36.1268
 11
105.327
 21
36.2984
  0
LINE
  8
0
 10
105.327
 20
36.2984
 11
105.428
 21
36.433
  0
LINE
  8
0
 10
105.428
 20
36.433
 11
105.569
 21
36.5302
  0
LINE
  8
0
 10
105.569
 20
36.5302
 11
105.746
 21
36.5885
  0
LINE
  8
0
 10
105.746
 20
36.5885
 11
105.96
 21
36.608
  0
LINE
  8
0
 10
105.96
 20
36.608
 11
106.168
 21
36.5881
  0
LINE
  8
0
 10
106.168
 20
36.5881
 11
106.342
 21
36.5284
  0
LINE
  8
0
 10
106.342
 20
36.5284
 11
106.482
 21
36.429
  0
LINE
  8
0
 10
106.482
 20
36.429
 11
106.585
 21
36.2931
  0
LINE
  8
0
 10
106.585
 20
36.2931
 11
106.647
 21
36.1228
  0
LINE
  8
0
 10
106.647
 20
36.1228
 11
106.667
 21
35.918
  0
LINE
  8
0
 10
106.667
 20
35.918
 11
106.646
 21
35.7146
  0
LINE
  8
0
 10
106.646
 20
35.7146
 11
106.583
 21
35.5442
  0
LINE
  8
0
 10
106.583
 20
35.5442
 11
106.479
 21
35.407
  0
LINE
  8
0
 10
106.479
 20
35.407
 11
106.337
 21
35.307
  0
LINE
  8
0
 10
106.337
 20
35.307
 11
106.164
 21
35.247
  0
LINE
  8
0
 10
106.164
 20
35.247
 11
105.96
 21
35.227
  0
LINE
  8
0
 10
105.96
 20
35.227
 11
105.75
 21
35.2468
  0
LINE
  8
0
 10
12.3752
 20
31.9771
 11
12.0282
 21
32.1004
  0
LINE
  8
0
 10
12.0282
 20
32.1004
 11
11.7436
 21
32.306
  0
LINE
  8
0
 10
11.7436
 20
32.306
 11
11.5325
 21
32.5876
  0
LINE
  8
0
 10
11.5325
 20
32.5876
 11
11.4059
 21
32.9389
  0
LINE
  8
0
 10
11.4059
 20
32.9389
 11
11.3636
 21
33.36
  0
LINE
  8
0
 10
11.3636
 20
33.36
 11
11.4204
 21
33.7955
  0
LINE
  8
0
 10
11.4204
 20
33.7955
 11
11.5908
 21
34.1476
  0
LINE
  8
0
 10
11.5908
 20
34.1476
 11
11.8746
 21
34.416
  0
LINE
  8
0
 10
11.8746
 20
34.416
 11
12.2736
 21
34.6089
  0
LINE
  8
0
 10
12.2736
 20
34.6089
 11
12.788
 21
34.7342
  0
LINE
  8
0
 10
12.788
 20
34.7342
 11
13.4176
 21
34.792
  0
LINE
  8
0
 10
13.4176
 20
34.792
 11
14.2146
 21
34.816
  0
LINE
  8
0
 10
14.2146
 20
34.816
 11
14.2146
 21
35.012
  0
LINE
  8
0
 10
14.2146
 20
35.012
 11
14.1352
 21
35.3887
  0
LINE
  8
0
 10
14.1352
 20
35.3887
 11
13.8969
 21
35.6147
  0
LINE
  8
0
 10
13.8969
 20
35.6147
 11
13.4996
 21
35.69
  0
LINE
  8
0
 10
13.4996
 20
35.69
 11
13.1114
 21
35.6534
  0
LINE
  8
0
 10
13.1114
 20
35.6534
 11
12.6801
 21
35.5438
  0
LINE
  8
0
 10
12.6801
 20
35.5438
 11
12.2056
 21
35.361
  0
LINE
  8
0
 10
12.2056
 20
35.361
 11
11.7906
 21
36.198
  0
LINE
  8
0
 10
11.7906
 20
36.198
 11
12.3364
 21
36.4258
  0
LINE
  8
0
 10
12.3364
 20
36.4258
 11
12.9204
 21
36.5624
  0
LINE
  8
0
 10
12.9204
 20
36.5624
 11
13.5426
 21
36.608
  0
LINE
  8
0
 10
13.5426
 20
36.608
 11
14.1089
 21
36.564
  0
LINE
  8
0
 10
14.1089
 20
36.564
 11
14.5795
 21
36.432
  0
LINE
  8
0
 10
14.5795
 20
36.432
 11
14.9546
 21
36.212
  0
LINE
  8
0
 10
14.9546
 20
36.212
 11
15.2274
 21
35.9023
  0
LINE
  8
0
 10
15.2274
 20
35.9023
 11
15.3911
 21
35.5013
  0
LINE
  8
0
 10
15.3911
 20
35.5013
 11
15.4456
 21
35.009
  0
LINE
  8
0
 10
15.4456
 20
35.009
 11
15.4456
 21
32
  0
LINE
  8
0
 10
15.4456
 20
32
 11
14.5796
 21
32
  0
LINE
  8
0
 10
14.5796
 20
32
 11
14.3406
 21
32.635
  0
LINE
  8
0
 10
14.3406
 20
32.635
 11
14.3076
 21
32.635
  0
LINE
  8
0
 10
14.3076
 20
32.635
 11
14.0949
 21
32.3991
  0
LINE
  8
0
 10
14.0949
 20
32.3991
 11
13.8779
 21
32.2168
  0
LINE
  8
0
 10
13.8779
 20
32.2168
 11
13.6566
 21
32.088
  0
LINE
  8
0
 10
13.6566
 20
32.088
 11
13.4113
 21
32.0036
  0
LINE
  8
0
 10
13.4113
 20
32.0036
 11
13.1206
 21
31.9529
  0
LINE
  8
0
 10
13.1206
 20
31.9529
 11
12.7846
 21
31.936
  0
LINE
  8
0
 10
12.7846
 20
31.936
 11
12.3752
 21
31.9771
  0
LINE
  8
0
 10
13.5223
 20
32.8689
 11
13.7566
 21
32.9496
  0
LINE
  8
0
 10
13.7566
 20
32.9496
 11
13.9516
 21
33.084
  0
LINE
  8
0
 10
13.9516
 20
33.084
 11
14.0977
 21
33.2635
  0
LINE
  8
0
 10
14.0977
 20
33.2635
 11
14.1854
 21
33.4782
  0
LINE
  8
0
 10
14.1854
 20
33.4782
 11
14.2146
 21
33.728
  0
LINE
  8
0
 10
14.2146
 20
33.728
 11
14.2146
 21
34.093
  0
LINE
  8
0
 10
14.2146
 20
34.093
 11
13.7256
 21
34.077
  0
LINE
  8
0
 10
13.7256
 20
34.077
 11
13.3895
 21
34.0487
  0
LINE
  8
0
 10
13.3895
 20
34.0487
 11
13.1159
 21
33.985
  0
LINE
  8
0
 10
13.1159
 20
33.985
 11
12.9046
 21
33.886
  0
LINE
  8
0
 10
12.9046
 20
33.886
 11
12.7552
 21
33.7495
  0
LINE
  8
0
 10
12.7552
 20
33.7495
 11
12.6655
 21
33.5722
  0
LINE
  8
0
 10
12.6655
 20
33.5722
 11
12.6356
 21
33.354
  0
LINE
  8
0
 10
12.6356
 20
33.354
 11
12.7038
 21
33.0695
  0
LINE
  8
0
 10
12.7038
 20
33.0695
 11
12.9081
 21
32.8989
  0
LINE
  8
0
 10
12.9081
 20
32.8989
 11
13.2486
 21
32.842
  0
LINE
  8
0
 10
13.2486
 20
32.842
 11
13.5223
 21
32.8689
  0
LINE
  8
0
 10
25.4391
 20
32
 11
25.4391
 21
36.544
  0
LINE
  8
0
 10
25.4391
 20
36.544
 11
26.3851
 21
36.544
  0
LINE
  8
0
 10
26.3851
 20
36.544
 11
26.552
 21
35.942
  0
LINE
  8
0
 10
26.552
 20
35.942
 11
26.621
 21
35.942
  0
LINE
  8
0
 10
26.621
 20
35.942
 11
26.7617
 21
36.1354
  0
LINE
  8
0
 10
26.7617
 20
36.1354
 11
26.9384
 21
36.2984
  0
LINE
  8
0
 10
26.9384
 20
36.2984
 11
27.1511
 21
36.431
  0
LINE
  8
0
 10
27.1511
 20
36.431
 11
27.3937
 21
36.5293
  0
LINE
  8
0
 10
27.3937
 20
36.5293
 11
27.6591
 21
36.5883
  0
LINE
  8
0
 10
27.6591
 20
36.5883
 11
27.9471
 21
36.608
  0
LINE
  8
0
 10
27.9471
 20
36.608
 11
28.5557
 21
36.534
  0
LINE
  8
0
 10
28.5557
 20
36.534
 11
29.0177
 21
36.312
  0
LINE
  8
0
 10
29.0177
 20
36.312
 11
29.3331
 21
35.942
  0
LINE
  8
0
 10
29.3331
 20
35.942
 11
29.4421
 21
35.942
  0
LINE
  8
0
 10
29.4421
 20
35.942
 11
29.5839
 21
36.1374
  0
LINE
  8
0
 10
29.5839
 20
36.1374
 11
29.7643
 21
36.3011
  0
LINE
  8
0
 10
29.7643
 20
36.3011
 11
29.983
 21
36.433
  0
LINE
  8
0
 10
29.983
 20
36.433
 11
30.2312
 21
36.5302
  0
LINE
  8
0
 10
30.2312
 20
36.5302
 11
30.4995
 21
36.5885
  0
LINE
  8
0
 10
30.4995
 20
36.5885
 11
30.7881
 21
36.608
  0
LINE
  8
0
 10
30.7881
 20
36.608
 11
31.2628
 21
36.5641
  0
LINE
  8
0
 10
31.2628
 20
36.5641
 11
31.6538
 21
36.4324
  0
LINE
  8
0
 10
31.6538
 20
36.4324
 11
31.9611
 21
36.213
  0
LINE
  8
0
 10
31.9611
 20
36.213
 11
32.1822
 21
35.8974
  0
LINE
  8
0
 10
32.1822
 20
35.8974
 11
32.3148
 21
35.4761
  0
LINE
  8
0
 10
32.3148
 20
35.4761
 11
32.3591
 21
34.949
  0
LINE
  8
0
 10
32.3591
 20
34.949
 11
32.3591
 21
32
  0
LINE
  8
0
 10
32.3591
 20
32
 11
31.1161
 21
32
  0
LINE
  8
0
 10
31.1161
 20
32
 11
31.1161
 21
34.639
  0
LINE
  8
0
 10
31.1161
 20
34.639
 11
31.0976
 21
34.9378
  0
LINE
  8
0
 10
31.0976
 20
34.9378
 11
31.0423
 21
35.1821
  0
LINE
  8
0
 10
31.0423
 20
35.1821
 11
30.9501
 21
35.372
  0
LINE
  8
0
 10
30.9501
 20
35.372
 11
30.8188
 21
35.5081
  0
LINE
  8
0
 10
30.8188
 20
35.5081
 11
30.6452
 21
35.5898
  0
LINE
  8
0
 10
30.6452
 20
35.5898
 11
30.4291
 21
35.617
  0
LINE
  8
0
 10
30.4291
 20
35.617
 11
30.1488
 21
35.581
  0
LINE
  8
0
 10
30.1488
 20
35.581
 11
29.9202
 21
35.473
  0
LINE
  8
0
 10
29.9202
 20
35.473
 11
29.7431
 21
35.293
  0
LINE
  8
0
 10
29.7431
 20
35.293
 11
29.6169
 21
35.0354
  0
LINE
  8
0
 10
29.6169
 20
35.0354
 11
29.5413
 21
34.6934
  0
LINE
  8
0
 10
29.5413
 20
34.6934
 11
29.5161
 21
34.267
  0
LINE
  8
0
 10
29.5161
 20
34.267
 11
29.5161
 21
32
  0
LINE
  8
0
 10
29.5161
 20
32
 11
28.2771
 21
32
  0
LINE
  8
0
 10
28.2771
 20
32
 11
28.2771
 21
34.639
  0
LINE
  8
0
 10
28.2771
 20
34.639
 11
28.2586
 21
34.9378
  0
LINE
  8
0
 10
28.2586
 20
34.9378
 11
28.2033
 21
35.1821
  0
LINE
  8
0
 10
28.2033
 20
35.1821
 11
28.1111
 21
35.372
  0
LINE
  8
0
 10
28.1111
 20
35.372
 11
27.9798
 21
35.5081
  0
LINE
  8
0
 10
27.9798
 20
35.5081
 11
27.8062
 21
35.5898
  0
LINE
  8
0
 10
27.8062
 20
35.5898
 11
27.5901
 21
35.617
  0
LINE
  8
0
 10
27.5901
 20
35.617
 11
27.2998
 21
35.5783
  0
LINE
  8
0
 10
27.2998
 20
35.5783
 11
27.0678
 21
35.4623
  0
LINE
  8
0
 10
27.0678
 20
35.4623
 11
26.8941
 21
35.269
  0
LINE
  8
0
 10
26.8941
 20
35.269
 11
26.774
 21
34.9878
  0
LINE
  8
0
 10
26.774
 20
34.9878
 11
26.7021
 21
34.6068
  0
LINE
  8
0
 10
26.7021
 20
34.6068
 11
26.6781
 21
34.126
  0
LINE
  8
0
 10
26.6781
 20
34.126
 11
26.6781
 21
32
  0
LINE
  8
0
 10
26.6781
 20
32
 11
25.4391
 21
32
  0
LINE
  8
0
 10
93.1908
 20
31.9835
 11
92.7921
 21
32.1258
  0
LINE
  8
0
 10
92.7921
 20
32.1258
 11
92.4801
 21
32.363
  0
LINE
  8
0
 10
92.4801
 20
32.363
 11
92.2568
 21
32.6893
  0
LINE
  8
0
 10
92.2568
 20
32.6893
 11
92.1228
 21
33.099
  0
LINE
  8
0
 10
92.1228
 20
33.099
 11
92.0781
 21
33.592
  0
LINE
  8
0
 10
92.0781
 20
33.592
 11
92.0781
 21
36.544
  0
LINE
  8
0
 10
92.0781
 20
36.544
 11
93.3171
 21
36.544
  0
LINE
  8
0
 10
93.3171
 20
36.544
 11
93.3171
 21
33.902
  0
LINE
  8
0
 10
93.3171
 20
33.902
 11
93.3363
 21
33.6031
  0
LINE
  8
0
 10
93.3363
 20
33.6031
 11
93.3936
 21
33.3584
  0
LINE
  8
0
 10
93.3936
 20
33.3584
 11
93.4891
 21
33.168
  0
LINE
  8
0
 10
93.4891
 20
33.168
 11
93.6264
 21
33.0319
  0
LINE
  8
0
 10
93.6264
 20
33.0319
 11
93.8087
 21
32.9502
  0
LINE
  8
0
 10
93.8087
 20
32.9502
 11
94.0361
 21
32.923
  0
LINE
  8
0
 10
94.0361
 20
32.923
 11
94.3458
 21
32.9614
  0
LINE
  8
0
 10
94.3458
 20
32.9614
 11
94.5921
 21
33.0768
  0
LINE
  8
0
 10
94.5921
 20
33.0768
 11
94.7751
 21
33.269
  0
LINE
  8
0
 10
94.7751
 20
33.269
 11
94.9018
 21
33.5502
  0
LINE
  8
0
 10
94.9018
 20
33.5502
 11
94.9778
 21
33.9325
  0
LINE
  8
0
 10
94.9778
 20
33.9325
 11
95.0031
 21
34.416
  0
LINE
  8
0
 10
95.0031
 20
34.416
 11
95.0031
 21
36.544
  0
LINE
  8
0
 10
95.0031
 20
36.544
 11
96.2421
 21
36.544
  0
LINE
  8
0
 10
96.2421
 20
36.544
 11
96.2421
 21
32
  0
LINE
  8
0
 10
96.2421
 20
32
 11
95.2921
 21
32
  0
LINE
  8
0
 10
95.2921
 20
32
 11
95.1251
 21
32.598
  0
LINE
  8
0
 10
95.1251
 20
32.598
 11
95.0601
 21
32.598
  0
LINE
  8
0
 10
95.0601
 20
32.598
 11
94.9104
 21
32.4027
  0
LINE
  8
0
 10
94.9104
 20
32.4027
 11
94.7237
 21
32.2393
  0
LINE
  8
0
 10
94.7237
 20
32.2393
 11
94.5001
 21
32.108
  0
LINE
  8
0
 10
94.5001
 20
32.108
 11
94.2477
 21
32.0124
  0
LINE
  8
0
 10
94.2477
 20
32.0124
 11
93.973
 21
31.9551
  0
LINE
  8
0
 10
93.973
 20
31.9551
 11
93.6761
 21
31.936
  0
LINE
  8
0
 10
93.6761
 20
31.936
 11
93.1908
 21
31.9835
  0
LINE
  8
0
 10
21.1879
 20
31.9835
 11
20.7892
 21
32.1258
  0
LINE
  8
0
 10
20.7892
 20
32.1258
 11
20.4772
 21
32.363
  0
LINE
  8
0
 10
20.4772
 20
32.363
 11
20.2539
 21
32.6893
  0
LINE
  8
0
 10
20.2539
 20
32.6893
 11
20.1199
 21
33.099
  0
LINE
  8
0
 10
20.1199
 20
33.099
 11
20.0752
 21
33.592
  0
LINE
  8
0
 10
20.0752
 20
33.592
 11
20.0752
 21
36.544
  0
LINE
  8
0
 10
20.0752
 20
36.544
 11
21.3142
 21
36.544
  0
LINE
  8
0
 10
21.3142
 20
36.544
 11
21.3142
 21
33.902
  0
LINE
  8
0
 10
21.3142
 20
33.902
 11
21.3333
 21
33.6031
  0
LINE
  8
0
 10
21.3333
 20
33.6031
 11
21.3907
 21
33.3584
  0
LINE
  8
0
 10
21.3907
 20
33.3584
 11
21.4862
 21
33.168
  0
LINE
  8
0
 10
21.4862
 20
33.168
 11
21.6234
 21
33.0319
  0
LINE
  8
0
 10
21.6234
 20
33.0319
 11
21.8058
 21
32.9502
  0
LINE
  8
0
 10
21.8058
 20
32.9502
 11
22.0332
 21
32.923
  0
LINE
  8
0
 10
22.0332
 20
32.923
 11
22.3429
 21
32.9614
  0
LINE
  8
0
 10
22.3429
 20
32.9614
 11
22.5892
 21
33.0768
  0
LINE
  8
0
 10
22.5892
 20
33.0768
 11
22.7722
 21
33.269
  0
LINE
  8
0
 10
22.7722
 20
33.269
 11
22.8989
 21
33.5502
  0
LINE
  8
0
 10
22.8989
 20
33.5502
 11
22.9749
 21
33.9325
  0
LINE
  8
0
 10
22.9749
 20
33.9325
 11
23.0002
 21
34.416
  0
LINE
  8
0
 10
23.0002
 20
34.416
 11
23.0002
 21
36.544
  0
LINE
  8
0
 10
23.0002
 20
36.544
 11
24.2392
 21
36.544
  0
LINE
  8
0
 10
24.2392
 20
36.544
 11
24.2392
 21
32
  0
LINE
  8
0
 10
24.2392
 20
32
 11
23.2892
 21
32
  0
LINE
  8
0
 10
23.2892
 20
32
 11
23.1222
 21
32.598
  0
LINE
  8
0
 10
23.1222
 20
32.598
 11
23.0572
 21
32.598
  0
LINE
  8
0
 10
23.0572
 20
32.598
 11
22.9074
 21
32.4027
  0
LINE
  8
0
 10
22.9074
 20
32.4027
 11
22.7208
 21
32.2393
  0
LINE
  8
0
 10
22.7208
 20
32.2393
 11
22.4972
 21
32.108
  0
LINE
  8
0
 10
22.4972
 20
32.108
 11
22.2448
 21
32.0124
  0
LINE
  8
0
 10
22.2448
 20
32.0124
 11
21.9701
 21
31.9551
  0
LINE
  8
0
 10
21.9701
 20
31.9551
 11
21.6732
 21
31.936
  0
LINE
  8
0
 10
21.6732
 20
31.936
 11
21.1879
 21
31.9835
  0
LINE
  8
0
 10
105.75
 20
31.892
 11
105.574
 21
31.952
  0
LINE
  8
0
 10
105.574
 20
31.952
 11
105.432
 21
32.052
  0
LINE
  8
0
 10
105.432
 20
32.052
 11
105.329
 21
32.1892
  0
LINE
  8
0
 10
105.329
 20
32.1892
 11
105.266
 21
32.3595
  0
LINE
  8
0
 10
105.266
 20
32.3595
 11
105.245
 21
32.563
  0
LINE
  8
0
 10
105.245
 20
32.563
 11
105.266
 21
32.7718
  0
LINE
  8
0
 10
105.266
 20
32.7718
 11
105.327
 21
32.9434
  0
LINE
  8
0
 10
105.327
 20
32.9434
 11
105.428
 21
33.078
  0
LINE
  8
0
 10
105.428
 20
33.078
 11
105.569
 21
33.1752
  0
LINE
  8
0
 10
105.569
 20
33.1752
 11
105.746
 21
33.2336
  0
LINE
  8
0
 10
105.746
 20
33.2336
 11
105.96
 21
33.253
  0
LINE
  8
0
 10
105.96
 20
33.253
 11
106.168
 21
33.2331
  0
LINE
  8
0
 10
106.168
 20
33.2331
 11
106.342
 21
33.1734
  0
LINE
  8
0
 10
106.342
 20
33.1734
 11
106.482
 21
33.074
  0
LINE
  8
0
 10
106.482
 20
33.074
 11
106.585
 21
32.9381
  0
LINE
  8
0
 10
106.585
 20
32.9381
 11
106.647
 21
32.7678
  0
LINE
  8
0
 10
106.647
 20
32.7678
 11
106.667
 21
32.563
  0
LINE
  8
0
 10
106.667
 20
32.563
 11
106.647
 21
32.3641
  0
LINE
  8
0
 10
106.647
 20
32.3641
 11
106.584
 21
32.1954
  0
LINE
  8
0
 10
106.584
 20
32.1954
 11
106.48
 21
32.057
  0
LINE
  8
0
 10
106.48
 20
32.057
 11
106.34
 21
31.9542
  0
LINE
  8
0
 10
106.34
 20
31.9542
 11
106.166
 21
31.8926
  0
LINE
  8
0
 10
106.166
 20
31.8926
 11
105.96
 21
31.872
  0
LINE
  8
0
 10
105.96
 20
31.872
 11
105.75
 21
31.892
  0
LINE
  8
0
 10
33.7473
 20
31.892
 11
33.5714
 21
31.952
  0
LINE
  8
0
 10
33.5714
 20
31.952
 11
33.4296
 21
32.052
  0
LINE
  8
0
 10
33.4296
 20
32.052
 11
33.3257
 21
32.1892
  0
LINE
  8
0
 10
33.3257
 20
32.1892
 11
33.2634
 21
32.3595
  0
LINE
  8
0
 10
33.2634
 20
32.3595
 11
33.2426
 21
32.563
  0
LINE
  8
0
 10
33.2426
 20
32.563
 11
33.2629
 21
32.7718
  0
LINE
  8
0
 10
33.2629
 20
32.7718
 11
33.3239
 21
32.9434
  0
LINE
  8
0
 10
33.3239
 20
32.9434
 11
33.4256
 21
33.078
  0
LINE
  8
0
 10
33.4256
 20
33.078
 11
33.566
 21
33.1752
  0
LINE
  8
0
 10
33.566
 20
33.1752
 11
33.7433
 21
33.2336
  0
LINE
  8
0
 10
33.7433
 20
33.2336
 11
33.9576
 21
33.253
  0
LINE
  8
0
 10
33.9576
 20
33.253
 11
34.1653
 21
33.2331
  0
LINE
  8
0
 10
34.1653
 20
33.2331
 11
34.3394
 21
33.1734
  0
LINE
  8
0
 10
34.3394
 20
33.1734
 11
34.4796
 21
33.074
  0
LINE
  8
0
 10
34.4796
 20
33.074
 11
34.5824
 21
32.9381
  0
LINE
  8
0
 10
34.5824
 20
32.9381
 11
34.644
 21
32.7678
  0
LINE
  8
0
 10
34.644
 20
32.7678
 11
34.6646
 21
32.563
  0
LINE
  8
0
 10
34.6646
 20
32.563
 11
34.6438
 21
32.3641
  0
LINE
  8
0
 10
34.6438
 20
32.3641
 11
34.5815
 21
32.1954
  0
LINE
  8
0
 10
34.5815
 20
32.1954
 11
34.4776
 21
32.057
  0
LINE
  8
0
 10
34.4776
 20
32.057
 11
34.3367
 21
31.9542
  0
LINE
  8
0
 10
34.3367
 20
31.9542
 11
34.1633
 21
31.8926
  0
LINE
  8
0
 10
34.1633
 20
31.8926
 11
33.9576
 21
31.872
  0
LINE
  8
0
 10
33.9576
 20
31.872
 11
33.7473
 21
31.892
  0
LINE
  8
0
 10
6.519
 20
15
 11
5
 21
20.952
  0
LINE
  8
0
 10
5
 20
20.952
 11
6.239
 21
20.952
  0
LINE
  8
0
 10
6.239
 20
20.952
 11
7.00099
 21
17.702
  0
LINE
  8
0
 10
7.00099
 20
17.702
 11
7.1221
 21
17.1287
  0
LINE
  8
0
 10
7.1221
 20
17.1287
 11
7.21877
 21
16.6087
  0
LINE
  8
0
 10
7.21877
 20
16.6087
 11
7.29099
 21
16.142
  0
LINE
  8
0
 10
7.29099
 20
16.142
 11
7.31454
 21
16.325
  0
LINE
  8
0
 10
7.31454
 20
16.325
 11
7.35188
 21
16.5647
  0
LINE
  8
0
 10
7.35188
 20
16.5647
 11
7.403
 21
16.861
  0
LINE
  8
0
 10
7.403
 20
16.861
 11
7.46054
 21
17.1613
  0
LINE
  8
0
 10
7.46054
 20
17.1613
 11
7.51588
 21
17.413
  0
LINE
  8
0
 10
7.51588
 20
17.413
 11
8.439
 21
20.952
  0
LINE
  8
0
 10
8.439
 20
20.952
 11
9.629
 21
20.952
  0
LINE
  8
0
 10
9.629
 20
20.952
 11
10.499
 21
17.616
  0
LINE
  8
0
 10
10.499
 20
17.616
 11
10.5402
 21
17.4404
  0
LINE
  8
0
 10
10.5402
 20
17.4404
 11
10.5879
 21
17.2124
  0
LINE
  8
0
 10
10.5879
 20
17.2124
 11
10.642
 21
16.932
  0
LINE
  8
0
 10
10.642
 20
16.932
 11
10.6948
 21
16.6398
  0
LINE
  8
0
 10
10.6948
 20
16.6398
 11
10.7384
 21
16.3764
  0
LINE
  8
0
 10
10.7384
 20
16.3764
 11
10.773
 21
16.142
  0
LINE
  8
0
 10
10.773
 20
16.142
 11
10.8057
 21
16.3713
  0
LINE
  8
0
 10
10.8057
 20
16.3713
 11
10.849
 21
16.6353
  0
LINE
  8
0
 10
10.849
 20
16.6353
 11
10.903
 21
16.934
  0
LINE
  8
0
 10
10.903
 20
16.934
 11
10.9612
 21
17.2304
  0
LINE
  8
0
 10
10.9612
 20
17.2304
 11
11.0159
 21
17.4864
  0
LINE
  8
0
 10
11.0159
 20
17.4864
 11
11.825
 21
20.952
  0
LINE
  8
0
 10
11.825
 20
20.952
 11
13.064
 21
20.952
  0
LINE
  8
0
 10
13.064
 20
20.952
 11
11.549
 21
15
  0
LINE
  8
0
 10
11.549
 20
15
 11
10.114
 21
15
  0
LINE
  8
0
 10
10.114
 20
15
 11
9.306
 21
18.129
  0
LINE
  8
0
 10
9.306
 20
18.129
 11
9.26888
 21
18.2799
  0
LINE
  8
0
 10
9.26888
 20
18.2799
 11
9.21754
 21
18.5099
  0
LINE
  8
0
 10
9.21754
 20
18.5099
 11
9.15199
 21
18.819
  0
LINE
  8
0
 10
9.15199
 20
18.819
 11
9.09021
 21
19.13
  0
LINE
  8
0
 10
9.09021
 20
19.13
 11
9.04887
 21
19.3643
  0
LINE
  8
0
 10
9.04887
 20
19.3643
 11
9.028
 21
19.522
  0
LINE
  8
0
 10
9.028
 20
19.522
 11
9.00322
 21
19.3457
  0
LINE
  8
0
 10
9.00322
 20
19.3457
 11
8.96222
 21
19.11
  0
LINE
  8
0
 10
8.96222
 20
19.11
 11
8.905
 21
18.815
  0
LINE
  8
0
 10
8.905
 20
18.815
 11
8.84467
 21
18.5214
  0
LINE
  8
0
 10
8.84467
 20
18.5214
 11
8.79433
 21
18.2901
  0
LINE
  8
0
 10
8.79433
 20
18.2901
 11
8.754
 21
18.121
  0
LINE
  8
0
 10
8.754
 20
18.121
 11
7.94899
 21
15
  0
LINE
  8
0
 10
7.94899
 20
15
 11
6.519
 21
15
  0
LINE
  8
0
 10
14.8885
 20
15.0027
 11
14.3151
 21
15.2027
  0
LINE
  8
0
 10
14.3151
 20
15.2027
 11
13.8485
 21
15.536
  0
LINE
  8
0
 10
13.8485
 20
15.536
 11
13.5046
 21
15.9922
  0
LINE
  8
0
 10
13.5046
 20
15.9922
 11
13.2982
 21
16.5596
  0
LINE
  8
0
 10
13.2982
 20
16.5596
 11
13.2295
 21
17.238
  0
LINE
  8
0
 10
13.2295
 20
17.238
 11
13.293
 21
17.9357
  0
LINE
  8
0
 10
13.293
 20
17.9357
 11
13.4837
 21
18.5193
  0
LINE
  8
0
 10
13.4837
 20
18.5193
 11
13.8015
 21
18.989
  0
LINE
  8
0
 10
13.8015
 20
18.989
 11
14.232
 21
19.3329
  0
LINE
  8
0
 10
14.232
 20
19.3329
 11
14.7597
 21
19.5392
  0
LINE
  8
0
 10
14.7597
 20
19.5392
 11
15.3845
 21
19.608
  0
LINE
  8
0
 10
15.3845
 20
19.608
 11
15.9808
 21
19.5467
  0
LINE
  8
0
 10
15.9808
 20
19.5467
 11
16.4818
 21
19.3627
  0
LINE
  8
0
 10
16.4818
 20
19.3627
 11
16.8875
 21
19.056
  0
LINE
  8
0
 10
16.8875
 20
19.056
 11
17.1864
 21
18.6418
  0
LINE
  8
0
 10
17.1864
 20
18.6418
 11
17.3657
 21
18.1338
  0
LINE
  8
0
 10
17.3657
 20
18.1338
 11
17.4255
 21
17.532
  0
LINE
  8
0
 10
17.4255
 20
17.532
 11
17.4255
 21
16.927
  0
LINE
  8
0
 10
17.4255
 20
16.927
 11
14.4845
 21
16.927
  0
LINE
  8
0
 10
14.4845
 20
16.927
 11
14.5282
 21
16.6156
  0
LINE
  8
0
 10
14.5282
 20
16.6156
 11
14.6329
 21
16.3532
  0
LINE
  8
0
 10
14.6329
 20
16.3532
 11
14.7985
 21
16.14
  0
LINE
  8
0
 10
14.7985
 20
16.14
 11
15.0207
 21
15.9833
  0
LINE
  8
0
 10
15.0207
 20
15.9833
 11
15.2953
 21
15.8893
  0
LINE
  8
0
 10
15.2953
 20
15.8893
 11
15.6225
 21
15.858
  0
LINE
  8
0
 10
15.6225
 20
15.858
 11
15.8927
 21
15.867
  0
LINE
  8
0
 10
15.8927
 20
15.867
 11
16.1527
 21
15.894
  0
LINE
  8
0
 10
16.1527
 20
15.894
 11
16.4025
 21
15.939
  0
LINE
  8
0
 10
16.4025
 20
15.939
 11
16.6508
 21
16.0043
  0
LINE
  8
0
 10
16.6508
 20
16.0043
 11
16.9065
 21
16.091
  0
LINE
  8
0
 10
16.9065
 20
16.091
 11
17.1695
 21
16.199
  0
LINE
  8
0
 10
17.1695
 20
16.199
 11
17.1695
 21
15.253
  0
LINE
  8
0
 10
17.1695
 20
15.253
 11
16.9471
 21
15.1549
  0
LINE
  8
0
 10
16.9471
 20
15.1549
 11
16.7148
 21
15.0752
  0
LINE
  8
0
 10
16.7148
 20
15.0752
 11
16.4725
 21
15.014
  0
LINE
  8
0
 10
16.4725
 20
15.014
 11
16.2071
 21
14.9707
  0
LINE
  8
0
 10
16.2071
 20
14.9707
 11
15.9058
 21
14.9447
  0
LINE
  8
0
 10
15.9058
 20
14.9447
 11
15.5685
 21
14.936
  0
LINE
  8
0
 10
15.5685
 20
14.936
 11
14.8885
 21
15.0027
  0
LINE
  8
0
 10
16.2331
 20
18.0391
 11
16.1528
 21
18.2791
  0
LINE
  8
0
 10
16.1528
 20
18.2791
 11
16.0225
 21
18.472
  0
LINE
  8
0
 10
16.0225
 20
18.472
 11
15.8489
 21
18.6131
  0
LINE
  8
0
 10
15.8489
 20
18.6131
 11
15.6389
 21
18.6978
  0
LINE
  8
0
 10
15.6389
 20
18.6978
 11
15.3925
 21
18.726
  0
LINE
  8
0
 10
15.3925
 20
18.726
 11
15.1469
 21
18.6978
  0
LINE
  8
0
 10
15.1469
 20
18.6978
 11
14.9396
 21
18.6131
  0
LINE
  8
0
 10
14.9396
 20
18.6131
 11
14.7705
 21
18.472
  0
LINE
  8
0
 10
14.7705
 20
18.472
 11
14.6423
 21
18.2791
  0
LINE
  8
0
 10
14.6423
 20
18.2791
 11
14.5567
 21
18.0391
  0
LINE
  8
0
 10
14.5567
 20
18.0391
 11
14.5135
 21
17.752
  0
LINE
  8
0
 10
14.5135
 20
17.752
 11
16.2635
 21
17.752
  0
LINE
  8
0
 10
16.2635
 20
17.752
 11
16.2331
 21
18.0391
  0
LINE
  8
0
 10
18.3062
 20
15
 11
18.3062
 21
19.544
  0
LINE
  8
0
 10
18.3062
 20
19.544
 11
19.2442
 21
19.544
  0
LINE
  8
0
 10
19.2442
 20
19.544
 11
19.4272
 21
18.759
  0
LINE
  8
0
 10
19.4272
 20
18.759
 11
19.4882
 21
18.759
  0
LINE
  8
0
 10
19.4882
 20
18.759
 11
19.6454
 21
18.9971
  0
LINE
  8
0
 10
19.6454
 20
18.9971
 11
19.8354
 21
19.2021
  0
LINE
  8
0
 10
19.8354
 20
19.2021
 11
20.0582
 21
19.374
  0
LINE
  8
0
 10
20.0582
 20
19.374
 11
20.3046
 21
19.504
  0
LINE
  8
0
 10
20.3046
 20
19.504
 11
20.5649
 21
19.582
  0
LINE
  8
0
 10
20.5649
 20
19.582
 11
20.8392
 21
19.608
  0
LINE
  8
0
 10
20.8392
 20
19.608
 11
20.9977
 21
19.6039
  0
LINE
  8
0
 10
20.9977
 20
19.6039
 11
21.137
 21
19.5916
  0
LINE
  8
0
 10
21.137
 20
19.5916
 11
21.2572
 21
19.571
  0
LINE
  8
0
 10
21.2572
 20
19.571
 11
21.1642
 21
18.41
  0
LINE
  8
0
 10
21.1642
 20
18.41
 11
21.057
 21
18.4322
  0
LINE
  8
0
 10
21.057
 20
18.4322
 11
20.9353
 21
18.4455
  0
LINE
  8
0
 10
20.9353
 20
18.4455
 11
20.7992
 21
18.45
  0
LINE
  8
0
 10
20.7992
 20
18.45
 11
20.433
 21
18.4163
  0
LINE
  8
0
 10
20.433
 20
18.4163
 11
20.125
 21
18.3153
  0
LINE
  8
0
 10
20.125
 20
18.3153
 11
19.8752
 21
18.147
  0
LINE
  8
0
 10
19.8752
 20
18.147
 11
19.6919
 21
17.9181
  0
LINE
  8
0
 10
19.6919
 20
17.9181
 11
19.5819
 21
17.6354
  0
LINE
  8
0
 10
19.5819
 20
17.6354
 11
19.5452
 21
17.299
  0
LINE
  8
0
 10
19.5452
 20
17.299
 11
19.5452
 21
15
  0
LINE
  8
0
 10
19.5452
 20
15
 11
18.3062
 21
15
  0
LINE
  8
0
 10
22.3255
 20
18.2468
 11
22.1495
 21
18.3061
  0
LINE
  8
0
 10
22.1495
 20
18.3061
 11
22.0077
 21
18.405
  0
LINE
  8
0
 10
22.0077
 20
18.405
 11
21.9038
 21
18.5415
  0
LINE
  8
0
 10
21.9038
 20
18.5415
 11
21.8415
 21
18.7126
  0
LINE
  8
0
 10
21.8415
 20
18.7126
 11
21.8207
 21
18.918
  0
LINE
  8
0
 10
21.8207
 20
18.918
 11
21.841
 21
19.1268
  0
LINE
  8
0
 10
21.841
 20
19.1268
 11
21.902
 21
19.2984
  0
LINE
  8
0
 10
21.902
 20
19.2984
 11
22.0037
 21
19.433
  0
LINE
  8
0
 10
22.0037
 20
19.433
 11
22.1441
 21
19.5302
  0
LINE
  8
0
 10
22.1441
 20
19.5302
 11
22.3215
 21
19.5885
  0
LINE
  8
0
 10
22.3215
 20
19.5885
 11
22.5357
 21
19.608
  0
LINE
  8
0
 10
22.5357
 20
19.608
 11
22.7435
 21
19.5881
  0
LINE
  8
0
 10
22.7435
 20
19.5881
 11
22.9175
 21
19.5284
  0
LINE
  8
0
 10
22.9175
 20
19.5284
 11
23.0577
 21
19.429
  0
LINE
  8
0
 10
23.0577
 20
19.429
 11
23.1605
 21
19.2931
  0
LINE
  8
0
 10
23.1605
 20
19.2931
 11
23.2221
 21
19.1228
  0
LINE
  8
0
 10
23.2221
 20
19.1228
 11
23.2427
 21
18.918
  0
LINE
  8
0
 10
23.2427
 20
18.918
 11
23.2217
 21
18.7146
  0
LINE
  8
0
 10
23.2217
 20
18.7146
 11
23.1587
 21
18.5442
  0
LINE
  8
0
 10
23.1587
 20
18.5442
 11
23.0537
 21
18.407
  0
LINE
  8
0
 10
23.0537
 20
18.407
 11
22.9121
 21
18.307
  0
LINE
  8
0
 10
22.9121
 20
18.307
 11
22.7395
 21
18.247
  0
LINE
  8
0
 10
22.7395
 20
18.247
 11
22.5357
 21
18.227
  0
LINE
  8
0
 10
22.5357
 20
18.227
 11
22.3255
 21
18.2468
  0
LINE
  8
0
 10
22.3255
 20
14.892
 11
22.1495
 21
14.952
  0
LINE
  8
0
 10
22.1495
 20
14.952
 11
22.0077
 21
15.052
  0
LINE
  8
0
 10
22.0077
 20
15.052
 11
21.9038
 21
15.1892
  0
LINE
  8
0
 10
21.9038
 20
15.1892
 11
21.8415
 21
15.3595
  0
LINE
  8
0
 10
21.8415
 20
15.3595
 11
21.8207
 21
15.563
  0
LINE
  8
0
 10
21.8207
 20
15.563
 11
21.841
 21
15.7718
  0
LINE
  8
0
 10
21.841
 20
15.7718
 11
21.902
 21
15.9434
  0
LINE
  8
0
 10
21.902
 20
15.9434
 11
22.0037
 21
16.078
  0
LINE
  8
0
 10
22.0037
 20
16.078
 11
22.1441
 21
16.1752
  0
LINE
  8
0
 10
22.1441
 20
16.1752
 11
22.3215
 21
16.2336
  0
LINE
  8
0
 10
22.3215
 20
16.2336
 11
22.5357
 21
16.253
  0
LINE
  8
0
 10
22.5357
 20
16.253
 11
22.7435
 21
16.2331
  0
LINE
  8
0
 10
22.7435
 20
16.2331
 11
22.9175
 21
16.1734
  0
LINE
  8
0
 10
22.9175
 20
16.1734
 11
23.0577
 21
16.074
  0
LINE
  8
0
 10
23.0577
 20
16.074
 11
23.1605
 21
15.9381
  0
LINE
  8
0
 10
23.1605
 20
15.9381
 11
23.2221
 21
15.7678
  0
LINE
  8
0
 10
23.2221
 20
15.7678
 11
23.2427
 21
15.563
  0
LINE
  8
0
 10
23.2427
 20
15.563
 11
23.2219
 21
15.3641
  0
LINE
  8
0
 10
23.2219
 20
15.3641
 11
23.1596
 21
15.1954
  0
LINE
  8
0
 10
23.1596
 20
15.1954
 11
23.0557
 21
15.057
  0
LINE
  8
0
 10
23.0557
 20
15.057
 11
22.9148
 21
14.9542
  0
LINE
  8
0
 10
22.9148
 20
14.9542
 11
22.7415
 21
14.8926
  0
LINE
  8
0
 10
22.7415
 20
14.8926
 11
22.5357
 21
14.872
  0
LINE
  8
0
 10
22.5357
 20
14.872
 11
22.3255
 21
14.892
  0
ENDSEC
  0
SECTION
  2
OBJECTS
  0
DICTIONARY
  0
ENDSEC
  0
EOF
